<svg version="1.1" id="Layer_1" xmlns="http://www.w3.org/2000/svg" xmlns:xlink="http://www.w3.org/1999/xlink" x="0px" y="0px"
	 width="100%" viewBox="0 0 1024 816" enable-background="new 0 0 1024 816" xml:space="preserve">
<path fill="#000000" opacity="1.000000" stroke="none" 
	d="
M487.942993,431.182373 
	C469.574982,423.553406 450.899963,416.727203 435.254578,405.247742 
	C420.070129,394.106445 403.929688,384.265320 389.416626,372.205292 
	C387.641388,370.730133 386.899658,368.732483 386.193726,366.682220 
	C376.387970,338.202240 370.736847,308.925201 368.545959,278.876862 
	C367.540436,265.086334 366.533936,251.322861 366.670074,237.497696 
	C366.706299,233.821686 365.343567,232.803680 361.781738,233.722412 
	C355.143188,235.434753 348.644958,237.507355 342.560303,240.664597 
	C329.427063,247.479233 321.112000,257.815277 319.460663,272.898468 
	C319.335968,274.037140 319.093231,275.163727 318.876068,276.290283 
	C318.851501,276.417633 318.635559,276.508087 318.471527,276.646729 
	C316.560822,275.674896 317.059631,273.827332 316.969147,272.260712 
	C315.811829,252.222794 325.743042,237.295929 345.793549,228.948441 
	C351.032166,226.767471 356.421570,224.916550 362.000214,223.964310 
	C365.620056,223.346451 366.717712,221.540451 366.635254,218.204575 
	C366.540649,214.375000 366.847107,210.531830 366.667755,206.709167 
	C366.516724,203.490097 367.926727,201.918213 370.855652,200.884216 
	C413.876801,185.696442 456.307617,168.854752 499.742676,154.829056 
	C509.249329,151.759232 518.962158,149.389984 528.851868,147.909927 
	C535.750244,146.877533 542.655884,148.099258 549.033142,150.276611 
	C560.527344,154.200989 571.769897,153.073364 583.397583,151.355957 
	C604.882874,148.182571 626.533630,147.903305 648.191223,149.684006 
	C648.772705,149.731827 649.325684,150.126602 650.737793,150.707611 
	C646.097595,153.126923 641.667236,152.336334 637.608826,153.063217 
	C595.217285,160.655609 554.489197,173.272751 516.178284,193.113953 
	C470.712646,216.660538 445.237671,254.703735 436.318054,304.506622 
	C434.854797,312.676758 433.603394,320.898102 434.294434,329.166077 
	C435.299652,329.697876 435.741577,329.080170 436.079071,328.553314 
	C454.296631,300.117249 479.343872,278.485321 506.205353,258.802368 
	C543.621155,231.385635 584.073181,209.372986 627.199036,192.288559 
	C628.648193,191.714478 630.037476,190.427475 631.862732,191.366470 
	C631.662964,193.375763 629.890564,193.482239 628.660828,194.082932 
	C584.858643,215.478790 544.873596,242.719772 507.233917,273.517792 
	C487.069733,290.016754 468.235291,307.894440 452.182495,328.518311 
	C442.197449,341.346588 433.353149,354.784241 429.916382,371.077667 
	C428.528931,377.655212 427.885284,384.195129 429.428558,391.129547 
	C431.166321,384.684631 432.431732,378.355652 435.450500,372.598236 
	C439.024994,365.781036 444.154022,360.471283 450.624817,356.356567 
	C452.672882,355.054199 454.735626,354.483124 457.193207,354.509094 
	C476.678558,354.714752 496.167816,355.391022 515.635498,353.727112 
	C543.586853,351.338074 568.108948,340.586761 589.811157,323.197205 
	C624.619690,295.305756 652.932556,262.087738 672.118469,221.522888 
	C686.467346,191.184952 695.791931,159.394180 699.779602,126.041901 
	C700.628967,118.937424 701.448303,111.859039 701.064819,104.689400 
	C701.013306,103.726395 701.000610,102.645355 702.878601,101.910217 
	C703.348083,104.500710 703.922913,106.964790 704.228088,109.461838 
	C708.968018,148.252380 706.664978,186.504761 695.318726,224.043274 
	C694.533081,226.642868 694.332825,229.253464 694.349609,231.931580 
	C694.492798,254.766571 693.358032,277.522064 690.358765,300.179993 
	C688.041260,317.687378 684.705322,334.978455 679.560547,351.873932 
	C678.425964,355.599731 678.839905,358.357666 681.193542,361.471466 
	C689.273193,372.160614 696.093689,383.593109 699.799438,396.606873 
	C702.824402,407.230316 703.636047,417.880219 699.399780,428.439850 
	C698.153503,431.546600 698.159241,431.548920 695.029480,434.551544 
	C700.821777,408.755066 688.906799,389.118469 675.573792,369.822998 
	C672.851196,370.830627 672.706177,372.850891 672.064758,374.457520 
	C661.133789,401.836426 646.029114,426.563141 625.442932,447.791656 
	C621.966248,451.376801 618.166748,454.647522 614.657471,458.202789 
	C612.620850,460.266113 610.207214,460.204773 607.698059,460.031464 
	C591.910767,458.941193 576.306885,456.602997 560.799683,453.448608 
	C535.916870,448.387146 511.882874,440.610168 487.942993,431.182373 
M519.047241,416.520966 
	C511.510986,416.137146 506.929108,411.271545 503.732056,405.338898 
	C501.357880,400.933258 498.601135,397.952118 494.877533,400.472961 
	C488.108337,405.055603 481.884766,403.417419 475.199371,401.578735 
	C473.790161,401.191162 472.226044,401.362061 470.732788,401.285828 
	C468.425873,401.167999 466.022980,401.639252 465.281647,403.906586 
	C464.388458,406.638245 467.325500,406.958191 468.912811,407.753632 
	C488.150238,417.394257 508.200287,424.985718 528.785767,431.191315 
	C530.112488,431.591278 531.594238,432.441589 532.883423,430.914368 
	C532.758179,428.543854 530.172607,427.364441 530.021118,425.201416 
	C529.569153,418.748627 525.176636,417.207916 519.047241,416.520966 
z"/>
<path fill="#000000" opacity="1.000000" stroke="none" 
	d="
M317.592346,237.621994 
	C305.858124,258.170532 309.085602,278.390564 317.898285,298.367188 
	C329.589600,324.869141 348.453217,346.014648 370.026550,364.648315 
	C426.199188,413.166412 491.385376,443.722107 563.658508,459.328827 
	C590.600586,465.146729 618.006592,467.620392 645.555969,464.533539 
	C663.362488,462.538330 680.674927,458.382965 695.834167,448.040222 
	C714.859863,435.059418 723.824219,417.408112 720.711975,394.185211 
	C720.513794,392.706543 720.401978,391.215881 720.278381,389.728424 
	C720.269104,389.616150 720.488464,389.484863 721.110291,388.811371 
	C724.378479,394.922668 725.302246,401.412292 726.214844,407.792908 
	C731.365417,443.803223 708.587524,466.575623 679.030579,476.563110 
	C663.461121,481.824097 647.455139,484.507874 630.958923,484.417206 
	C615.131592,484.330200 599.290222,484.757477 583.632629,481.844238 
	C581.585144,481.463287 580.103088,482.176544 578.503662,483.126617 
	C563.870667,491.818970 548.656738,499.346344 532.924927,505.838074 
	C530.883301,506.680573 529.057800,507.201233 526.745728,506.264252 
	C489.870361,491.320831 456.420715,471.218231 429.118439,441.796600 
	C422.881592,435.075592 416.620483,428.335754 411.634033,420.618774 
	C408.112213,415.168457 403.508453,411.155243 398.221100,407.497742 
	C366.879700,385.817566 338.534607,361.000519 317.695770,328.604462 
	C307.849335,313.297150 301.253967,296.778748 298.959473,278.524689 
	C296.417755,258.303558 310.203033,231.504913 327.949615,224.628799 
	C324.839844,229.063293 320.530243,232.606689 317.592346,237.621994 
z"/>
<path fill="#000000" opacity="1.000000" stroke="none" 
	d="
M554.707031,576.531250 
	C554.711792,568.274414 554.830261,560.450500 554.675415,552.631897 
	C554.603577,549.005005 555.914612,547.597229 559.616089,547.664978 
	C572.351685,547.898071 570.191711,546.617493 570.292603,558.247986 
	C570.419617,572.891907 570.320496,587.537720 570.318970,602.182739 
	C570.318787,603.987488 570.318909,605.792236 570.318909,607.914368 
	C565.338440,608.855347 560.703308,608.243347 556.115234,608.320862 
	C554.233154,608.352600 553.388245,606.595886 552.341248,605.334839 
	C545.006897,596.500916 537.707642,587.637695 530.331543,578.838806 
	C529.314575,577.625732 528.664612,575.945557 526.047729,575.228394 
	C526.047729,583.724854 526.151733,591.957458 525.987793,600.184692 
	C525.934814,602.840698 527.483459,606.773926 524.300659,607.834778 
	C520.305542,609.166321 515.746277,608.807068 511.509735,607.893311 
	C509.773132,607.518799 509.920898,605.515015 509.917908,604.051208 
	C509.882446,586.743835 509.906799,569.436340 509.863434,552.129028 
	C509.855652,549.018250 511.155243,547.921753 514.333191,547.615784 
	C521.816406,546.895325 527.457336,548.653809 532.176819,555.281372 
	C538.714111,564.461548 546.431885,572.801025 553.877380,581.781677 
	C555.237671,580.130798 554.495667,578.450562 554.707031,576.531250 
z"/>
<path fill="#000000" opacity="1.000000" stroke="none" 
	d="
M303.043793,594.313110 
	C304.228973,593.922485 305.055450,593.739807 305.806976,593.394104 
	C308.381683,592.210083 311.509644,591.190430 310.584869,587.463562 
	C309.691986,583.865234 306.458710,585.698547 304.236115,585.374695 
	C302.440735,585.113098 300.556061,585.140381 298.747986,585.353394 
	C294.192596,585.890137 292.484528,584.091919 292.700836,579.449768 
	C292.989990,573.245667 292.988678,572.955994 299.180420,572.934631 
	C306.013550,572.911072 312.850098,573.058105 319.678802,572.882874 
	C323.813416,572.776855 325.445374,574.503418 325.139069,578.554077 
	C324.951141,581.039551 324.757874,583.612732 325.178192,586.040771 
	C327.054016,596.876892 320.834534,602.603333 312.143372,606.337585 
	C291.719818,615.113037 266.890442,605.548157 264.395935,580.945679 
	C263.338409,570.515991 266.921875,561.570129 274.818115,554.633362 
	C287.609924,543.396057 308.894867,544.231384 320.890533,556.276428 
	C322.048248,557.438843 323.454285,558.463989 323.601685,560.636169 
	C320.628235,563.409119 316.613556,564.667358 312.985779,566.569519 
	C311.080322,567.568542 309.951447,565.987427 308.585846,565.099060 
	C303.639862,561.881531 298.392365,560.484680 292.467896,562.108215 
	C283.525360,564.558838 279.142517,570.964233 280.183533,580.456543 
	C281.068817,588.529053 287.747253,594.553528 296.171112,594.763367 
	C298.327057,594.817017 300.490662,594.560364 303.043793,594.313110 
z"/>
<path fill="#000000" opacity="1.000000" stroke="none" 
	d="
M354.120209,594.098633 
	C350.229126,594.054932 350.330231,596.479004 350.263123,598.917236 
	C350.004974,608.298096 349.971161,608.055725 340.504669,608.465027 
	C335.938324,608.662476 334.482910,607.405212 334.560822,602.716492 
	C334.831757,586.405396 334.830109,570.084412 334.567596,553.773071 
	C334.488586,548.865601 336.193054,547.413757 340.902252,547.615112 
	C348.380463,547.934937 355.882416,547.679993 363.374146,547.708252 
	C372.983826,547.744446 380.030914,552.009521 383.910889,560.839478 
	C387.740204,569.553955 385.817505,581.357056 379.192413,587.267090 
	C376.066040,590.056030 376.625458,591.839966 378.586761,594.683838 
	C381.384155,598.739990 384.550323,602.602966 386.913574,607.869202 
	C380.725189,608.724915 374.858612,609.096802 369.382355,607.863953 
	C365.616302,607.016113 364.751892,602.059570 362.879272,598.830078 
	C360.886414,595.393127 358.581665,593.464905 354.120209,594.098633 
M350.289581,572.377014 
	C350.375275,579.024292 350.382690,579.033142 356.859314,579.084290 
	C357.851379,579.092102 358.844238,579.104553 359.835632,579.076355 
	C366.612946,578.884033 369.861420,576.156433 369.824982,570.703247 
	C369.790100,565.482117 366.099854,562.328186 359.719818,562.334229 
	C348.977142,562.344360 350.406982,561.335815 350.289581,572.377014 
z"/>
<path fill="#000000" opacity="1.000000" stroke="none" 
	d="
M704.462402,561.640747 
	C713.542419,548.494263 727.812805,543.603638 741.717346,548.619812 
	C755.360779,553.541748 763.396301,566.444336 762.276733,581.631653 
	C761.295593,594.940857 749.162964,607.702271 736.038757,609.229492 
	C720.378906,611.051758 706.468445,602.911377 701.755737,589.343079 
	C698.436890,579.787964 699.374878,570.714783 704.462402,561.640747 
M715.118042,572.842407 
	C714.843628,574.468384 714.376282,576.088623 714.327332,577.721375 
	C714.085693,585.782349 719.541138,592.901001 727.101074,594.548767 
	C735.162903,596.305908 742.991211,592.393372 746.465271,584.870483 
	C749.713623,577.836304 747.523621,569.703003 741.075623,564.854187 
	C732.138428,558.133606 720.895508,561.300598 715.118042,572.842407 
z"/>
<path fill="#000000" opacity="1.000000" stroke="none" 
	d="
M453.842651,605.742065 
	C453.751648,587.779053 453.812866,570.289001 453.632355,552.801392 
	C453.591339,548.830139 455.054291,547.589722 458.894745,547.641052 
	C471.218567,547.805908 483.547150,547.797119 495.871307,547.645569 
	C499.489624,547.601135 501.230103,548.807068 500.894653,552.512939 
	C500.864746,552.843445 500.884308,553.178955 500.888245,553.512024 
	C500.992554,562.317261 500.992737,562.317017 492.364319,562.314880 
	C486.700989,562.313416 481.036438,562.384583 475.374817,562.285217 
	C471.931519,562.224792 469.227905,562.276794 469.220734,567.100342 
	C469.213135,572.203369 472.396515,571.645569 475.571167,571.648621 
	C481.870087,571.654724 488.169006,571.650452 494.753937,571.650452 
	C495.744110,575.423218 495.278992,578.897339 495.231720,582.320618 
	C495.197021,584.832153 493.273254,585.109192 491.341949,585.122803 
	C486.345215,585.158081 481.341675,585.001892 476.353699,585.218079 
	C473.414825,585.345459 469.356201,583.622498 469.241516,589.387146 
	C469.127258,595.132019 473.068054,593.694275 476.102386,593.750183 
	C482.762878,593.872742 489.429718,593.902405 496.088776,593.747437 
	C499.587769,593.666077 500.884674,594.968750 500.540344,598.486206 
	C500.251068,601.441467 500.480865,604.447632 500.480865,606.928589 
	C499.055542,608.664612 497.638641,608.337585 496.353943,608.341125 
	C483.861420,608.375671 471.368713,608.397583 458.876251,608.364990 
	C456.975128,608.360046 454.706512,608.900940 453.842651,605.742065 
z"/>
<path fill="#000000" opacity="1.000000" stroke="none" 
	d="
M422.085175,571.654846 
	C426.402435,571.653259 430.235931,571.744446 434.062408,571.619934 
	C436.969818,571.525330 438.164337,572.600098 438.321259,575.643066 
	C438.806458,585.052673 438.786804,585.186829 429.466705,585.168213 
	C425.636200,585.160522 421.805023,585.210693 417.975433,585.151184 
	C414.806854,585.101990 412.035004,584.971130 412.106964,589.635864 
	C412.174835,594.033691 414.787720,593.825378 417.753326,593.802551 
	C424.248138,593.752686 430.751404,593.972961 437.235992,593.709106 
	C441.604126,593.531311 443.546326,594.713623 443.406311,599.545227 
	C443.150543,608.370483 443.416107,608.362854 434.383453,608.353210 
	C423.558136,608.341675 412.731201,608.253662 401.908447,608.422913 
	C398.190460,608.481018 396.544647,607.519104 396.591644,603.405884 
	C396.783844,586.587219 396.754578,569.764526 396.617889,552.944763 
	C396.587097,549.155212 397.705750,547.574646 401.718414,547.636169 
	C414.039764,547.825134 426.366455,547.787048 438.689453,547.667114 
	C442.143066,547.633484 443.294983,548.941345 443.374298,552.359192 
	C443.605316,562.315308 443.730133,562.312927 434.022339,562.311462 
	C428.359863,562.310608 422.694366,562.419067 417.036133,562.263611 
	C413.799194,562.174683 412.126373,562.994141 412.139954,566.688293 
	C412.153381,570.339478 413.411530,571.970398 417.103607,571.654175 
	C418.590942,571.526794 420.099487,571.647217 422.085175,571.654846 
z"/>
<path fill="#000000" opacity="1.000000" stroke="none" 
	d="
M669.290833,593.788574 
	C676.581543,593.789368 683.410339,593.897949 690.233337,593.744812 
	C693.738892,593.666138 695.408386,594.741638 695.358948,598.559387 
	C695.209534,610.085266 695.982666,608.263489 685.899109,608.333862 
	C675.410217,608.407104 664.916931,608.207825 654.432922,608.449890 
	C650.258606,608.546265 648.511780,607.530212 648.579773,602.937988 
	C648.826172,586.291809 648.756775,569.639160 648.627197,552.990417 
	C648.598206,549.267151 649.584045,547.565552 653.661926,547.631409 
	C665.979675,547.830261 678.303101,547.782715 690.622925,547.675720 
	C694.002197,547.646423 695.401917,548.808411 695.355286,552.308472 
	C695.199707,563.994568 696.180054,562.163635 685.583008,562.300415 
	C679.756531,562.375671 673.926453,562.413025 668.101807,562.288574 
	C664.885498,562.219910 664.186584,563.876099 664.215698,566.653931 
	C664.244690,569.426147 664.505737,571.666870 668.106812,571.627808 
	C673.933289,571.564636 679.764954,571.762573 685.587036,571.594788 
	C688.962952,571.497559 690.622742,572.618042 690.284058,576.157593 
	C690.157837,577.476990 690.177917,578.828064 690.296387,580.149841 
	C690.620728,583.768127 689.098633,585.317627 685.408142,585.208801 
	C679.918457,585.046814 674.419678,585.223816 668.926453,585.142517 
	C666.052002,585.099976 664.183105,585.654175 664.147217,589.200500 
	C664.112061,592.675537 665.377808,594.179932 669.290833,593.788574 
z"/>
<path fill="#000000" opacity="1.000000" stroke="none" 
	d="
M626.941589,258.971710 
	C649.058533,227.551315 663.030762,192.677353 675.065735,156.783890 
	C675.721680,162.338928 674.353577,167.544754 673.299866,172.737793 
	C660.805237,234.317078 629.688416,284.051514 578.443115,320.753052 
	C561.698120,332.745636 542.437988,338.342072 522.254944,341.313141 
	C508.802551,343.293427 495.350861,345.096375 481.403564,344.944061 
	C542.764221,338.075531 591.354248,309.777283 626.941589,258.971710 
z"/>
<path fill="#000000" opacity="1.000000" stroke="none" 
	d="
M613.605469,594.692078 
	C618.320374,594.057617 622.055847,592.253174 624.661743,588.768677 
	C626.623047,586.146057 628.557556,586.137756 631.007263,587.817505 
	C632.101562,588.567810 633.328430,589.122620 634.482300,589.788391 
	C640.897888,593.490356 640.915833,593.598328 636.181458,599.081543 
	C624.618042,612.473999 601.028564,613.164673 588.046448,600.490845 
	C575.108643,587.860413 575.768982,566.599243 589.470825,554.632202 
	C603.091309,542.736267 626.975464,544.549133 637.658691,558.166870 
	C640.047729,561.212158 640.288696,563.357422 636.397949,565.067932 
	C635.186096,565.600647 634.003357,566.278259 632.949646,567.077332 
	C629.490417,569.700562 627.016846,569.621826 623.817993,565.939087 
	C618.820251,560.185425 609.100586,559.487061 602.644897,563.449768 
	C596.097595,567.468750 593.347229,574.680176 595.380066,582.497925 
	C597.377258,590.178528 603.943909,594.682312 613.605469,594.692078 
z"/>
<path fill="#000000" opacity="1.000000" stroke="none" 
	d="
M156.098938,667.887329 
	C157.464172,665.797668 159.277557,663.869812 160.102783,661.585083 
	C161.906494,656.591370 166.386261,656.564453 170.205933,656.114990 
	C173.326981,655.747742 174.140823,658.503296 173.676224,661.378723 
	C173.337448,663.475403 171.916107,665.390991 172.652771,667.887817 
	C175.114807,669.245422 176.391266,667.490784 177.936783,665.910828 
	C182.945038,660.790894 185.564041,654.240479 188.902740,648.112183 
	C189.961365,646.169006 190.618988,643.749756 193.534683,643.116150 
	C195.693130,647.847412 191.222260,650.930237 191.006836,655.178650 
	C193.710266,655.975281 197.238968,656.275513 196.258240,660.610229 
	C195.599258,663.522827 193.133743,665.724243 192.845963,669.140198 
	C196.515533,670.140747 198.766541,668.780273 200.344193,665.523865 
	C202.361465,661.359985 205.192703,657.959290 209.838242,656.490540 
	C212.070801,655.784729 214.179749,655.907654 215.905930,657.557556 
	C217.828064,659.394714 216.354889,661.216125 215.665298,663.044006 
	C214.962936,664.905762 212.760574,667.209961 215.809464,668.548767 
	C218.168900,669.584900 220.704971,668.945312 222.203476,666.241211 
	C223.332184,664.204590 224.990555,662.416321 225.861771,660.291443 
	C227.786987,655.595947 232.143127,656.372253 235.601013,656.156250 
	C238.296341,655.987854 239.088348,658.656128 238.549118,661.367676 
	C238.114639,663.552490 236.395523,665.631348 237.858398,668.172729 
	C240.817368,668.747681 240.917694,666.312500 241.460510,664.587708 
	C243.050995,659.533752 246.226669,655.879272 250.904327,653.500061 
	C252.292679,652.793884 253.762085,652.405579 255.015228,653.799988 
	C255.860703,654.740723 256.094208,655.876099 255.641754,657.058533 
	C254.910934,658.968323 253.820297,658.416748 252.129120,658.065613 
	C249.488144,657.517273 244.468079,665.405823 245.544388,667.932190 
	C245.984894,668.966125 246.906982,669.642334 247.908478,669.393555 
	C252.435577,668.269226 257.527557,668.640259 260.418732,663.511047 
	C261.891388,660.898315 262.891266,657.085999 267.744904,657.187866 
	C268.507202,662.245544 262.541382,664.489868 262.761353,669.276978 
	C267.620331,670.161560 270.702240,668.231812 273.050964,664.181824 
	C275.226196,660.431152 276.848938,656.164246 282.719879,656.236694 
	C286.911530,656.288391 288.671936,657.325256 288.014374,661.488403 
	C287.682220,663.591370 286.206512,665.453308 286.684570,667.911865 
	C289.471710,669.484070 290.485901,667.407959 291.493896,665.490295 
	C293.511261,661.652100 296.565308,658.908081 300.412231,657.044678 
	C302.679749,655.946289 305.124878,654.893738 307.519165,656.528809 
	C310.057343,658.262146 309.351898,660.964844 309.001221,663.400391 
	C308.718842,665.361450 308.133423,667.278931 307.617401,669.495178 
	C309.745087,669.669189 310.460449,666.993774 312.790771,667.512146 
	C313.791809,670.755249 311.514893,672.789246 309.362762,674.207214 
	C305.453552,676.782959 303.654449,680.504150 302.129791,684.628052 
	C300.105347,690.103821 297.825958,695.487122 294.200409,700.146423 
	C290.623901,704.742615 286.423187,706.449768 283.693970,704.540527 
	C280.929443,702.606567 280.411987,696.842590 282.745819,692.475830 
	C285.097839,688.075012 289.101593,685.295593 292.946960,682.356018 
	C296.846161,679.375366 301.415527,676.916382 302.745056,669.940430 
	C297.955078,673.362183 293.283691,671.867371 288.861420,672.721924 
	C282.593018,673.933105 280.294037,671.458984 282.161987,665.441101 
	C282.592590,664.053833 283.577515,662.787537 283.032745,660.823853 
	C279.361389,661.886963 278.280060,665.065735 276.805634,667.877014 
	C275.146179,671.041077 273.756012,672.543091 269.039307,673.163879 
	C262.069489,674.081116 255.410370,670.591553 248.352524,673.433777 
	C244.733795,674.891052 239.838959,672.574829 235.332809,672.840576 
	C232.261124,673.021729 231.398560,669.821899 232.155746,666.781555 
	C232.656631,664.770325 234.503601,663.074036 233.519714,660.262207 
	C229.735672,662.032227 228.616577,665.625244 226.913651,668.716064 
	C225.318314,671.611511 224.290405,673.160950 219.626938,672.992126 
	C214.825562,672.818420 209.789337,669.854004 204.252884,673.032959 
	C201.307617,674.724121 196.063675,673.756592 191.971802,673.506165 
	C188.734482,673.307983 187.164932,670.204041 188.690094,666.627258 
	C189.459763,664.822144 191.165421,663.454651 191.236343,660.805847 
	C186.602829,662.242615 183.198715,664.910339 181.057800,668.924561 
	C178.559601,673.608826 174.153870,673.255188 170.239410,672.847046 
	C167.092422,672.518860 166.480667,669.580139 167.298386,666.563293 
	C167.802155,664.704651 169.498596,663.184082 168.873169,660.590942 
	C165.480652,661.187805 164.677521,664.082092 163.342331,666.379150 
	C162.506592,667.817017 161.870529,669.370117 161.051804,670.818909 
	C160.233246,672.267395 159.392776,673.985596 157.292328,673.349487 
	C154.873886,672.617065 155.238220,670.684021 155.851471,668.427124 
	C155.993225,668.034851 156.098938,667.887329 156.098938,667.887329 
M288.766296,690.325012 
	C286.408112,693.638550 283.772736,696.896301 286.255615,701.379700 
	C291.982513,698.950928 297.577026,690.024231 297.838745,682.983765 
	C294.593750,684.958679 291.739838,687.137939 288.766296,690.325012 
M294.936035,667.186096 
	C299.381409,667.969116 303.781677,665.044373 304.843140,660.358398 
	C300.578430,661.084534 297.707977,663.635132 294.936035,667.186096 
M210.364090,662.221985 
	C205.829681,661.602112 204.772491,664.643433 203.488129,668.864136 
	C207.161850,667.435303 209.438766,665.853882 210.364090,662.221985 
z"/>
<path fill="#000000" opacity="1.000000" stroke="none" 
	d="
M485.828979,666.850891 
	C486.715973,664.516846 487.530823,662.540222 488.584961,659.983215 
	C482.309540,661.830200 481.291840,668.731689 476.205688,671.505737 
	C473.863007,667.412415 477.845276,664.534363 476.971527,660.757141 
	C474.802643,662.398865 473.611084,664.563416 472.655365,666.719543 
	C470.840546,670.814026 467.804596,672.657043 463.433502,673.101562 
	C458.462738,673.606995 456.263306,671.168091 457.548370,666.271301 
	C457.992767,664.577820 459.506439,663.106995 458.694183,660.818298 
	C454.773163,661.674988 454.203033,665.297119 452.489594,667.912903 
	C451.075378,670.071838 450.678894,674.742859 447.152710,672.992859 
	C443.279785,671.070740 446.599823,667.844910 447.908417,665.396057 
	C449.083038,663.197937 450.542450,661.152466 451.868378,659.034790 
	C454.307404,655.139282 458.379883,656.223389 461.675598,656.487122 
	C463.905273,656.665649 464.279419,659.472046 463.660370,661.875305 
	C463.147156,663.867737 461.543518,665.786926 462.950104,668.188782 
	C466.717224,669.134705 467.636139,666.096191 469.048859,663.771484 
	C471.252930,660.144775 472.627411,655.625549 478.041962,655.462341 
	C478.533936,655.447571 479.231476,655.032227 479.479767,655.235291 
	C483.401947,658.443909 486.579803,655.811768 490.159790,654.299194 
	C493.114319,653.050781 494.713898,654.737915 493.755035,657.918579 
	C492.759216,661.221863 491.473907,664.437866 490.216248,667.970032 
	C494.420013,669.302673 497.170013,668.308228 498.655365,664.666260 
	C499.970062,661.442810 501.900177,658.858154 505.052917,657.312073 
	C506.898804,656.406860 509.004120,655.601562 510.552521,657.479248 
	C511.994202,659.227417 511.398865,661.383423 510.131927,663.043030 
	C508.643097,664.993286 506.848480,666.710083 505.146515,668.571838 
	C511.189819,670.437134 516.244812,668.701782 519.495728,663.670166 
	C521.887085,659.968872 523.621216,655.876770 529.376892,656.055969 
	C533.270630,656.177307 534.821472,657.171448 534.343628,661.273743 
	C534.081543,663.523865 532.353577,665.548035 533.238831,667.988220 
	C536.507507,667.603577 539.954407,661.700928 538.018005,659.214294 
	C536.200928,656.881104 537.343689,655.496155 538.918091,654.858887 
	C544.234619,652.707092 545.563477,647.803589 547.724792,643.352661 
	C549.033081,640.658325 549.748840,637.261414 553.833496,636.480347 
	C554.771240,641.659058 550.582825,645.222778 550.201538,650.052551 
	C551.570679,651.559631 554.149109,649.794495 556.005066,652.272400 
	C548.905640,655.788269 541.012756,658.956543 541.694153,669.551941 
	C545.996094,668.551270 549.847595,668.101868 552.013489,663.648132 
	C553.894653,659.779724 557.210327,657.191040 561.563721,656.211548 
	C563.493225,655.777527 565.276367,656.123047 566.613342,657.584839 
	C567.939331,659.034546 567.455505,660.670593 566.652283,662.232849 
	C566.271545,662.973511 565.825256,663.696350 565.564270,664.479187 
	C565.062012,665.985596 563.862488,667.847900 566.289368,668.652527 
	C568.585449,669.413818 569.320007,667.855835 570.012390,665.835449 
	C572.341003,659.040466 576.050598,652.871155 579.299683,646.499573 
	C580.261719,644.613098 581.673218,642.912109 584.057922,642.000488 
	C586.194519,644.307007 584.991516,646.376587 583.880310,648.347473 
	C581.671875,652.264404 579.314514,656.097656 577.115051,660.019531 
	C574.870667,664.021606 572.797424,668.089966 577.021484,672.856384 
	C571.300537,671.611633 565.518372,674.710999 559.925415,670.815979 
	C556.808411,672.734253 553.435303,675.631531 549.505981,671.800110 
	C549.249817,671.550354 548.410034,671.523254 548.111633,671.749207 
	C543.445801,675.280945 538.184082,672.401062 533.250183,673.134949 
	C529.143616,673.745728 527.067566,671.056519 527.936462,666.956787 
	C528.339111,665.057312 529.914368,663.449158 529.315308,660.928101 
	C525.434875,661.794800 524.750061,665.304626 523.188538,667.943420 
	C521.320496,671.100159 520.353210,675.686096 514.968811,672.105103 
	C514.257202,671.631714 512.682922,672.234009 511.594269,672.596558 
	C509.484467,673.299194 507.154694,673.836365 505.204529,673.183411 
	C500.074677,671.465820 495.474152,671.746765 490.220184,673.504883 
	C486.296906,674.817627 485.272797,670.793213 485.828979,666.850891 
M560.154663,664.797913 
	C560.703491,663.862732 561.860474,663.080383 560.946350,661.762085 
	C555.990662,663.014648 555.169800,663.951111 555.299622,668.227600 
	C557.322449,668.057190 558.437683,666.544250 560.154663,664.797913 
z"/>
<path fill="#000000" opacity="1.000000" stroke="none" 
	d="
M850.645813,668.552612 
	C852.081665,664.090149 853.430664,659.982605 857.659546,657.735718 
	C859.624695,656.691650 861.951599,655.667236 863.627319,657.578308 
	C865.403625,659.604065 864.504089,662.031067 862.826843,663.898987 
	C861.401978,665.485779 859.748352,666.867065 858.133667,668.398376 
	C862.258545,670.245850 865.378540,669.459167 870.756042,665.363220 
	C874.822632,669.750061 878.955261,670.264587 882.132507,666.619690 
	C883.931885,664.555542 884.954407,662.203125 881.781677,660.405701 
	C877.906982,658.210632 879.300720,656.155090 882.025696,654.551331 
	C884.596375,653.038330 887.292297,651.131409 891.406738,652.809631 
	C887.440552,655.653870 888.267883,659.294678 888.207825,662.998535 
	C888.091797,670.162415 879.187317,675.954895 872.560852,673.179688 
	C869.715576,671.988220 867.326843,671.831360 864.510498,672.681335 
	C862.797241,673.198364 860.879089,673.403503 859.096069,673.249451 
	C854.719055,672.871521 850.386047,671.950439 846.085938,673.849060 
	C844.838135,674.399963 843.467102,673.704041 842.273376,673.079895 
	C841.541687,672.697388 840.516418,671.671875 840.207214,671.865967 
	C835.358887,674.909180 830.018188,672.028015 825.057800,673.244202 
	C822.279114,673.925476 819.259766,674.915955 817.312195,671.998535 
	C815.567871,669.385437 817.180298,666.899414 818.670776,664.635620 
	C820.043213,662.551086 821.389648,660.441772 822.896729,658.456665 
	C823.713440,657.380981 824.898987,656.475464 826.300110,657.609619 
	C827.504150,658.584229 826.790161,659.689636 826.244995,660.738403 
	C824.823181,663.474487 822.134338,665.539429 821.678894,668.886780 
	C823.933105,670.263245 826.258301,669.759827 827.056763,668.010315 
	C828.293396,665.300964 831.441528,662.275818 829.567688,659.477295 
	C827.615723,656.562256 828.775391,655.299133 830.818970,654.516663 
	C834.914368,652.948730 836.290039,649.539429 837.877563,646.014160 
	C839.459900,642.500488 840.527832,638.497620 845.062805,636.289856 
	C845.965881,641.838928 841.821411,645.533142 841.253174,650.163574 
	C843.093567,651.362610 845.398865,649.955322 847.744568,652.086243 
	C840.616089,655.880005 831.933228,658.543152 833.509033,669.462036 
	C837.778809,668.685547 841.218201,667.547119 843.295654,663.829102 
	C844.266357,662.091980 845.457336,660.468140 846.648193,658.867126 
	C847.563538,657.636475 848.741699,656.364624 850.359070,657.617432 
	C851.816406,658.746460 850.637634,660.023682 850.037415,661.151855 
	C848.664978,663.731506 846.208862,665.727356 845.634033,668.738281 
	C847.406616,670.290344 848.896362,669.638794 850.645813,668.552612 
z"/>
<path fill="#000000" opacity="1.000000" stroke="none" 
	d="
M402.987183,673.974854 
	C397.280853,672.115051 396.369476,670.147583 399.545837,665.701660 
	C401.782562,662.570923 402.704681,657.948914 407.972382,656.769714 
	C408.962036,662.331970 403.248962,664.601318 402.978027,669.048096 
	C405.413361,670.592163 407.183807,669.073669 408.854858,667.834839 
	C413.862244,664.122681 418.017029,659.648743 420.738434,653.952881 
	C421.358032,652.656067 421.719269,650.854736 423.664337,651.053284 
	C425.422089,651.232849 425.836700,652.895813 426.443512,654.253418 
	C427.652527,656.958435 428.017944,659.621399 426.497406,662.388184 
	C425.783966,663.686340 425.362061,665.153870 424.887634,666.571350 
	C424.504364,667.716492 424.283875,668.984192 425.708191,669.557312 
	C427.291718,670.194458 428.247894,669.390686 428.624115,667.832031 
	C429.692444,663.405518 432.617310,660.217590 435.813477,657.269958 
	C439.304260,654.050598 442.770538,655.076355 443.884888,659.595093 
	C445.625854,666.654846 437.218842,675.877136 431.148376,673.400696 
	C429.622681,672.778320 428.197021,673.070984 426.785339,673.587830 
	C424.721313,674.343689 422.802673,674.266846 421.304321,672.547058 
	C419.707458,670.714111 419.745056,668.603882 420.740631,666.474976 
	C421.649139,664.532227 422.581818,662.600830 424.117737,659.375122 
	C416.475800,664.751770 412.186188,672.713623 402.987183,673.974854 
M438.867859,661.013916 
	C434.449707,661.459290 434.959320,665.208801 433.641541,668.199158 
	C438.499359,666.904419 439.054047,666.195190 438.867859,661.013916 
z"/>
<path fill="#000000" opacity="1.000000" stroke="none" 
	d="
M632.066528,652.104736 
	C623.691895,658.959717 624.562195,671.473267 633.483765,676.813904 
	C630.079346,679.974060 626.306519,679.243896 624.325012,674.892883 
	C622.924927,671.818542 622.736389,668.486450 622.706665,665.134583 
	C622.682312,662.382202 623.033081,659.506470 620.613403,656.357056 
	C617.764771,661.418884 615.142029,666.103638 612.492737,670.773315 
	C611.622864,672.306519 610.987976,674.589111 608.585938,673.563110 
	C606.180481,672.535645 607.278992,670.439453 607.908630,668.804993 
	C612.132324,657.841675 618.446045,648.078979 625.791321,639.020752 
	C629.808105,634.067078 635.005127,632.665100 637.874084,634.900818 
	C640.919678,637.274170 640.239624,642.490906 636.073792,647.878784 
	C634.963806,649.314392 633.599670,650.553467 632.066528,652.104736 
M634.397705,642.812256 
	C634.643860,641.257996 635.503357,639.565857 633.270142,638.398315 
	C628.809082,640.182373 625.992920,643.698914 623.850952,647.885559 
	C623.317444,648.928284 622.891968,650.125244 623.842163,651.108276 
	C624.937073,652.241028 626.373169,651.926453 627.508057,651.259521 
	C630.583130,649.452454 632.748169,646.794983 634.397705,642.812256 
z"/>
<path fill="#000000" opacity="1.000000" stroke="none" 
	d="
M769.336060,661.391602 
	C767.929382,664.093323 765.100769,665.749084 765.699280,669.803101 
	C770.914185,668.484558 775.232544,666.202332 777.821350,661.772339 
	C781.261230,655.885925 784.131714,649.668274 787.305786,643.623962 
	C788.104065,642.104004 788.740112,639.597778 791.133667,640.960938 
	C793.105652,642.084045 791.610229,643.968506 790.954956,645.385742 
	C789.499573,648.533447 787.896423,651.612854 786.406616,654.613220 
	C792.503479,660.108154 793.120728,662.201416 790.262634,666.905762 
	C787.104492,672.104126 779.779541,675.297302 774.847107,672.994751 
	C772.287109,671.799683 770.445923,672.550110 768.278503,673.289978 
	C765.447083,674.256470 762.583252,674.572937 760.579163,671.808716 
	C758.701233,669.218506 760.656494,667.081116 761.938416,664.995605 
	C763.245789,662.868713 764.648865,660.796509 766.094360,658.760193 
	C766.882996,657.649231 767.986816,656.534729 769.428833,657.290161 
	C771.441223,658.344360 770.185852,659.794678 769.336060,661.391602 
M786.845520,662.660034 
	C786.461304,660.210022 785.151550,659.871094 783.573303,661.543579 
	C781.815735,663.406067 780.325012,665.534729 780.140625,668.968811 
	C783.557983,667.908752 785.875671,666.520325 786.845520,662.660034 
z"/>
<path fill="#000000" opacity="1.000000" stroke="none" 
	d="
M757.060974,661.415649 
	C755.706177,671.186096 749.098938,675.490601 739.990723,672.817749 
	C738.469604,672.371338 737.126892,672.415161 735.618164,672.710388 
	C729.185608,673.968750 726.955505,671.263855 729.117737,664.945251 
	C729.538452,663.715698 729.967529,662.489014 730.602417,660.655457 
	C727.081909,661.219360 725.949402,663.547363 724.739624,665.775879 
	C723.629578,667.820618 722.588257,669.905090 721.410706,671.909851 
	C720.679626,673.154602 719.567322,673.902039 718.066284,673.166260 
	C716.840332,672.565247 716.688171,671.384155 716.750732,670.172607 
	C716.981262,665.709717 724.654114,657.229248 729.168396,656.436646 
	C734.126160,655.566101 735.860291,657.601257 734.518311,662.564941 
	C734.027039,664.381958 732.488342,666.171265 733.985840,668.149353 
	C737.034668,669.599792 736.946472,665.338074 739.192749,665.397583 
	C744.078247,669.836975 747.823120,670.155334 750.933655,666.291443 
	C752.667664,664.137451 753.678833,661.998474 750.248840,660.265503 
	C746.786865,658.516418 747.556152,656.429504 750.258179,654.738281 
	C752.882202,653.095764 755.631714,651.495605 759.327209,652.181763 
	C759.545715,655.547974 753.632690,657.232605 757.060974,661.415649 
z"/>
<path fill="#000000" opacity="1.000000" stroke="none" 
	d="
M359.238983,667.828430 
	C360.642548,665.567749 362.461487,663.460022 363.362213,661.014160 
	C365.167938,656.110840 369.672913,656.432190 373.217377,656.133911 
	C376.721619,655.838989 376.850555,659.222534 376.393829,662.048340 
	C376.067413,664.067810 374.315552,665.990417 376.105682,668.354858 
	C379.876862,667.858337 378.939056,664.557129 379.595856,662.319580 
	C380.319489,659.854187 378.474365,655.366577 382.378815,655.510742 
	C385.685059,655.632935 383.964264,659.844727 384.335999,662.285828 
	C384.404297,662.734314 384.595917,663.164062 384.828247,663.920288 
	C389.292419,661.593933 391.167419,656.128723 395.925079,654.737793 
	C397.653564,656.432007 396.782471,657.565613 396.086792,658.697388 
	C393.635345,662.685120 390.615265,666.234253 387.504852,669.706177 
	C385.242218,672.231750 375.437683,674.280457 372.476776,672.785645 
	C369.767883,671.417969 369.404144,669.091980 370.260925,666.408020 
	C370.843719,664.582336 372.263580,662.993286 372.077698,660.655212 
	C369.424408,660.629700 368.423859,662.440796 367.439178,664.055237 
	C366.142426,666.181458 365.103027,668.462830 363.876007,670.634033 
	C363.153473,671.912537 362.525879,673.550232 360.725861,673.462402 
	C358.631805,673.360291 358.127625,671.705078 358.123291,669.337646 
	C358.616211,668.434570 358.927612,668.131531 359.238983,667.828430 
z"/>
<path fill="#000000" opacity="1.000000" stroke="none" 
	d="
M653.142395,665.429077 
	C656.460815,668.022278 659.190002,671.328430 663.835327,667.924927 
	C667.181702,665.473206 667.587463,662.736450 664.318359,660.105591 
	C661.857666,658.125244 662.247253,656.396851 664.471558,654.957947 
	C667.204468,653.190002 670.059082,651.347046 673.597168,652.287476 
	C674.557739,655.206848 671.395813,655.395935 670.659607,657.405457 
	C672.648987,662.211304 671.783997,666.902466 667.733398,670.333191 
	C663.586548,673.845398 658.700867,675.381531 653.476013,672.178467 
	C652.151733,671.366577 650.939880,671.871033 649.645020,672.162415 
	C647.707947,672.598389 645.756836,673.134216 643.790039,673.246155 
	C637.356323,673.612244 634.878418,671.958252 634.755371,667.487183 
	C634.621887,662.638000 639.506226,656.773376 643.955505,656.462097 
	C645.344177,656.364929 646.618286,656.581238 647.394531,657.949829 
	C648.348450,659.631714 647.947876,661.288635 646.907532,662.633911 
	C645.331299,664.672241 643.492554,666.507568 641.114929,669.152771 
	C646.203125,669.388611 650.172974,669.707703 653.142395,665.429077 
z"/>
<path fill="#000000" opacity="1.000000" stroke="none" 
	d="
M669.872925,683.116089 
	C672.501282,677.483215 674.828552,672.129333 677.506226,666.956787 
	C680.670288,660.844849 685.655151,656.418945 691.832764,653.544373 
	C696.511475,651.367371 698.893372,653.345642 698.256653,658.436951 
	C697.516907,664.351318 691.897888,670.506897 684.882263,671.693604 
	C680.760681,672.390686 678.794067,674.285583 677.605896,677.903320 
	C676.776672,680.428406 675.608948,682.841064 674.630859,685.319153 
	C673.906677,687.153809 672.904236,688.874207 670.651794,688.095459 
	C668.102600,687.214172 669.173096,685.200684 669.872925,683.116089 
M685.923035,666.690552 
	C689.795105,665.430176 692.049744,662.722656 693.460144,658.400391 
	C688.288391,659.013794 685.892822,662.312866 683.851074,665.833618 
	C683.206177,666.945618 684.531860,666.911682 685.923035,666.690552 
z"/>
<path fill="#000000" opacity="1.000000" stroke="none" 
	d="
M359.057983,667.526611 
	C358.927612,668.131531 358.616211,668.434570 358.092224,668.984375 
	C354.141510,672.383057 349.526917,673.203857 344.932617,673.890503 
	C339.074310,674.765991 335.433380,670.376709 337.061829,664.576721 
	C338.200775,660.520203 341.297363,657.913330 344.214111,655.198914 
	C345.906952,653.623535 347.279480,652.297974 347.271606,649.429749 
	C347.259216,644.910156 351.196503,641.412720 355.959167,640.501221 
	C360.393219,639.652588 361.998291,641.359619 361.396240,646.283508 
	C355.100311,643.681274 354.148834,643.980896 351.744629,649.321838 
	C352.104065,650.184875 352.825897,650.503906 353.684113,650.652832 
	C354.888611,650.861938 356.038971,651.240662 356.007935,652.739136 
	C355.978455,654.162659 354.766663,654.639282 353.695312,655.036987 
	C349.422211,656.623657 345.434479,658.659302 342.793884,662.532471 
	C341.660736,664.194580 339.473145,665.869019 341.230194,668.232727 
	C342.696686,670.205505 344.836792,669.424683 346.760162,668.920532 
	C349.488068,668.205505 352.195312,667.411926 354.912933,666.657471 
	C356.314575,666.268433 357.788757,665.408997 359.057983,667.526611 
z"/>
<path fill="#000000" opacity="1.000000" stroke="none" 
	d="
M155.943604,668.110840 
	C151.837051,672.563049 146.337708,673.459351 140.876984,673.970947 
	C135.939087,674.433472 132.676254,669.792419 134.077637,664.822021 
	C134.769135,662.369446 136.176559,660.257568 137.976074,658.502747 
	C141.372803,655.190430 144.696899,652.328369 145.398682,646.815247 
	C145.948242,642.498108 150.522690,640.290833 155.005402,640.346619 
	C158.624207,640.391541 159.529572,642.933472 158.710266,646.298706 
	C152.215790,643.708557 151.236786,644.029236 148.771683,649.388916 
	C148.967224,649.650513 149.123566,649.963806 149.372452,650.159241 
	C150.560791,651.092041 153.146515,650.391541 152.969437,652.830872 
	C152.819046,654.902527 150.686737,654.970093 149.229141,655.606445 
	C145.190872,657.369324 141.546860,659.617188 139.204636,663.511169 
	C138.380737,664.880859 136.848511,666.191589 138.188843,667.972778 
	C139.328079,669.486694 141.016098,669.598328 142.729599,669.154358 
	C145.786301,668.362366 148.819107,667.475708 151.884933,666.722351 
	C153.227966,666.392212 154.763809,665.303040 155.970551,667.566895 
	C156.098938,667.887329 155.993225,668.034851 155.943604,668.110840 
z"/>
<path fill="#000000" opacity="1.000000" stroke="none" 
	d="
M800.854492,669.591064 
	C803.539124,668.981506 803.962463,667.016479 804.666931,665.106689 
	C807.204346,658.228638 810.731323,651.817200 814.362549,645.476135 
	C815.232483,643.956909 816.315369,642.334167 818.736206,642.182007 
	C820.398438,644.427551 819.233521,646.490723 818.113770,648.476501 
	C815.909912,652.385071 813.543823,656.203247 811.382812,660.134644 
	C808.101624,666.103943 808.132202,666.788940 811.003418,672.332642 
	C810.738098,673.265747 809.863464,673.963745 809.183594,673.618530 
	C805.563354,671.780334 802.156860,673.279358 798.606323,673.832825 
	C794.081421,674.538147 791.617859,671.049805 793.693054,667.005249 
	C795.128235,664.208191 796.957825,661.604736 798.719849,658.987915 
	C799.561646,657.737610 800.808167,656.328552 802.398376,657.307251 
	C804.550781,658.631775 802.869080,660.241516 802.079529,661.546814 
	C800.963928,663.390991 799.513733,665.034912 798.423218,666.891663 
	C797.041748,669.243835 798.353760,669.830811 800.854492,669.591064 
z"/>
<path fill="#000000" opacity="1.000000" stroke="none" 
	d="
M700.216064,671.335327 
	C699.644897,665.695618 704.440430,657.635132 709.073181,655.632263 
	C710.669800,654.941895 711.956238,655.306396 713.163940,656.362671 
	C716.325623,659.127869 715.680420,665.347839 711.778503,669.823669 
	C708.153564,673.981812 704.078857,674.651672 700.216064,671.335327 
M709.478760,665.778076 
	C710.380188,664.074768 711.426147,662.372131 709.493347,660.353027 
	C706.585876,662.232849 705.233337,664.601746 705.487915,667.888306 
	C707.358337,668.346313 708.175232,667.260254 709.478760,665.778076 
z"/>
</svg>