<svg xmlns="http://www.w3.org/2000/svg" width="1280" height="1024" viewBox="0 0 1280 1024" version="1.1"><path d="M 875.709 141 C 873.777 182.441, 859.507 235.157, 838.487 278.500 C 820.547 315.493, 799.748 344.121, 767.857 375.715 C 749.355 394.045, 739.338 402.512, 723.638 413.095 C 698.416 430.094, 675.307 438.403, 643 442.087 C 636.677 442.808, 619.161 443.246, 598.971 443.189 L 565.441 443.093 558.780 448.082 C 545.360 458.132, 539.286 470.326, 537.072 491.666 C 536.398 498.161, 536.466 500.801, 537.328 501.636 C 539.356 503.602, 569.918 519.568, 583.843 525.937 C 640.619 551.905, 696.637 567.377, 750.967 572.094 L 764.435 573.263 778.037 559.317 C 804.249 532.444, 824.234 501.454, 837.527 467.072 C 839.350 462.357, 841.214 458.500, 841.670 458.500 C 843.383 458.500, 854.440 475.939, 860.058 487.500 C 867.295 502.395, 870 512.644, 870 525.173 C 870 530.310, 869.565 536.085, 869.032 538.007 C 867.357 544.054, 870.589 538.710, 873.207 531.104 C 876.209 522.383, 876.168 508.098, 873.110 496.500 C 870.303 485.860, 860.642 466.737, 852.142 455 L 845.263 445.500 846.645 441 C 858.304 403.032, 865.928 345.389, 865.985 294.771 C 865.998 283.680, 866.380 280.720, 868.955 271.771 C 872.832 258.299, 876.463 239.847, 878.652 222.500 C 881.781 197.700, 880.861 144.200, 877.065 130.184 C 876.608 128.499, 876.104 132.523, 875.709 141 M 651 185.940 C 629.078 190.581, 607.649 197.663, 535 224.277 C 507.225 234.452, 478.538 244.920, 471.250 247.538 L 458 252.299 458 265.181 C 458 274.646, 457.668 278.149, 456.750 278.389 C 456.063 278.568, 452.125 279.503, 448 280.466 C 420.817 286.815, 402.717 301.482, 397.361 321.500 C 396.626 324.250, 396.050 330.550, 396.082 335.500 L 396.141 344.500 397.940 335.974 C 400.183 325.347, 403.752 318.200, 410.244 311.335 C 416.513 304.707, 423.886 299.758, 433.239 295.902 C 439.586 293.284, 454.188 289, 456.762 289 C 457.291 289, 457.964 299.446, 458.325 313.250 C 459.699 365.820, 467.056 412.117, 480.294 451.500 L 483.656 461.500 491.078 467.305 C 499.180 473.641, 534.109 497.224, 534.626 496.707 C 534.802 496.531, 534.547 492.823, 534.058 488.467 C 530.672 458.275, 544.242 428.882, 579.755 389.487 C 622.456 342.117, 699.425 284.821, 771.500 246.751 C 786.533 238.810, 785.063 238.920, 765.641 247.190 C 695.321 277.132, 625.949 321.801, 580.943 366.120 C 563.942 382.860, 554.468 394.689, 541.309 415.607 C 540.280 417.241, 540.110 416.885, 540.062 413 C 539.850 395.757, 544.806 367.355, 551.567 347.066 C 565.454 305.393, 589.983 273.322, 626 249.744 C 664.003 224.867, 743.046 197.071, 798.493 189.087 C 815.080 186.699, 810.893 186.026, 779.500 186.034 C 753.391 186.041, 733.809 187.382, 714.269 190.499 C 704.397 192.075, 703.783 192.062, 696.744 190.131 C 684.797 186.853, 669.518 183.995, 664.343 184.070 C 661.679 184.109, 655.675 184.950, 651 185.940 M 837.301 210.456 C 825.417 245.708, 808.192 283.638, 793.039 307.924 C 783.752 322.808, 768.313 343.210, 757.839 354.440 C 740.678 372.838, 715.808 391.749, 694.125 402.887 C 669.694 415.437, 637.895 425.331, 611.704 428.533 C 608.517 428.923, 606.117 429.450, 606.371 429.704 C 607.151 430.485, 643.428 426.079, 657.872 423.450 C 677.183 419.935, 687.813 416.717, 700.988 410.399 C 741.048 391.187, 779.518 351.919, 809.361 299.779 C 819.936 281.305, 829.579 256.435, 835.944 231.223 C 838.858 219.681, 843.351 196.017, 842.743 195.410 C 842.591 195.258, 840.142 202.029, 837.301 210.456 M 399.406 285.984 C 389.291 294.267, 381.943 304.659, 377.607 316.812 C 359.257 368.244, 404.625 442.077, 492.957 504.535 C 503.253 511.815, 508.558 516.259, 510.505 519.235 C 516.621 528.582, 527.029 541.020, 539.447 553.822 C 568.811 584.094, 600.808 605.731, 645.360 625.442 L 660.219 632.016 669.860 627.924 C 684.137 621.864, 704.225 611.865, 715 605.455 L 724.500 599.805 739.500 601.622 C 760.007 604.106, 796.876 604.127, 813 601.665 C 861.591 594.242, 891.770 574.794, 902.741 543.835 C 907.366 530.780, 907.101 509.089, 902.110 492.350 L 900.366 486.500 900.805 498.152 C 901.516 517.015, 897.312 530.594, 886.544 544.215 C 873.800 560.335, 847.384 573.630, 818.500 578.460 C 797.350 581.998, 777.674 582.764, 754 580.974 C 693.839 576.426, 628.728 557.187, 566 525.424 C 514.322 499.257, 474.797 471.094, 441 436.358 C 414.847 409.477, 399.090 385.554, 390.564 359.782 C 381.133 331.271, 384.538 307.407, 400.914 287.250 C 403.707 283.813, 405.879 281, 405.742 281 C 405.604 281, 402.753 283.243, 399.406 285.984 M 552.580 481.947 C 551.711 485.768, 551 489.733, 551 490.758 C 551 492.160, 555.155 494.758, 567.750 501.231 C 610.432 523.169, 652.776 538.717, 695.076 547.982 C 708.728 550.972, 734.958 555.375, 735.556 554.777 C 735.974 554.359, 556.651 475, 555.289 475 C 554.668 475, 553.449 478.126, 552.580 481.947 M 359.251 684.545 C 347.565 687.692, 338.013 695.468, 333.188 705.764 C 330.805 710.848, 330.500 712.693, 330.500 722 C 330.500 732.055, 330.645 732.767, 333.917 738.803 C 340.958 751.788, 352.316 758.855, 367.591 759.757 C 380.109 760.495, 390.750 756.738, 400.125 748.268 L 404 744.767 404 730.384 L 404 716 385 716 L 366 716 366 723 L 366 730 377 730 L 388 730 388 734.046 C 388 737.950, 387.816 738.178, 382.750 740.536 C 373.304 744.934, 361.363 743.516, 354.624 737.197 C 348.602 731.550, 346.176 720.294, 349.347 712.718 C 351.178 708.345, 358.024 702.365, 362.679 701.072 C 370.767 698.826, 380.858 700.639, 385.727 705.213 L 388.011 707.359 395.495 703.429 C 399.611 701.268, 402.983 699.220, 402.989 698.877 C 402.995 698.535, 401.016 696.426, 398.590 694.190 C 388.097 684.518, 373.051 680.829, 359.251 684.545 M 752.230 684.486 C 730.519 690.597, 718.507 711.273, 724.588 732.068 C 727.859 743.254, 734.731 751.080, 745.953 756.397 C 752.044 759.284, 753.268 759.500, 763.521 759.500 C 773.951 759.500, 774.899 759.324, 781.193 756.226 C 785.576 754.068, 789.575 751.057, 792.922 747.395 C 795.715 744.339, 797.995 741.538, 797.989 741.169 C 797.983 740.801, 794.720 738.623, 790.739 736.329 L 783.500 732.157 780.260 735.623 C 773.194 743.182, 762.526 745.059, 753.159 740.392 C 739.724 733.697, 737.228 715.497, 748.341 705.253 C 757.737 696.593, 773.173 697.777, 781.026 707.760 L 783.138 710.446 788.425 707.586 C 791.333 706.013, 794.748 703.945, 796.014 702.990 L 798.316 701.253 796.080 698.113 C 792.842 693.565, 785.653 688.392, 779.153 685.931 C 771.801 683.148, 759.357 682.480, 752.230 684.486 M 903.746 684.022 C 888.681 687.828, 877.765 699.858, 874.771 715.954 C 871.833 731.756, 880.734 748.806, 895.794 756.219 C 901.984 759.267, 903.172 759.500, 912.500 759.500 C 921.803 759.500, 923.027 759.261, 929.126 756.259 C 946.572 747.670, 955.081 727.937, 949.038 710.083 C 945.121 698.508, 939.252 691.912, 928.294 686.767 C 921.415 683.537, 910.499 682.316, 903.746 684.022 M 418 721.500 L 418 759 427 759 L 436 759 436 749.500 L 436 740 442.250 740.009 L 448.500 740.018 454.292 749.509 L 460.083 759 471.042 759 C 477.069 759, 482 758.828, 482 758.617 C 482 758.406, 478.707 753.389, 474.683 747.469 L 467.366 736.704 471.570 732.829 C 477.967 726.932, 480.329 720.484, 479.797 710.360 C 479.433 703.424, 478.899 701.371, 476.411 697.347 C 472.538 691.082, 466.335 686.452, 459.994 685.092 C 457.193 684.491, 446.599 684, 436.451 684 L 418 684 418 721.500 M 495 721.500 L 495 759 523.500 759 L 552 759 552 750.500 L 552 742 532.452 742 L 512.905 742 513.202 735.750 L 513.500 729.500 529.750 729.225 L 546 728.950 546 721.475 L 546 714 529.500 714 L 513 714 513 707.500 L 513 701 532.500 701 L 552 701 552 692.500 L 552 684 523.500 684 L 495 684 495 721.500 M 567 721.500 L 567 759 595.500 759 L 624 759 624 750.500 L 624 742 604.500 742 L 585 742 585 735.500 L 585 729 601 729 L 617 729 617 721.500 L 617 714 601 714 L 585 714 585 707.500 L 585 701 604.500 701 L 624 701 624 692.500 L 624 684 595.500 684 L 567 684 567 721.500 M 637 721.500 L 637 759 645.981 759 L 654.962 759 655.231 736.367 L 655.500 713.734 674.292 736.367 L 693.083 759 702.042 759 L 711 759 711 721.500 L 711 684 702.019 684 L 693.038 684 692.769 706.593 L 692.500 729.187 673.764 706.593 L 655.027 684 646.014 684 L 637 684 637 721.500 M 810 721.500 L 810 759 838.500 759 L 867 759 867 750.500 L 867 742 847.452 742 L 827.905 742 828.202 735.750 L 828.500 729.500 844.750 729.225 L 861 728.950 861 721.475 L 861 714 844.500 714 L 828 714 828 707.500 L 828 701 847.500 701 L 867 701 867 692.500 L 867 684 838.500 684 L 810 684 810 721.500 M 904.500 701.389 C 896.142 705.040, 891.060 712.733, 891.022 721.790 C 890.995 728.403, 893.526 733.582, 899.128 738.378 C 903.850 742.420, 907.641 743.443, 915.482 742.793 C 921.833 742.266, 926.780 739.293, 930.741 733.622 C 934.455 728.304, 935.151 718.162, 932.195 712.413 C 926.898 702.110, 914.315 697.101, 904.500 701.389 M 436 712.500 L 436 724 444.032 724 C 453.585 724, 458.263 722.325, 460.434 718.128 C 462.407 714.311, 462.423 710.719, 460.483 706.967 C 458.141 702.439, 454.300 701, 444.550 701 L 436 701 436 712.500 M 787.502 793.575 C 782.795 796.030, 781.257 797.773, 773.449 809.500 C 762.071 826.591, 756.329 839.961, 760.032 840.740 C 761.084 840.962, 763.260 837.896, 766.965 830.973 C 769.935 825.423, 772.928 820.122, 773.615 819.191 C 775.981 815.991, 777.338 819.442, 778.040 830.439 C 778.919 844.209, 781.614 848.318, 788.613 846.561 C 791.692 845.788, 790.980 844.446, 787.078 843.666 C 783.502 842.950, 782.318 839.591, 781.368 827.468 L 780.739 819.437 784.119 816.856 C 788.902 813.205, 793.949 807.930, 795.466 805 C 800.459 795.350, 796.098 789.093, 787.502 793.575 M 686.832 798.727 C 685.549 800.776, 683.339 805.164, 681.919 808.477 C 680.063 812.810, 678.520 814.888, 676.419 815.883 C 670.408 818.730, 667.788 822.656, 672.500 821.755 C 673.875 821.492, 675 821.455, 675 821.672 C 675 821.889, 673.875 824.287, 672.500 827 C 671.125 829.713, 670 832.593, 670 833.399 C 670 835.269, 666.139 836.539, 664.732 835.132 C 663.976 834.376, 664.059 832.423, 665.016 828.435 C 666.517 822.174, 665.603 819.224, 662.362 819.873 C 661.338 820.078, 659.105 820.272, 657.400 820.304 C 654.663 820.356, 653.767 821.206, 649.756 827.560 L 645.211 834.758 638.528 835.922 C 632.174 837.028, 628 836.720, 628 835.144 C 628 834.748, 630.050 832.710, 632.556 830.615 C 636.439 827.370, 637.067 826.340, 636.806 823.653 C 636.584 821.368, 635.938 820.420, 634.460 820.208 C 631.222 819.744, 625.692 824.118, 623.347 828.998 C 621.165 833.536, 617.787 835.864, 613.250 835.955 C 610.259 836.015, 610.323 833.627, 613.521 825.756 C 617.364 816.298, 615.509 814.669, 606.915 819.958 C 602.337 822.774, 602.078 822.822, 601.487 820.958 C 600.737 818.596, 599.961 818.424, 594.523 819.410 C 591.441 819.969, 590.343 821.188, 585.889 829 C 584.165 832.025, 582.696 834.560, 582.627 834.633 C 582.557 834.706, 580.973 835.094, 579.107 835.494 L 575.715 836.222 576.350 831.861 C 576.699 829.462, 577.258 826.078, 577.593 824.339 C 578.083 821.790, 577.796 820.961, 576.111 820.059 C 574.476 819.184, 573.494 819.286, 571.603 820.525 C 569.999 821.575, 568.966 821.754, 568.534 821.054 C 567.274 819.016, 566.154 820.072, 561.049 828.114 C 555.740 836.476, 555.066 839.500, 558.514 839.500 C 559.921 839.500, 561.428 837.751, 563.683 833.506 C 567.344 826.612, 571.691 822.291, 573.323 823.923 C 574.066 824.666, 573.877 826.035, 572.690 828.524 C 569.047 836.163, 571.191 840.802, 577.739 839.450 C 579.808 839.023, 582.175 838.756, 583 838.857 C 583.905 838.967, 586.407 835.856, 589.305 831.020 C 591.948 826.609, 594.760 823, 595.555 823 C 597.429 823, 597.387 823.562, 594.989 830.532 C 592.402 838.052, 593.777 839.638, 597.805 833.783 C 602.356 827.169, 611 819.813, 611 822.555 C 611 822.860, 610.089 825.110, 608.975 827.555 C 605.688 834.771, 605.457 837.506, 607.987 839.279 C 610.364 840.943, 613.185 840.507, 618.791 837.608 C 621.812 836.046, 622.064 836.064, 623.983 837.983 C 626.439 840.439, 633.733 840.711, 639.795 838.572 C 643.301 837.335, 643.915 837.335, 644.389 838.572 C 644.691 839.358, 645.775 840, 646.798 840 C 648.086 840, 649.664 838, 651.927 833.496 C 654.901 827.578, 658.917 823, 661.135 823 C 662.473 823, 662.091 827.217, 660.500 830 C 656.766 836.531, 660.592 841.725, 667.279 839.201 C 669.353 838.418, 670.753 838.353, 671.408 839.008 C 673.063 840.663, 679.301 840.114, 682.750 838.011 C 688.061 834.773, 686.411 832.407, 681 835.500 C 676.673 837.974, 675 837.434, 675 833.565 C 675 825.886, 680.238 819.078, 688.174 816.442 C 694.378 814.382, 694.574 812.512, 688.500 813.345 C 686.025 813.684, 684 813.825, 684 813.657 C 684 813.489, 685.575 809.718, 687.500 805.276 C 689.425 800.834, 691 796.704, 691 796.100 C 691 793.896, 689.108 795.088, 686.832 798.727 M 789.354 795.993 C 784.090 798.117, 775.130 810.291, 776.399 813.597 C 777.107 815.442, 780.369 815.378, 784.107 813.445 C 788.315 811.268, 793 803.556, 793 798.804 C 793 794.790, 792.771 794.614, 789.354 795.993 M 1052.284 797.198 C 1051.087 798.472, 1048.529 802.979, 1046.599 807.214 C 1043.649 813.686, 1042.465 815.233, 1039.168 816.914 C 1034.349 819.373, 1032.963 822, 1036.485 822 L 1038.908 822 1036.464 827.250 C 1035.119 830.138, 1034.015 833.235, 1034.010 834.133 C 1033.999 835.876, 1031.231 836.964, 1026.750 836.986 C 1023.005 837.005, 1023.253 835.369, 1028 828.740 C 1032.361 822.649, 1032.948 820.678, 1030.250 821.177 C 1027.671 821.653, 1019.871 833.954, 1020.216 837 C 1020.470 839.233, 1021.017 839.533, 1025.337 839.808 C 1028.367 840.002, 1031.005 839.571, 1032.403 838.656 C 1034.375 837.364, 1034.747 837.375, 1035.617 838.755 C 1036.963 840.889, 1042.333 840.591, 1046.463 838.154 C 1049.747 836.217, 1049.823 836.216, 1050.313 838.089 C 1050.719 839.643, 1051.730 840, 1055.715 840 C 1058.412 840, 1061.479 839.370, 1062.532 838.600 C 1064.174 837.400, 1064.733 837.400, 1066.446 838.600 C 1068.865 840.294, 1076.041 840.298, 1081.500 838.608 C 1084.816 837.581, 1085.886 837.615, 1087.754 838.803 C 1090.668 840.655, 1097.039 840.548, 1100.838 838.584 C 1107.373 835.204, 1110.680 827.213, 1107.532 822.409 C 1106.602 820.989, 1105.989 819.729, 1106.170 819.611 C 1106.352 819.492, 1107.737 818.621, 1109.250 817.674 C 1115.513 813.756, 1110.462 813.301, 1102.873 817.099 C 1097.743 819.668, 1097.415 821.457, 1101.622 823.940 C 1104.502 825.639, 1105.009 826.413, 1104.451 828.255 C 1102.160 835.810, 1089 839.822, 1089 832.965 C 1089 830.420, 1085.975 830.379, 1085.312 832.915 C 1084.787 834.924, 1083.464 835.429, 1075.868 836.524 C 1069.176 837.489, 1068.761 835.719, 1074.455 830.491 C 1078.268 826.990, 1079.089 825.647, 1078.825 823.340 C 1078.535 820.802, 1078.139 820.517, 1075.103 820.663 C 1070.309 820.894, 1065.036 826.311, 1064.306 831.755 C 1063.726 836.077, 1062.441 836.958, 1056.683 836.986 C 1054.220 836.998, 1053.953 836.717, 1054.559 834.750 C 1054.941 833.513, 1056.771 830.415, 1058.627 827.866 C 1062.310 822.807, 1062.804 821, 1060.506 821 C 1059.685 821, 1057.127 823.841, 1054.821 827.313 C 1050.698 833.525, 1048.843 834.805, 1041.250 836.678 C 1039.250 837.172, 1039.002 836.860, 1039.022 833.867 C 1039.048 829.821, 1041.937 823.194, 1044.772 820.674 C 1045.902 819.669, 1049.445 817.783, 1052.646 816.482 C 1056.960 814.729, 1058.016 813.943, 1056.726 813.448 C 1055.768 813.081, 1053.398 813.078, 1051.457 813.442 L 1047.930 814.104 1049.319 810.802 C 1050.084 808.986, 1051.720 805.161, 1052.955 802.302 C 1055.621 796.133, 1055.334 793.951, 1052.284 797.198 M 186.304 801.956 C 182.066 804.540, 179.768 808.229, 180.147 811.840 C 180.406 814.304, 179.597 815.557, 175.186 819.522 C 169.099 824.995, 167 828.527, 167 833.295 C 167 839.933, 173.076 842.040, 183.734 839.100 C 188.031 837.914, 193.995 833.667, 192.902 832.571 C 192.573 832.241, 189.327 832.891, 185.688 834.015 C 178.698 836.174, 173.080 836.785, 171.157 835.597 C 166.867 832.945, 175.550 821.425, 184.295 818.167 C 190.470 815.867, 191.717 813.293, 186.887 812.818 C 182.399 812.377, 182.234 810.566, 186.313 806.487 C 190.233 802.567, 193.904 801.917, 194.710 805 C 195.425 807.734, 197 807.528, 197 804.700 C 197 799.811, 191.948 798.515, 186.304 801.956 M 440.164 801.665 C 435.983 803.756, 433.741 807.110, 433.605 811.475 C 433.521 814.199, 432.411 815.922, 427.924 820.302 C 421.248 826.819, 419.348 830.732, 420.651 835.283 C 421.982 839.933, 425.545 841.370, 432.539 840.077 C 439.367 838.815, 444.743 836.349, 446.070 833.870 C 447.278 831.613, 446.528 831.550, 441.131 833.454 C 438.865 834.253, 434.706 835.326, 431.890 835.838 C 427.445 836.646, 426.520 836.520, 424.884 834.884 C 422.328 832.328, 422.428 831.904, 426.904 826.241 C 429.879 822.477, 432.379 820.618, 437.412 818.425 C 444.263 815.440, 445.306 813.731, 440.614 813.178 C 439.111 813.001, 437.634 812.210, 437.331 811.420 C 436.508 809.276, 439.420 805.483, 443.040 803.983 C 446.014 802.752, 446.361 802.827, 448.049 805.065 C 450.296 808.044, 451.524 807.078, 450.277 803.313 C 449.131 799.850, 445.104 799.194, 440.164 801.665 M 978 814.696 C 969.430 831.451, 967.159 834.845, 965.861 832.834 C 965.156 831.742, 964.822 831.772, 964.016 833 C 963.475 833.825, 962.903 834.867, 962.745 835.315 C 962.586 835.762, 960.554 836.384, 958.228 836.696 C 954.489 837.198, 954 837.034, 954 835.282 C 954 834.192, 955.281 831.531, 956.848 829.369 C 958.414 827.207, 960.230 824.440, 960.883 823.219 C 961.920 821.281, 961.824 821, 960.127 821 C 958.809 821, 956.705 823.311, 953.592 828.177 C 951.066 832.124, 949 835.894, 949 836.555 C 949 840.119, 957.076 841.491, 961.397 838.660 C 963.220 837.465, 963.834 837.478, 965.754 838.752 C 968.400 840.510, 974.954 840.610, 978.197 838.943 C 982.168 836.903, 986.882 831.814, 987.528 828.871 C 988.464 824.611, 987.179 821.973, 983.400 820.394 L 979.993 818.970 983.996 811.007 C 988.174 802.698, 988.853 799.989, 986.750 800.016 C 986.063 800.025, 982.125 806.631, 978 814.696 M 338.796 801.537 C 337.752 802.581, 339.200 806, 340.686 806 C 341.609 806, 342.022 805.207, 341.820 803.828 C 341.501 801.661, 339.892 800.442, 338.796 801.537 M 514 801.918 C 514 803.970, 515.297 806, 516.607 806 C 518.525 806, 518.369 802.356, 516.418 801.607 C 514.308 800.797, 514 800.837, 514 801.918 M 967.166 803.060 C 967.350 804.316, 968.100 805.541, 968.834 805.783 C 969.741 806.082, 970.061 805.491, 969.834 803.940 C 969.650 802.684, 968.900 801.459, 968.166 801.217 C 967.259 800.918, 966.939 801.509, 967.166 803.060 M 1008.166 803.060 C 1008.350 804.316, 1009.100 805.541, 1009.834 805.783 C 1010.741 806.082, 1011.061 805.491, 1010.834 803.940 C 1010.650 802.684, 1009.900 801.459, 1009.166 801.217 C 1008.259 800.918, 1007.939 801.509, 1008.166 803.060 M 1037 801.845 C 1037 804, 1038.288 806, 1039.677 806 C 1041.778 806, 1040.931 801.603, 1038.750 801.187 C 1037.787 801.003, 1037 801.300, 1037 801.845 M 1067.796 801.537 C 1066.752 802.581, 1068.200 806, 1069.686 806 C 1070.609 806, 1071.022 805.207, 1070.820 803.828 C 1070.501 801.661, 1068.892 800.442, 1067.796 801.537 M 725.789 804.750 C 722.484 808.267, 712.846 827.409, 712.069 832 C 711.528 835.194, 711.150 835.527, 707.738 835.810 C 704.299 836.096, 704 835.912, 704 833.521 C 704 832.090, 704.927 829.104, 706.059 826.884 C 708.616 821.873, 707.478 820, 701.880 820 C 698.824 820, 697.150 820.774, 693.950 823.664 C 687.289 829.682, 684.889 835.889, 688.016 839.016 C 689.596 840.596, 690.428 840.747, 692.864 839.897 C 694.482 839.333, 696.570 838.028, 697.503 836.997 C 699.153 835.173, 699.263 835.194, 701.469 837.758 C 703.648 840.292, 703.904 840.345, 707.991 839.121 C 711.031 838.210, 712.554 838.154, 713.323 838.923 C 713.915 839.515, 715.738 840, 717.374 840 L 720.349 840 718.174 837.686 C 714.350 833.615, 715.182 830.466, 724.057 815.431 C 729.598 806.043, 731.142 802, 729.187 802 C 728.740 802, 727.211 803.237, 725.789 804.750 M 1018.789 804.750 C 1015.375 808.381, 1005 829.267, 1005 832.508 C 1005 835.237, 1002.030 837, 997.435 837 C 993.863 837, 994.325 834.269, 999 827.740 C 1003.580 821.344, 1003.687 821, 1001.092 821 C 999.818 821, 997.657 823.386, 994.592 828.177 C 992.066 832.124, 990 835.894, 990 836.555 C 990 840.183, 998.094 841.479, 1002.545 838.562 C 1004.537 837.257, 1004.966 837.254, 1006.031 838.537 C 1007.338 840.112, 1012 840.570, 1012 839.122 C 1012 838.640, 1011.325 837.685, 1010.500 837 C 1007.275 834.323, 1009.172 828.167, 1017.393 814.623 C 1024.064 803.634, 1024.812 798.344, 1018.789 804.750 M 235.831 809.250 C 233.860 812.688, 230.818 818.200, 229.071 821.500 C 224.636 829.881, 219.873 835.048, 216.353 835.298 C 213.782 835.480, 213.512 835.203, 213.617 832.500 C 213.681 830.850, 214.210 828.046, 214.792 826.268 C 215.661 823.612, 215.540 822.653, 214.108 820.885 C 212.638 819.070, 212.028 818.915, 210.204 819.891 C 209.014 820.528, 207.019 820.799, 205.771 820.495 C 204.027 820.070, 203.125 820.586, 201.884 822.720 C 200.996 824.249, 198.662 828.126, 196.698 831.335 C 193.014 837.356, 192.830 840, 196.094 840 C 197.418 840, 199.007 837.950, 201.463 833.074 C 204.570 826.905, 207.965 823, 210.223 823 C 211.484 823, 211.116 826.478, 209.427 830.520 C 206.574 837.349, 209.401 841.011, 216.272 839.386 C 218.048 838.966, 220.043 838.723, 220.707 838.845 C 221.371 838.968, 222.578 837.783, 223.390 836.213 C 226.451 830.294, 236.751 822.418, 238.779 824.446 C 239.172 824.839, 238.234 827.417, 236.694 830.175 C 234.064 834.887, 233.990 835.335, 235.470 837.595 C 236.337 838.918, 237.598 840.050, 238.273 840.111 C 240.896 840.347, 244.583 839.752, 246.357 838.806 C 247.620 838.132, 248.565 838.165, 249.307 838.907 C 251.178 840.778, 255.401 840.111, 258.217 837.500 C 261.326 834.617, 262 834.432, 262 836.465 C 262 839.178, 265.871 840.355, 270.363 839.010 C 273.289 838.133, 274.534 838.101, 274.798 838.895 C 275.001 839.503, 276.023 840, 277.069 840 C 278.395 840, 279.907 838.146, 282.061 833.879 C 288.304 821.511, 295.422 818.874, 290.451 830.771 C 287.561 837.689, 291.094 841.557, 298.081 839.122 C 300.358 838.328, 301.770 838.342, 303.323 839.173 C 306.181 840.702, 311.848 840.379, 316.540 838.419 C 320.119 836.923, 320.476 836.931, 321.641 838.524 C 323.082 840.494, 329.660 840.788, 332.947 839.028 C 336.548 837.101, 335.192 836.071, 329.884 836.700 C 324.840 837.298, 324.778 837.272, 325.511 834.903 C 325.919 833.581, 327.771 830.415, 329.627 827.866 C 333.310 822.807, 333.804 821, 331.506 821 C 330.685 821, 328.125 823.843, 325.818 827.318 C 321.657 833.586, 321.567 833.650, 314.673 835.234 C 310.850 836.112, 307.110 836.596, 306.361 836.308 C 304.477 835.585, 304.653 829.964, 306.653 826.973 C 308.987 823.483, 313.223 819, 314.187 819 C 314.634 819, 315 819.712, 315 820.583 C 315 821.454, 315.563 821.979, 316.250 821.750 C 316.938 821.521, 317.500 820.246, 317.500 818.917 C 317.500 817.081, 316.899 816.432, 315 816.217 C 309.979 815.648, 301 825.996, 301 832.352 C 301 834.147, 300.308 834.957, 298.355 835.447 C 294.218 836.485, 293.481 834.843, 295.269 828.561 C 296.734 823.409, 296.723 822.879, 295.104 820.881 C 293.620 819.048, 293.041 818.908, 291.145 819.922 C 289.924 820.576, 288.044 820.831, 286.968 820.490 C 285.362 819.980, 284.078 821.313, 279.798 827.934 C 274.645 835.907, 274.537 836, 270.400 836 C 265.128 836, 264.223 834.103, 266.975 828.823 C 269.408 824.156, 269.555 821.427, 267.418 820.607 C 261.569 818.362, 254.373 822.406, 250.837 829.923 C 248.436 835.028, 245.496 837, 240.283 837 C 238.236 837, 237.972 836.655, 238.560 834.750 C 238.943 833.513, 240.323 830.660, 241.628 828.412 C 242.932 826.164, 244 823.592, 244 822.697 C 244 820.501, 240.362 818.692, 237.426 819.429 C 235.231 819.980, 235.115 819.829, 235.982 817.548 C 236.500 816.184, 237.842 813.271, 238.962 811.074 C 241.030 807.020, 241.650 803, 240.208 803 C 239.772 803, 237.803 805.813, 235.831 809.250 M 524.820 817.662 C 520.230 826.887, 509.090 837, 503.520 837 C 500.030 837, 500.329 835.257, 504.998 828.385 C 509.494 821.765, 509.731 820.991, 507.250 821.021 C 505.021 821.047, 497 833.107, 497 836.431 C 497 839.553, 498.349 840.353, 503.288 840.160 C 508.550 839.954, 512.097 837.614, 520.879 828.557 C 524.909 824.401, 528.385 821, 528.603 821 C 529.795 821, 528.678 826.118, 526.587 830.240 C 525.245 832.885, 524.418 835.882, 524.716 837.021 C 525.340 839.407, 528.547 841.398, 530.160 840.401 C 530.775 840.021, 534.126 839.758, 537.607 839.818 C 543.040 839.910, 544.369 839.560, 547.004 837.344 C 553.041 832.263, 554.956 823.956, 551 820 C 548.421 817.421, 548.027 817.466, 544.452 820.750 C 539.711 825.105, 535.798 830.749, 535.084 834.264 C 534.360 837.823, 531.193 839.142, 529.183 836.720 C 527.978 835.268, 528.519 832.517, 531.290 826 C 532.612 822.889, 532.607 821.972, 531.243 817.750 C 530.399 815.138, 529.131 813, 528.424 813 C 527.718 813, 526.096 815.098, 524.820 817.662 M 835.759 815.423 C 831.279 817.022, 827 819.709, 827 820.924 C 827 821.407, 828.605 822.749, 830.566 823.906 C 833.498 825.636, 834.011 826.409, 833.451 828.255 C 832.401 831.717, 828.998 834.907, 825.250 835.942 C 821.045 837.103, 819.110 836.420, 817.948 833.364 C 816.864 830.512, 815 830.282, 814.312 832.915 C 813.787 834.924, 812.464 835.429, 804.868 836.524 C 798.172 837.489, 797.768 835.735, 803.434 830.305 C 807.077 826.815, 808.047 825.230, 807.808 823.160 C 807.567 821.080, 806.887 820.430, 804.691 820.178 C 802.476 819.924, 800.941 820.796, 797.441 824.296 C 793.639 828.097, 793 829.324, 793 832.812 C 793 835.889, 793.544 837.268, 795.223 838.443 C 797.954 840.357, 805.144 840.396, 810.391 838.525 C 813.790 837.314, 814.581 837.335, 816.645 838.687 C 819.632 840.644, 825.954 840.593, 829.848 838.579 C 835.970 835.413, 839.174 827.705, 836.489 822.601 C 835.650 821.007, 835.085 819.633, 835.232 819.549 C 838.783 817.509, 841 815.752, 841 814.977 C 841 813.732, 840.339 813.788, 835.759 815.423 M 943.037 815.174 C 939.180 816.280, 934 819.645, 934 821.042 C 934 821.541, 935.350 822.647, 937 823.500 C 939.250 824.663, 940 825.752, 940 827.851 C 940 835.007, 926.030 839.952, 924.381 833.381 C 923.673 830.562, 921 830.169, 921 832.883 C 921 834.484, 918.607 835.928, 915.857 835.986 C 914.317 836.019, 914.191 832.710, 915.583 828.768 C 918.109 821.614, 915.476 817.332, 910.540 820.566 C 908.973 821.592, 907.967 821.756, 907.534 821.054 C 906.275 819.019, 905.148 820.069, 900.032 828.045 C 894.733 836.306, 894.031 839.500, 897.514 839.500 C 898.921 839.500, 900.428 837.751, 902.683 833.506 C 906.344 826.612, 910.691 822.291, 912.323 823.923 C 913.066 824.666, 912.877 826.035, 911.690 828.524 C 907.522 837.264, 911.476 842.609, 919.148 838.606 C 921.437 837.412, 922.002 837.430, 923.312 838.741 C 925.546 840.974, 933.401 840.533, 937.600 837.938 C 939.496 836.766, 941.713 834.523, 942.524 832.953 C 944.202 829.710, 944.504 822.430, 943 821.500 C 941.362 820.488, 941.845 819.595, 945.006 817.797 C 946.653 816.860, 948 815.622, 948 815.047 C 948 813.833, 947.681 813.842, 943.037 815.174 M 863.358 816.445 C 861.630 817.197, 857.269 820.667, 853.667 824.156 C 847.825 829.814, 846.456 831.948, 841.003 843.894 C 834.970 857.107, 834.551 859.632, 838.517 858.844 C 839.669 858.615, 841.598 855.073, 844.288 848.250 L 848.330 838 852.552 838 C 861.054 838, 870.946 828.264, 870.984 819.857 C 871.006 814.928, 868.955 814.010, 863.358 816.445 M 474.582 820.250 C 474.332 821.487, 473.859 825.177, 473.531 828.449 C 473.204 831.721, 472.837 834.497, 472.716 834.617 C 472.595 834.738, 471.193 835.164, 469.602 835.564 L 466.707 836.290 467.346 831.895 C 467.697 829.478, 468.258 826.078, 468.593 824.339 C 469.083 821.790, 468.796 820.961, 467.111 820.059 C 465.476 819.184, 464.494 819.286, 462.603 820.525 C 460.999 821.575, 459.966 821.754, 459.534 821.054 C 458.274 819.016, 457.154 820.072, 452.049 828.114 C 446.740 836.476, 446.066 839.500, 449.514 839.500 C 450.921 839.500, 452.428 837.751, 454.683 833.506 C 458.274 826.743, 462.696 822.296, 464.268 823.868 C 464.937 824.537, 464.726 826.227, 463.635 828.955 C 460.231 837.461, 462.269 841.147, 469.327 839.251 C 471.837 838.577, 473.633 838.503, 473.833 839.065 C 474.572 841.138, 478.219 839.781, 481.958 836.042 C 486.149 831.851, 495 820.150, 495 818.800 C 495 816.616, 491.862 818.672, 485.154 825.250 L 477.761 832.500 478.380 826.830 C 478.720 823.712, 478.726 820.449, 478.392 819.580 C 477.496 817.243, 475.106 817.663, 474.582 820.250 M 883.204 820.827 C 878.558 824.917, 874 831.982, 874 835.093 C 874 841.670, 881.791 841.958, 887.690 835.600 C 895.490 827.191, 891.374 813.634, 883.204 820.827 M 353 820.014 C 352.175 820.555, 350.375 820.764, 349 820.481 C 346.766 820.020, 345.940 820.860, 341.239 828.372 C 335.963 836.802, 335.343 840, 338.983 840 C 340.156 840, 341.987 837.650, 344.415 833.029 C 347.697 826.785, 351.020 823, 353.223 823 C 354.527 823, 354.092 826.740, 352.365 830.361 C 349.270 836.851, 353.373 841.974, 359.449 839.205 C 360.714 838.629, 363.528 838.395, 365.702 838.687 C 368.561 839.070, 370.809 838.628, 373.827 837.088 L 378 834.959 378 837.332 C 378 840.672, 374.255 845.836, 368.989 849.760 C 355.481 859.822, 351 865.422, 351 872.238 C 351 876.561, 353.461 880, 356.554 880 C 362.270 880, 369.955 869.354, 376.951 851.744 C 378.610 847.567, 380.563 844.878, 384.067 841.944 C 388.661 838.098, 390.898 834.565, 389.576 833.243 C 389.243 832.910, 387.402 834.157, 385.485 836.015 C 381.524 839.854, 381.397 839.517, 383.583 830.981 C 386.357 820.154, 383.275 816.752, 374.529 820.986 C 369.934 823.210, 363 830.257, 363 832.701 C 363 833.439, 361.863 834.561, 360.473 835.194 C 356.362 837.067, 355.397 835.181, 357.016 828.435 C 358.726 821.307, 356.893 817.466, 353 820.014 M 861.439 821.874 C 858.311 823.782, 851 831.700, 851 833.180 C 851 835.520, 858.399 832.914, 862.339 829.186 C 869.472 822.438, 868.846 817.357, 861.439 821.874 M 373.875 825.864 C 366.881 830.300, 362.317 836.921, 367.250 835.475 C 374.478 833.356, 382 827.925, 382 824.826 C 382 822.178, 379.104 822.548, 373.875 825.864 M 544.212 825.274 C 538.978 830.845, 539.134 838.108, 544.413 834.649 C 547.654 832.526, 549.203 829.576, 548.812 826.278 C 548.398 822.792, 546.860 822.456, 544.212 825.274 M 884.376 823.766 C 882.434 825.034, 879.008 831.401, 879.004 833.750 C 878.998 836.909, 881.551 836.603, 885.141 833.013 C 887.439 830.714, 888.056 829.290, 887.814 826.840 C 887.489 823.543, 886.320 822.498, 884.376 823.766 M 978.738 824.087 C 976.837 825.194, 971.689 834.593, 972.193 836.036 C 972.723 837.551, 980.762 833.293, 982.564 830.543 C 983.948 828.430, 984.065 827.438, 983.163 825.459 C 981.929 822.751, 981.344 822.569, 978.738 824.087 M 258.500 825.842 C 254.678 828.179, 253.330 829.836, 252.472 833.256 C 251.411 837.484, 254.474 836.790, 259.632 831.632 C 265.995 825.268, 265.296 821.687, 258.500 825.842 M 629.552 825.942 C 626.934 828.835, 628.096 830.904, 630.813 828.188 C 633.046 825.954, 633.672 824, 632.155 824 C 631.690 824, 630.519 824.874, 629.552 825.942 M 697.378 825.437 C 693.693 827.041, 691 830.539, 691 833.723 C 691 836.522, 691.394 836.538, 695.656 833.903 C 698.805 831.957, 702 827.498, 702 825.050 C 702 823.703, 701.209 823.770, 697.378 825.437 M 800.039 826.189 C 797.907 828.476, 797.422 830, 798.826 830 C 799.797 830, 804 825.683, 804 824.686 C 804 823.307, 802.026 824.056, 800.039 826.189 M 1071.004 826.496 C 1069.714 827.869, 1068.962 829.296, 1069.333 829.667 C 1070.064 830.397, 1075 826.180, 1075 824.826 C 1075 823.299, 1073.365 823.982, 1071.004 826.496 M 366.018 855.303 C 358.693 861.250, 355.340 865.672, 354.414 870.604 C 353.013 878.076, 356.825 879.150, 362.490 872.879 C 367.324 867.528, 375.644 849.964, 373.317 850.020 C 372.868 850.031, 369.583 852.408, 366.018 855.303" stroke="none" fill="#5fa730" fill-rule="evenodd"/><path d="M -0 512.001 L -0 1024.002 640.250 1023.751 L 1280.500 1023.500 1280.751 511.750 L 1281.002 0 640.501 0 L 0 0 -0 512.001 M 0.496 512.500 C 0.496 794.100, 0.610 909.151, 0.750 768.168 C 0.890 627.186, 0.890 396.786, 0.750 256.168 C 0.610 115.551, 0.496 230.900, 0.496 512.500 M 875.709 141 C 873.777 182.441, 859.507 235.157, 838.487 278.500 C 820.547 315.493, 799.748 344.121, 767.857 375.715 C 749.355 394.045, 739.338 402.512, 723.638 413.095 C 698.416 430.094, 675.307 438.403, 643 442.087 C 636.677 442.808, 619.161 443.246, 598.971 443.189 L 565.441 443.093 558.780 448.082 C 545.360 458.132, 539.286 470.326, 537.072 491.666 C 536.398 498.161, 536.466 500.801, 537.328 501.636 C 539.356 503.602, 569.918 519.568, 583.843 525.937 C 640.619 551.905, 696.637 567.377, 750.967 572.094 L 764.435 573.263 778.037 559.317 C 804.249 532.444, 824.234 501.454, 837.527 467.072 C 839.350 462.357, 841.214 458.500, 841.670 458.500 C 843.383 458.500, 854.440 475.939, 860.058 487.500 C 867.295 502.395, 870 512.644, 870 525.173 C 870 530.310, 869.565 536.085, 869.032 538.007 C 867.357 544.054, 870.589 538.710, 873.207 531.104 C 876.209 522.383, 876.168 508.098, 873.110 496.500 C 870.303 485.860, 860.642 466.737, 852.142 455 L 845.263 445.500 846.645 441 C 858.304 403.032, 865.928 345.389, 865.985 294.771 C 865.998 283.680, 866.380 280.720, 868.955 271.771 C 872.832 258.299, 876.463 239.847, 878.652 222.500 C 881.781 197.700, 880.861 144.200, 877.065 130.184 C 876.608 128.499, 876.104 132.523, 875.709 141 M 651 185.940 C 629.078 190.581, 607.649 197.663, 535 224.277 C 507.225 234.452, 478.538 244.920, 471.250 247.538 L 458 252.299 458 265.181 C 458 274.646, 457.668 278.149, 456.750 278.389 C 456.063 278.568, 452.125 279.503, 448 280.466 C 420.817 286.815, 402.717 301.482, 397.361 321.500 C 396.626 324.250, 396.050 330.550, 396.082 335.500 L 396.141 344.500 397.940 335.974 C 400.183 325.347, 403.752 318.200, 410.244 311.335 C 416.513 304.707, 423.886 299.758, 433.239 295.902 C 439.586 293.284, 454.188 289, 456.762 289 C 457.291 289, 457.964 299.446, 458.325 313.250 C 459.699 365.820, 467.056 412.117, 480.294 451.500 L 483.656 461.500 491.078 467.305 C 499.180 473.641, 534.109 497.224, 534.626 496.707 C 534.802 496.531, 534.547 492.823, 534.058 488.467 C 530.672 458.275, 544.242 428.882, 579.755 389.487 C 622.456 342.117, 699.425 284.821, 771.500 246.751 C 786.533 238.810, 785.063 238.920, 765.641 247.190 C 695.321 277.132, 625.949 321.801, 580.943 366.120 C 563.942 382.860, 554.468 394.689, 541.309 415.607 C 540.280 417.241, 540.110 416.885, 540.062 413 C 539.850 395.757, 544.806 367.355, 551.567 347.066 C 565.454 305.393, 589.983 273.322, 626 249.744 C 664.003 224.867, 743.046 197.071, 798.493 189.087 C 815.080 186.699, 810.893 186.026, 779.500 186.034 C 753.391 186.041, 733.809 187.382, 714.269 190.499 C 704.397 192.075, 703.783 192.062, 696.744 190.131 C 684.797 186.853, 669.518 183.995, 664.343 184.070 C 661.679 184.109, 655.675 184.950, 651 185.940 M 837.301 210.456 C 825.417 245.708, 808.192 283.638, 793.039 307.924 C 783.752 322.808, 768.313 343.210, 757.839 354.440 C 740.678 372.838, 715.808 391.749, 694.125 402.887 C 669.694 415.437, 637.895 425.331, 611.704 428.533 C 608.517 428.923, 606.117 429.450, 606.371 429.704 C 607.151 430.485, 643.428 426.079, 657.872 423.450 C 677.183 419.935, 687.813 416.717, 700.988 410.399 C 741.048 391.187, 779.518 351.919, 809.361 299.779 C 819.936 281.305, 829.579 256.435, 835.944 231.223 C 838.858 219.681, 843.351 196.017, 842.743 195.410 C 842.591 195.258, 840.142 202.029, 837.301 210.456 M 399.406 285.984 C 389.291 294.267, 381.943 304.659, 377.607 316.812 C 359.257 368.244, 404.625 442.077, 492.957 504.535 C 503.253 511.815, 508.558 516.259, 510.505 519.235 C 516.621 528.582, 527.029 541.020, 539.447 553.822 C 568.811 584.094, 600.808 605.731, 645.360 625.442 L 660.219 632.016 669.860 627.924 C 684.137 621.864, 704.225 611.865, 715 605.455 L 724.500 599.805 739.500 601.622 C 760.007 604.106, 796.876 604.127, 813 601.665 C 861.591 594.242, 891.770 574.794, 902.741 543.835 C 907.366 530.780, 907.101 509.089, 902.110 492.350 L 900.366 486.500 900.805 498.152 C 901.516 517.015, 897.312 530.594, 886.544 544.215 C 873.800 560.335, 847.384 573.630, 818.500 578.460 C 797.350 581.998, 777.674 582.764, 754 580.974 C 693.839 576.426, 628.728 557.187, 566 525.424 C 514.322 499.257, 474.797 471.094, 441 436.358 C 414.847 409.477, 399.090 385.554, 390.564 359.782 C 381.133 331.271, 384.538 307.407, 400.914 287.250 C 403.707 283.813, 405.879 281, 405.742 281 C 405.604 281, 402.753 283.243, 399.406 285.984 M 552.580 481.947 C 551.711 485.768, 551 489.733, 551 490.758 C 551 492.160, 555.155 494.758, 567.750 501.231 C 610.432 523.169, 652.776 538.717, 695.076 547.982 C 708.728 550.972, 734.958 555.375, 735.556 554.777 C 735.974 554.359, 556.651 475, 555.289 475 C 554.668 475, 553.449 478.126, 552.580 481.947 M 359.251 684.545 C 347.565 687.692, 338.013 695.468, 333.188 705.764 C 330.805 710.848, 330.500 712.693, 330.500 722 C 330.500 732.055, 330.645 732.767, 333.917 738.803 C 340.958 751.788, 352.316 758.855, 367.591 759.757 C 380.109 760.495, 390.750 756.738, 400.125 748.268 L 404 744.767 404 730.384 L 404 716 385 716 L 366 716 366 723 L 366 730 377 730 L 388 730 388 734.046 C 388 737.950, 387.816 738.178, 382.750 740.536 C 373.304 744.934, 361.363 743.516, 354.624 737.197 C 348.602 731.550, 346.176 720.294, 349.347 712.718 C 351.178 708.345, 358.024 702.365, 362.679 701.072 C 370.767 698.826, 380.858 700.639, 385.727 705.213 L 388.011 707.359 395.495 703.429 C 399.611 701.268, 402.983 699.220, 402.989 698.877 C 402.995 698.535, 401.016 696.426, 398.590 694.190 C 388.097 684.518, 373.051 680.829, 359.251 684.545 M 752.230 684.486 C 730.519 690.597, 718.507 711.273, 724.588 732.068 C 727.859 743.254, 734.731 751.080, 745.953 756.397 C 752.044 759.284, 753.268 759.500, 763.521 759.500 C 773.951 759.500, 774.899 759.324, 781.193 756.226 C 785.576 754.068, 789.575 751.057, 792.922 747.395 C 795.715 744.339, 797.995 741.538, 797.989 741.169 C 797.983 740.801, 794.720 738.623, 790.739 736.329 L 783.500 732.157 780.260 735.623 C 773.194 743.182, 762.526 745.059, 753.159 740.392 C 739.724 733.697, 737.228 715.497, 748.341 705.253 C 757.737 696.593, 773.173 697.777, 781.026 707.760 L 783.138 710.446 788.425 707.586 C 791.333 706.013, 794.748 703.945, 796.014 702.990 L 798.316 701.253 796.080 698.113 C 792.842 693.565, 785.653 688.392, 779.153 685.931 C 771.801 683.148, 759.357 682.480, 752.230 684.486 M 903.746 684.022 C 888.681 687.828, 877.765 699.858, 874.771 715.954 C 871.833 731.756, 880.734 748.806, 895.794 756.219 C 901.984 759.267, 903.172 759.500, 912.500 759.500 C 921.803 759.500, 923.027 759.261, 929.126 756.259 C 946.572 747.670, 955.081 727.937, 949.038 710.083 C 945.121 698.508, 939.252 691.912, 928.294 686.767 C 921.415 683.537, 910.499 682.316, 903.746 684.022 M 418 721.500 L 418 759 427 759 L 436 759 436 749.500 L 436 740 442.250 740.009 L 448.500 740.018 454.292 749.509 L 460.083 759 471.042 759 C 477.069 759, 482 758.828, 482 758.617 C 482 758.406, 478.707 753.389, 474.683 747.469 L 467.366 736.704 471.570 732.829 C 477.967 726.932, 480.329 720.484, 479.797 710.360 C 479.433 703.424, 478.899 701.371, 476.411 697.347 C 472.538 691.082, 466.335 686.452, 459.994 685.092 C 457.193 684.491, 446.599 684, 436.451 684 L 418 684 418 721.500 M 495 721.500 L 495 759 523.500 759 L 552 759 552 750.500 L 552 742 532.452 742 L 512.905 742 513.202 735.750 L 513.500 729.500 529.750 729.225 L 546 728.950 546 721.475 L 546 714 529.500 714 L 513 714 513 707.500 L 513 701 532.500 701 L 552 701 552 692.500 L 552 684 523.500 684 L 495 684 495 721.500 M 567 721.500 L 567 759 595.500 759 L 624 759 624 750.500 L 624 742 604.500 742 L 585 742 585 735.500 L 585 729 601 729 L 617 729 617 721.500 L 617 714 601 714 L 585 714 585 707.500 L 585 701 604.500 701 L 624 701 624 692.500 L 624 684 595.500 684 L 567 684 567 721.500 M 637 721.500 L 637 759 645.981 759 L 654.962 759 655.231 736.367 L 655.500 713.734 674.292 736.367 L 693.083 759 702.042 759 L 711 759 711 721.500 L 711 684 702.019 684 L 693.038 684 692.769 706.593 L 692.500 729.187 673.764 706.593 L 655.027 684 646.014 684 L 637 684 637 721.500 M 810 721.500 L 810 759 838.500 759 L 867 759 867 750.500 L 867 742 847.452 742 L 827.905 742 828.202 735.750 L 828.500 729.500 844.750 729.225 L 861 728.950 861 721.475 L 861 714 844.500 714 L 828 714 828 707.500 L 828 701 847.500 701 L 867 701 867 692.500 L 867 684 838.500 684 L 810 684 810 721.500 M 904.500 701.389 C 896.142 705.040, 891.060 712.733, 891.022 721.790 C 890.995 728.403, 893.526 733.582, 899.128 738.378 C 903.850 742.420, 907.641 743.443, 915.482 742.793 C 921.833 742.266, 926.780 739.293, 930.741 733.622 C 934.455 728.304, 935.151 718.162, 932.195 712.413 C 926.898 702.110, 914.315 697.101, 904.500 701.389 M 436 712.500 L 436 724 444.032 724 C 453.585 724, 458.263 722.325, 460.434 718.128 C 462.407 714.311, 462.423 710.719, 460.483 706.967 C 458.141 702.439, 454.300 701, 444.550 701 L 436 701 436 712.500 M 787.502 793.575 C 782.795 796.030, 781.257 797.773, 773.449 809.500 C 762.071 826.591, 756.329 839.961, 760.032 840.740 C 761.084 840.962, 763.260 837.896, 766.965 830.973 C 769.935 825.423, 772.928 820.122, 773.615 819.191 C 775.981 815.991, 777.338 819.442, 778.040 830.439 C 778.919 844.209, 781.614 848.318, 788.613 846.561 C 791.692 845.788, 790.980 844.446, 787.078 843.666 C 783.502 842.950, 782.318 839.591, 781.368 827.468 L 780.739 819.437 784.119 816.856 C 788.902 813.205, 793.949 807.930, 795.466 805 C 800.459 795.350, 796.098 789.093, 787.502 793.575 M 686.832 798.727 C 685.549 800.776, 683.339 805.164, 681.919 808.477 C 680.063 812.810, 678.520 814.888, 676.419 815.883 C 670.408 818.730, 667.788 822.656, 672.500 821.755 C 673.875 821.492, 675 821.455, 675 821.672 C 675 821.889, 673.875 824.287, 672.500 827 C 671.125 829.713, 670 832.593, 670 833.399 C 670 835.269, 666.139 836.539, 664.732 835.132 C 663.976 834.376, 664.059 832.423, 665.016 828.435 C 666.517 822.174, 665.603 819.224, 662.362 819.873 C 661.338 820.078, 659.105 820.272, 657.400 820.304 C 654.663 820.356, 653.767 821.206, 649.756 827.560 L 645.211 834.758 638.528 835.922 C 632.174 837.028, 628 836.720, 628 835.144 C 628 834.748, 630.050 832.710, 632.556 830.615 C 636.439 827.370, 637.067 826.340, 636.806 823.653 C 636.584 821.368, 635.938 820.420, 634.460 820.208 C 631.222 819.744, 625.692 824.118, 623.347 828.998 C 621.165 833.536, 617.787 835.864, 613.250 835.955 C 610.259 836.015, 610.323 833.627, 613.521 825.756 C 617.364 816.298, 615.509 814.669, 606.915 819.958 C 602.337 822.774, 602.078 822.822, 601.487 820.958 C 600.737 818.596, 599.961 818.424, 594.523 819.410 C 591.441 819.969, 590.343 821.188, 585.889 829 C 584.165 832.025, 582.696 834.560, 582.627 834.633 C 582.557 834.706, 580.973 835.094, 579.107 835.494 L 575.715 836.222 576.350 831.861 C 576.699 829.462, 577.258 826.078, 577.593 824.339 C 578.083 821.790, 577.796 820.961, 576.111 820.059 C 574.476 819.184, 573.494 819.286, 571.603 820.525 C 569.999 821.575, 568.966 821.754, 568.534 821.054 C 567.274 819.016, 566.154 820.072, 561.049 828.114 C 555.740 836.476, 555.066 839.500, 558.514 839.500 C 559.921 839.500, 561.428 837.751, 563.683 833.506 C 567.344 826.612, 571.691 822.291, 573.323 823.923 C 574.066 824.666, 573.877 826.035, 572.690 828.524 C 569.047 836.163, 571.191 840.802, 577.739 839.450 C 579.808 839.023, 582.175 838.756, 583 838.857 C 583.905 838.967, 586.407 835.856, 589.305 831.020 C 591.948 826.609, 594.760 823, 595.555 823 C 597.429 823, 597.387 823.562, 594.989 830.532 C 592.402 838.052, 593.777 839.638, 597.805 833.783 C 602.356 827.169, 611 819.813, 611 822.555 C 611 822.860, 610.089 825.110, 608.975 827.555 C 605.688 834.771, 605.457 837.506, 607.987 839.279 C 610.364 840.943, 613.185 840.507, 618.791 837.608 C 621.812 836.046, 622.064 836.064, 623.983 837.983 C 626.439 840.439, 633.733 840.711, 639.795 838.572 C 643.301 837.335, 643.915 837.335, 644.389 838.572 C 644.691 839.358, 645.775 840, 646.798 840 C 648.086 840, 649.664 838, 651.927 833.496 C 654.901 827.578, 658.917 823, 661.135 823 C 662.473 823, 662.091 827.217, 660.500 830 C 656.766 836.531, 660.592 841.725, 667.279 839.201 C 669.353 838.418, 670.753 838.353, 671.408 839.008 C 673.063 840.663, 679.301 840.114, 682.750 838.011 C 688.061 834.773, 686.411 832.407, 681 835.500 C 676.673 837.974, 675 837.434, 675 833.565 C 675 825.886, 680.238 819.078, 688.174 816.442 C 694.378 814.382, 694.574 812.512, 688.500 813.345 C 686.025 813.684, 684 813.825, 684 813.657 C 684 813.489, 685.575 809.718, 687.500 805.276 C 689.425 800.834, 691 796.704, 691 796.100 C 691 793.896, 689.108 795.088, 686.832 798.727 M 789.354 795.993 C 784.090 798.117, 775.130 810.291, 776.399 813.597 C 777.107 815.442, 780.369 815.378, 784.107 813.445 C 788.315 811.268, 793 803.556, 793 798.804 C 793 794.790, 792.771 794.614, 789.354 795.993 M 1052.284 797.198 C 1051.087 798.472, 1048.529 802.979, 1046.599 807.214 C 1043.649 813.686, 1042.465 815.233, 1039.168 816.914 C 1034.349 819.373, 1032.963 822, 1036.485 822 L 1038.908 822 1036.464 827.250 C 1035.119 830.138, 1034.015 833.235, 1034.010 834.133 C 1033.999 835.876, 1031.231 836.964, 1026.750 836.986 C 1023.005 837.005, 1023.253 835.369, 1028 828.740 C 1032.361 822.649, 1032.948 820.678, 1030.250 821.177 C 1027.671 821.653, 1019.871 833.954, 1020.216 837 C 1020.470 839.233, 1021.017 839.533, 1025.337 839.808 C 1028.367 840.002, 1031.005 839.571, 1032.403 838.656 C 1034.375 837.364, 1034.747 837.375, 1035.617 838.755 C 1036.963 840.889, 1042.333 840.591, 1046.463 838.154 C 1049.747 836.217, 1049.823 836.216, 1050.313 838.089 C 1050.719 839.643, 1051.730 840, 1055.715 840 C 1058.412 840, 1061.479 839.370, 1062.532 838.600 C 1064.174 837.400, 1064.733 837.400, 1066.446 838.600 C 1068.865 840.294, 1076.041 840.298, 1081.500 838.608 C 1084.816 837.581, 1085.886 837.615, 1087.754 838.803 C 1090.668 840.655, 1097.039 840.548, 1100.838 838.584 C 1107.373 835.204, 1110.680 827.213, 1107.532 822.409 C 1106.602 820.989, 1105.989 819.729, 1106.170 819.611 C 1106.352 819.492, 1107.737 818.621, 1109.250 817.674 C 1115.513 813.756, 1110.462 813.301, 1102.873 817.099 C 1097.743 819.668, 1097.415 821.457, 1101.622 823.940 C 1104.502 825.639, 1105.009 826.413, 1104.451 828.255 C 1102.160 835.810, 1089 839.822, 1089 832.965 C 1089 830.420, 1085.975 830.379, 1085.312 832.915 C 1084.787 834.924, 1083.464 835.429, 1075.868 836.524 C 1069.176 837.489, 1068.761 835.719, 1074.455 830.491 C 1078.268 826.990, 1079.089 825.647, 1078.825 823.340 C 1078.535 820.802, 1078.139 820.517, 1075.103 820.663 C 1070.309 820.894, 1065.036 826.311, 1064.306 831.755 C 1063.726 836.077, 1062.441 836.958, 1056.683 836.986 C 1054.220 836.998, 1053.953 836.717, 1054.559 834.750 C 1054.941 833.513, 1056.771 830.415, 1058.627 827.866 C 1062.310 822.807, 1062.804 821, 1060.506 821 C 1059.685 821, 1057.127 823.841, 1054.821 827.313 C 1050.698 833.525, 1048.843 834.805, 1041.250 836.678 C 1039.250 837.172, 1039.002 836.860, 1039.022 833.867 C 1039.048 829.821, 1041.937 823.194, 1044.772 820.674 C 1045.902 819.669, 1049.445 817.783, 1052.646 816.482 C 1056.960 814.729, 1058.016 813.943, 1056.726 813.448 C 1055.768 813.081, 1053.398 813.078, 1051.457 813.442 L 1047.930 814.104 1049.319 810.802 C 1050.084 808.986, 1051.720 805.161, 1052.955 802.302 C 1055.621 796.133, 1055.334 793.951, 1052.284 797.198 M 186.304 801.956 C 182.066 804.540, 179.768 808.229, 180.147 811.840 C 180.406 814.304, 179.597 815.557, 175.186 819.522 C 169.099 824.995, 167 828.527, 167 833.295 C 167 839.933, 173.076 842.040, 183.734 839.100 C 188.031 837.914, 193.995 833.667, 192.902 832.571 C 192.573 832.241, 189.327 832.891, 185.688 834.015 C 178.698 836.174, 173.080 836.785, 171.157 835.597 C 166.867 832.945, 175.550 821.425, 184.295 818.167 C 190.470 815.867, 191.717 813.293, 186.887 812.818 C 182.399 812.377, 182.234 810.566, 186.313 806.487 C 190.233 802.567, 193.904 801.917, 194.710 805 C 195.425 807.734, 197 807.528, 197 804.700 C 197 799.811, 191.948 798.515, 186.304 801.956 M 440.164 801.665 C 435.983 803.756, 433.741 807.110, 433.605 811.475 C 433.521 814.199, 432.411 815.922, 427.924 820.302 C 421.248 826.819, 419.348 830.732, 420.651 835.283 C 421.982 839.933, 425.545 841.370, 432.539 840.077 C 439.367 838.815, 444.743 836.349, 446.070 833.870 C 447.278 831.613, 446.528 831.550, 441.131 833.454 C 438.865 834.253, 434.706 835.326, 431.890 835.838 C 427.445 836.646, 426.520 836.520, 424.884 834.884 C 422.328 832.328, 422.428 831.904, 426.904 826.241 C 429.879 822.477, 432.379 820.618, 437.412 818.425 C 444.263 815.440, 445.306 813.731, 440.614 813.178 C 439.111 813.001, 437.634 812.210, 437.331 811.420 C 436.508 809.276, 439.420 805.483, 443.040 803.983 C 446.014 802.752, 446.361 802.827, 448.049 805.065 C 450.296 808.044, 451.524 807.078, 450.277 803.313 C 449.131 799.850, 445.104 799.194, 440.164 801.665 M 978 814.696 C 969.430 831.451, 967.159 834.845, 965.861 832.834 C 965.156 831.742, 964.822 831.772, 964.016 833 C 963.475 833.825, 962.903 834.867, 962.745 835.315 C 962.586 835.762, 960.554 836.384, 958.228 836.696 C 954.489 837.198, 954 837.034, 954 835.282 C 954 834.192, 955.281 831.531, 956.848 829.369 C 958.414 827.207, 960.230 824.440, 960.883 823.219 C 961.920 821.281, 961.824 821, 960.127 821 C 958.809 821, 956.705 823.311, 953.592 828.177 C 951.066 832.124, 949 835.894, 949 836.555 C 949 840.119, 957.076 841.491, 961.397 838.660 C 963.220 837.465, 963.834 837.478, 965.754 838.752 C 968.400 840.510, 974.954 840.610, 978.197 838.943 C 982.168 836.903, 986.882 831.814, 987.528 828.871 C 988.464 824.611, 987.179 821.973, 983.400 820.394 L 979.993 818.970 983.996 811.007 C 988.174 802.698, 988.853 799.989, 986.750 800.016 C 986.063 800.025, 982.125 806.631, 978 814.696 M 338.796 801.537 C 337.752 802.581, 339.200 806, 340.686 806 C 341.609 806, 342.022 805.207, 341.820 803.828 C 341.501 801.661, 339.892 800.442, 338.796 801.537 M 514 801.918 C 514 803.970, 515.297 806, 516.607 806 C 518.525 806, 518.369 802.356, 516.418 801.607 C 514.308 800.797, 514 800.837, 514 801.918 M 967.166 803.060 C 967.350 804.316, 968.100 805.541, 968.834 805.783 C 969.741 806.082, 970.061 805.491, 969.834 803.940 C 969.650 802.684, 968.900 801.459, 968.166 801.217 C 967.259 800.918, 966.939 801.509, 967.166 803.060 M 1008.166 803.060 C 1008.350 804.316, 1009.100 805.541, 1009.834 805.783 C 1010.741 806.082, 1011.061 805.491, 1010.834 803.940 C 1010.650 802.684, 1009.900 801.459, 1009.166 801.217 C 1008.259 800.918, 1007.939 801.509, 1008.166 803.060 M 1037 801.845 C 1037 804, 1038.288 806, 1039.677 806 C 1041.778 806, 1040.931 801.603, 1038.750 801.187 C 1037.787 801.003, 1037 801.300, 1037 801.845 M 1067.796 801.537 C 1066.752 802.581, 1068.200 806, 1069.686 806 C 1070.609 806, 1071.022 805.207, 1070.820 803.828 C 1070.501 801.661, 1068.892 800.442, 1067.796 801.537 M 725.789 804.750 C 722.484 808.267, 712.846 827.409, 712.069 832 C 711.528 835.194, 711.150 835.527, 707.738 835.810 C 704.299 836.096, 704 835.912, 704 833.521 C 704 832.090, 704.927 829.104, 706.059 826.884 C 708.616 821.873, 707.478 820, 701.880 820 C 698.824 820, 697.150 820.774, 693.950 823.664 C 687.289 829.682, 684.889 835.889, 688.016 839.016 C 689.596 840.596, 690.428 840.747, 692.864 839.897 C 694.482 839.333, 696.570 838.028, 697.503 836.997 C 699.153 835.173, 699.263 835.194, 701.469 837.758 C 703.648 840.292, 703.904 840.345, 707.991 839.121 C 711.031 838.210, 712.554 838.154, 713.323 838.923 C 713.915 839.515, 715.738 840, 717.374 840 L 720.349 840 718.174 837.686 C 714.350 833.615, 715.182 830.466, 724.057 815.431 C 729.598 806.043, 731.142 802, 729.187 802 C 728.740 802, 727.211 803.237, 725.789 804.750 M 1018.789 804.750 C 1015.375 808.381, 1005 829.267, 1005 832.508 C 1005 835.237, 1002.030 837, 997.435 837 C 993.863 837, 994.325 834.269, 999 827.740 C 1003.580 821.344, 1003.687 821, 1001.092 821 C 999.818 821, 997.657 823.386, 994.592 828.177 C 992.066 832.124, 990 835.894, 990 836.555 C 990 840.183, 998.094 841.479, 1002.545 838.562 C 1004.537 837.257, 1004.966 837.254, 1006.031 838.537 C 1007.338 840.112, 1012 840.570, 1012 839.122 C 1012 838.640, 1011.325 837.685, 1010.500 837 C 1007.275 834.323, 1009.172 828.167, 1017.393 814.623 C 1024.064 803.634, 1024.812 798.344, 1018.789 804.750 M 235.831 809.250 C 233.860 812.688, 230.818 818.200, 229.071 821.500 C 224.636 829.881, 219.873 835.048, 216.353 835.298 C 213.782 835.480, 213.512 835.203, 213.617 832.500 C 213.681 830.850, 214.210 828.046, 214.792 826.268 C 215.661 823.612, 215.540 822.653, 214.108 820.885 C 212.638 819.070, 212.028 818.915, 210.204 819.891 C 209.014 820.528, 207.019 820.799, 205.771 820.495 C 204.027 820.070, 203.125 820.586, 201.884 822.720 C 200.996 824.249, 198.662 828.126, 196.698 831.335 C 193.014 837.356, 192.830 840, 196.094 840 C 197.418 840, 199.007 837.950, 201.463 833.074 C 204.570 826.905, 207.965 823, 210.223 823 C 211.484 823, 211.116 826.478, 209.427 830.520 C 206.574 837.349, 209.401 841.011, 216.272 839.386 C 218.048 838.966, 220.043 838.723, 220.707 838.845 C 221.371 838.968, 222.578 837.783, 223.390 836.213 C 226.451 830.294, 236.751 822.418, 238.779 824.446 C 239.172 824.839, 238.234 827.417, 236.694 830.175 C 234.064 834.887, 233.990 835.335, 235.470 837.595 C 236.337 838.918, 237.598 840.050, 238.273 840.111 C 240.896 840.347, 244.583 839.752, 246.357 838.806 C 247.620 838.132, 248.565 838.165, 249.307 838.907 C 251.178 840.778, 255.401 840.111, 258.217 837.500 C 261.326 834.617, 262 834.432, 262 836.465 C 262 839.178, 265.871 840.355, 270.363 839.010 C 273.289 838.133, 274.534 838.101, 274.798 838.895 C 275.001 839.503, 276.023 840, 277.069 840 C 278.395 840, 279.907 838.146, 282.061 833.879 C 288.304 821.511, 295.422 818.874, 290.451 830.771 C 287.561 837.689, 291.094 841.557, 298.081 839.122 C 300.358 838.328, 301.770 838.342, 303.323 839.173 C 306.181 840.702, 311.848 840.379, 316.540 838.419 C 320.119 836.923, 320.476 836.931, 321.641 838.524 C 323.082 840.494, 329.660 840.788, 332.947 839.028 C 336.548 837.101, 335.192 836.071, 329.884 836.700 C 324.840 837.298, 324.778 837.272, 325.511 834.903 C 325.919 833.581, 327.771 830.415, 329.627 827.866 C 333.310 822.807, 333.804 821, 331.506 821 C 330.685 821, 328.125 823.843, 325.818 827.318 C 321.657 833.586, 321.567 833.650, 314.673 835.234 C 310.850 836.112, 307.110 836.596, 306.361 836.308 C 304.477 835.585, 304.653 829.964, 306.653 826.973 C 308.987 823.483, 313.223 819, 314.187 819 C 314.634 819, 315 819.712, 315 820.583 C 315 821.454, 315.563 821.979, 316.250 821.750 C 316.938 821.521, 317.500 820.246, 317.500 818.917 C 317.500 817.081, 316.899 816.432, 315 816.217 C 309.979 815.648, 301 825.996, 301 832.352 C 301 834.147, 300.308 834.957, 298.355 835.447 C 294.218 836.485, 293.481 834.843, 295.269 828.561 C 296.734 823.409, 296.723 822.879, 295.104 820.881 C 293.620 819.048, 293.041 818.908, 291.145 819.922 C 289.924 820.576, 288.044 820.831, 286.968 820.490 C 285.362 819.980, 284.078 821.313, 279.798 827.934 C 274.645 835.907, 274.537 836, 270.400 836 C 265.128 836, 264.223 834.103, 266.975 828.823 C 269.408 824.156, 269.555 821.427, 267.418 820.607 C 261.569 818.362, 254.373 822.406, 250.837 829.923 C 248.436 835.028, 245.496 837, 240.283 837 C 238.236 837, 237.972 836.655, 238.560 834.750 C 238.943 833.513, 240.323 830.660, 241.628 828.412 C 242.932 826.164, 244 823.592, 244 822.697 C 244 820.501, 240.362 818.692, 237.426 819.429 C 235.231 819.980, 235.115 819.829, 235.982 817.548 C 236.500 816.184, 237.842 813.271, 238.962 811.074 C 241.030 807.020, 241.650 803, 240.208 803 C 239.772 803, 237.803 805.813, 235.831 809.250 M 524.820 817.662 C 520.230 826.887, 509.090 837, 503.520 837 C 500.030 837, 500.329 835.257, 504.998 828.385 C 509.494 821.765, 509.731 820.991, 507.250 821.021 C 505.021 821.047, 497 833.107, 497 836.431 C 497 839.553, 498.349 840.353, 503.288 840.160 C 508.550 839.954, 512.097 837.614, 520.879 828.557 C 524.909 824.401, 528.385 821, 528.603 821 C 529.795 821, 528.678 826.118, 526.587 830.240 C 525.245 832.885, 524.418 835.882, 524.716 837.021 C 525.340 839.407, 528.547 841.398, 530.160 840.401 C 530.775 840.021, 534.126 839.758, 537.607 839.818 C 543.040 839.910, 544.369 839.560, 547.004 837.344 C 553.041 832.263, 554.956 823.956, 551 820 C 548.421 817.421, 548.027 817.466, 544.452 820.750 C 539.711 825.105, 535.798 830.749, 535.084 834.264 C 534.360 837.823, 531.193 839.142, 529.183 836.720 C 527.978 835.268, 528.519 832.517, 531.290 826 C 532.612 822.889, 532.607 821.972, 531.243 817.750 C 530.399 815.138, 529.131 813, 528.424 813 C 527.718 813, 526.096 815.098, 524.820 817.662 M 835.759 815.423 C 831.279 817.022, 827 819.709, 827 820.924 C 827 821.407, 828.605 822.749, 830.566 823.906 C 833.498 825.636, 834.011 826.409, 833.451 828.255 C 832.401 831.717, 828.998 834.907, 825.250 835.942 C 821.045 837.103, 819.110 836.420, 817.948 833.364 C 816.864 830.512, 815 830.282, 814.312 832.915 C 813.787 834.924, 812.464 835.429, 804.868 836.524 C 798.172 837.489, 797.768 835.735, 803.434 830.305 C 807.077 826.815, 808.047 825.230, 807.808 823.160 C 807.567 821.080, 806.887 820.430, 804.691 820.178 C 802.476 819.924, 800.941 820.796, 797.441 824.296 C 793.639 828.097, 793 829.324, 793 832.812 C 793 835.889, 793.544 837.268, 795.223 838.443 C 797.954 840.357, 805.144 840.396, 810.391 838.525 C 813.790 837.314, 814.581 837.335, 816.645 838.687 C 819.632 840.644, 825.954 840.593, 829.848 838.579 C 835.970 835.413, 839.174 827.705, 836.489 822.601 C 835.650 821.007, 835.085 819.633, 835.232 819.549 C 838.783 817.509, 841 815.752, 841 814.977 C 841 813.732, 840.339 813.788, 835.759 815.423 M 943.037 815.174 C 939.180 816.280, 934 819.645, 934 821.042 C 934 821.541, 935.350 822.647, 937 823.500 C 939.250 824.663, 940 825.752, 940 827.851 C 940 835.007, 926.030 839.952, 924.381 833.381 C 923.673 830.562, 921 830.169, 921 832.883 C 921 834.484, 918.607 835.928, 915.857 835.986 C 914.317 836.019, 914.191 832.710, 915.583 828.768 C 918.109 821.614, 915.476 817.332, 910.540 820.566 C 908.973 821.592, 907.967 821.756, 907.534 821.054 C 906.275 819.019, 905.148 820.069, 900.032 828.045 C 894.733 836.306, 894.031 839.500, 897.514 839.500 C 898.921 839.500, 900.428 837.751, 902.683 833.506 C 906.344 826.612, 910.691 822.291, 912.323 823.923 C 913.066 824.666, 912.877 826.035, 911.690 828.524 C 907.522 837.264, 911.476 842.609, 919.148 838.606 C 921.437 837.412, 922.002 837.430, 923.312 838.741 C 925.546 840.974, 933.401 840.533, 937.600 837.938 C 939.496 836.766, 941.713 834.523, 942.524 832.953 C 944.202 829.710, 944.504 822.430, 943 821.500 C 941.362 820.488, 941.845 819.595, 945.006 817.797 C 946.653 816.860, 948 815.622, 948 815.047 C 948 813.833, 947.681 813.842, 943.037 815.174 M 863.358 816.445 C 861.630 817.197, 857.269 820.667, 853.667 824.156 C 847.825 829.814, 846.456 831.948, 841.003 843.894 C 834.970 857.107, 834.551 859.632, 838.517 858.844 C 839.669 858.615, 841.598 855.073, 844.288 848.250 L 848.330 838 852.552 838 C 861.054 838, 870.946 828.264, 870.984 819.857 C 871.006 814.928, 868.955 814.010, 863.358 816.445 M 474.582 820.250 C 474.332 821.487, 473.859 825.177, 473.531 828.449 C 473.204 831.721, 472.837 834.497, 472.716 834.617 C 472.595 834.738, 471.193 835.164, 469.602 835.564 L 466.707 836.290 467.346 831.895 C 467.697 829.478, 468.258 826.078, 468.593 824.339 C 469.083 821.790, 468.796 820.961, 467.111 820.059 C 465.476 819.184, 464.494 819.286, 462.603 820.525 C 460.999 821.575, 459.966 821.754, 459.534 821.054 C 458.274 819.016, 457.154 820.072, 452.049 828.114 C 446.740 836.476, 446.066 839.500, 449.514 839.500 C 450.921 839.500, 452.428 837.751, 454.683 833.506 C 458.274 826.743, 462.696 822.296, 464.268 823.868 C 464.937 824.537, 464.726 826.227, 463.635 828.955 C 460.231 837.461, 462.269 841.147, 469.327 839.251 C 471.837 838.577, 473.633 838.503, 473.833 839.065 C 474.572 841.138, 478.219 839.781, 481.958 836.042 C 486.149 831.851, 495 820.150, 495 818.800 C 495 816.616, 491.862 818.672, 485.154 825.250 L 477.761 832.500 478.380 826.830 C 478.720 823.712, 478.726 820.449, 478.392 819.580 C 477.496 817.243, 475.106 817.663, 474.582 820.250 M 883.204 820.827 C 878.558 824.917, 874 831.982, 874 835.093 C 874 841.670, 881.791 841.958, 887.690 835.600 C 895.490 827.191, 891.374 813.634, 883.204 820.827 M 353 820.014 C 352.175 820.555, 350.375 820.764, 349 820.481 C 346.766 820.020, 345.940 820.860, 341.239 828.372 C 335.963 836.802, 335.343 840, 338.983 840 C 340.156 840, 341.987 837.650, 344.415 833.029 C 347.697 826.785, 351.020 823, 353.223 823 C 354.527 823, 354.092 826.740, 352.365 830.361 C 349.270 836.851, 353.373 841.974, 359.449 839.205 C 360.714 838.629, 363.528 838.395, 365.702 838.687 C 368.561 839.070, 370.809 838.628, 373.827 837.088 L 378 834.959 378 837.332 C 378 840.672, 374.255 845.836, 368.989 849.760 C 355.481 859.822, 351 865.422, 351 872.238 C 351 876.561, 353.461 880, 356.554 880 C 362.270 880, 369.955 869.354, 376.951 851.744 C 378.610 847.567, 380.563 844.878, 384.067 841.944 C 388.661 838.098, 390.898 834.565, 389.576 833.243 C 389.243 832.910, 387.402 834.157, 385.485 836.015 C 381.524 839.854, 381.397 839.517, 383.583 830.981 C 386.357 820.154, 383.275 816.752, 374.529 820.986 C 369.934 823.210, 363 830.257, 363 832.701 C 363 833.439, 361.863 834.561, 360.473 835.194 C 356.362 837.067, 355.397 835.181, 357.016 828.435 C 358.726 821.307, 356.893 817.466, 353 820.014 M 861.439 821.874 C 858.311 823.782, 851 831.700, 851 833.180 C 851 835.520, 858.399 832.914, 862.339 829.186 C 869.472 822.438, 868.846 817.357, 861.439 821.874 M 373.875 825.864 C 366.881 830.300, 362.317 836.921, 367.250 835.475 C 374.478 833.356, 382 827.925, 382 824.826 C 382 822.178, 379.104 822.548, 373.875 825.864 M 544.212 825.274 C 538.978 830.845, 539.134 838.108, 544.413 834.649 C 547.654 832.526, 549.203 829.576, 548.812 826.278 C 548.398 822.792, 546.860 822.456, 544.212 825.274 M 884.376 823.766 C 882.434 825.034, 879.008 831.401, 879.004 833.750 C 878.998 836.909, 881.551 836.603, 885.141 833.013 C 887.439 830.714, 888.056 829.290, 887.814 826.840 C 887.489 823.543, 886.320 822.498, 884.376 823.766 M 978.738 824.087 C 976.837 825.194, 971.689 834.593, 972.193 836.036 C 972.723 837.551, 980.762 833.293, 982.564 830.543 C 983.948 828.430, 984.065 827.438, 983.163 825.459 C 981.929 822.751, 981.344 822.569, 978.738 824.087 M 258.500 825.842 C 254.678 828.179, 253.330 829.836, 252.472 833.256 C 251.411 837.484, 254.474 836.790, 259.632 831.632 C 265.995 825.268, 265.296 821.687, 258.500 825.842 M 629.552 825.942 C 626.934 828.835, 628.096 830.904, 630.813 828.188 C 633.046 825.954, 633.672 824, 632.155 824 C 631.690 824, 630.519 824.874, 629.552 825.942 M 697.378 825.437 C 693.693 827.041, 691 830.539, 691 833.723 C 691 836.522, 691.394 836.538, 695.656 833.903 C 698.805 831.957, 702 827.498, 702 825.050 C 702 823.703, 701.209 823.770, 697.378 825.437 M 800.039 826.189 C 797.907 828.476, 797.422 830, 798.826 830 C 799.797 830, 804 825.683, 804 824.686 C 804 823.307, 802.026 824.056, 800.039 826.189 M 1071.004 826.496 C 1069.714 827.869, 1068.962 829.296, 1069.333 829.667 C 1070.064 830.397, 1075 826.180, 1075 824.826 C 1075 823.299, 1073.365 823.982, 1071.004 826.496 M 366.018 855.303 C 358.693 861.250, 355.340 865.672, 354.414 870.604 C 353.013 878.076, 356.825 879.150, 362.490 872.879 C 367.324 867.528, 375.644 849.964, 373.317 850.020 C 372.868 850.031, 369.583 852.408, 366.018 855.303" stroke="none" fill="#f3fbdb" fill-rule="evenodd"/></svg>