<svg version="1.1" id="Layer_1" xmlns="http://www.w3.org/2000/svg" xmlns:xlink="http://www.w3.org/1999/xlink" x="0px" y="0px"
	 width="100%" viewBox="0 0 960 537" enable-background="new 0 0 960 537" xml:space="preserve">
<path fill="#FEFEFE" opacity="1.000000" stroke="none" 
	d="
M708.000000,538.000000 
	C472.000000,538.000000 236.500000,538.000000 1.000000,538.000000 
	C1.000000,359.000000 1.000000,180.000000 1.000000,1.000000 
	C321.000000,1.000000 641.000000,1.000000 961.000000,1.000000 
	C961.000000,180.000000 961.000000,359.000000 961.000000,538.000000 
	C876.833313,538.000000 792.666687,538.000000 708.000000,538.000000 
M238.281555,96.634575 
	C238.406128,96.329407 238.530685,96.024239 238.718277,95.715065 
	C238.718277,95.715065 238.739380,95.655571 239.396088,95.869171 
	C239.624619,95.896500 239.853165,95.923828 240.032318,96.681519 
	C241.538193,97.885414 243.281281,100.297562 244.503677,100.057571 
	C247.663864,99.437141 247.351669,96.762573 246.982895,94.431793 
	C252.449554,95.237282 250.566879,90.407333 252.601501,87.715622 
	C254.486069,87.494545 256.434601,87.468567 258.201691,86.889130 
	C258.558624,86.772087 258.724121,83.953728 258.105530,83.448151 
	C257.029297,82.568558 254.303009,81.814987 253.983566,82.254662 
	C252.996613,83.613121 252.824463,85.561066 252.320923,87.275688 
	C252.236771,87.562202 252.077713,87.826706 251.342834,88.868690 
	C249.573227,88.660751 247.803619,88.452812 245.932999,87.427818 
	C245.863708,87.162300 245.794434,86.896782 246.017120,86.030945 
	C247.482834,83.652664 249.244675,81.397270 250.302002,78.849503 
	C250.925308,77.347565 250.431763,75.382118 250.440491,73.625114 
	C248.856842,74.276718 247.197052,74.793030 245.715805,75.626587 
	C244.695602,76.200684 243.922745,77.214340 242.227921,77.638802 
	C242.350815,76.822784 242.870499,75.704483 242.522263,75.247391 
	C241.475189,73.872948 240.089828,72.756218 238.836456,71.538940 
	C237.826035,72.801743 236.815628,74.064545 235.805222,75.327347 
	C237.263535,76.265701 238.649338,77.363098 240.210892,78.074944 
	C240.985428,78.428017 242.083084,78.072304 243.342178,78.706177 
	C239.233429,82.826424 235.124680,86.946671 230.420486,90.307106 
	C230.360687,88.766350 230.300903,87.225594 231.014267,85.208443 
	C231.481995,85.362343 232.142990,85.793922 232.385956,85.624847 
	C233.905502,84.567322 235.331741,83.375710 236.788879,82.228500 
	C235.448029,81.103554 234.107178,79.978600 232.766327,78.853645 
	C231.871292,80.466087 230.877960,82.035118 230.135986,83.715157 
	C229.885895,84.281418 230.273697,85.129410 229.653488,85.619034 
	C227.953018,85.830681 226.093826,85.718918 224.639694,86.432541 
	C224.142776,86.676392 224.164566,89.767105 224.825897,90.191643 
	C226.033813,90.967072 227.894760,90.728409 229.484253,90.904442 
	C230.003860,90.961990 230.526291,90.993805 231.111481,91.740105 
	C225.284576,96.156273 219.400116,100.499428 213.659805,105.025406 
	C211.435684,106.779015 209.837067,106.414169 207.555450,104.947899 
	C190.973236,94.291321 171.273727,103.512299 168.549606,122.981628 
	C168.244492,125.162384 167.403809,127.512054 166.115524,129.274734 
	C147.322586,154.987793 135.590408,183.801208 129.020706,214.741776 
	C117.277084,270.049316 119.709564,325.334259 130.411240,380.470764 
	C131.891068,388.095123 134.047562,395.721069 136.995529,402.892151 
	C140.294891,410.918030 148.961777,413.313995 156.651932,409.219421 
	C161.634003,406.566742 163.699493,401.800964 164.779388,396.650024 
	C165.973862,390.952545 166.269241,385.020416 167.946838,379.490997 
	C168.719391,376.944611 171.555161,373.893433 173.996750,373.300598 
	C176.464615,372.701355 179.752655,374.568634 182.381622,375.933044 
	C183.672974,376.603271 184.293777,378.575104 185.205215,379.966278 
	C206.501724,412.471985 245.621826,422.618256 278.780975,404.200623 
	C287.038269,399.614288 294.027466,393.582977 299.457184,385.781616 
	C301.078003,383.452789 301.979950,380.819550 299.299408,379.328918 
	C297.896698,378.548920 295.230652,379.735931 293.261505,380.405914 
	C292.252686,380.749176 291.548035,381.940125 290.661224,382.695557 
	C282.225830,389.881500 272.397064,393.564819 261.385864,393.908478 
	C242.998978,394.482330 229.780304,385.282867 219.291611,371.170959 
	C213.642883,363.570984 214.806885,354.069366 222.136002,348.025757 
	C225.085373,345.593750 228.330139,343.515198 231.237091,341.037231 
	C247.381363,327.275391 259.546539,311.089966 262.448303,289.311401 
	C264.298096,275.427979 258.703491,262.865417 247.615982,256.876526 
	C237.130020,251.212509 225.949036,250.165237 214.699051,253.808823 
	C196.146011,259.817688 183.839432,273.078735 175.446045,290.068268 
	C165.864716,309.462402 162.101669,330.414093 160.384521,351.792664 
	C160.130508,354.955292 159.866852,358.133362 155.702606,358.072327 
	C151.606155,358.012268 151.278503,354.767395 150.998062,351.670807 
	C146.908203,306.511322 149.604843,261.828796 161.079712,217.878220 
	C166.988434,195.246796 174.932220,173.351212 188.486710,153.967941 
	C189.709625,152.219147 192.185608,150.465225 194.210663,150.297791 
	C210.857346,148.921265 221.127167,135.147186 217.601151,118.776840 
	C217.284271,117.305634 218.094742,114.984619 219.206177,113.914970 
	C224.833893,108.498848 230.734207,103.365974 237.050827,98.040375 
	C237.291504,97.617409 237.532166,97.194435 238.000000,96.997559 
	C238.000000,96.997559 237.776199,96.767738 238.281555,96.634575 
M683.355652,325.858154 
	C672.010437,333.928925 660.732849,342.098877 649.234009,349.944458 
	C647.803711,350.920380 644.660706,351.005157 643.236877,350.079407 
	C638.199219,346.804016 633.563477,342.910461 628.397827,338.962677 
	C634.546509,333.319641 640.008545,328.926239 644.697510,323.822510 
	C649.043823,319.091736 653.110840,313.915161 656.294678,308.358398 
	C659.515381,302.737152 657.439087,299.127014 651.121826,297.872070 
	C639.662354,295.595703 630.590393,299.970825 623.222107,308.514069 
	C615.834473,317.079773 608.620667,325.797913 601.099243,334.243134 
	C599.885132,335.606354 597.466003,335.896362 595.603943,336.682465 
	C595.493958,334.717499 594.623779,332.363403 595.397888,330.851044 
	C600.235107,321.400909 604.993591,311.858612 610.631287,302.882721 
	C618.329407,290.626190 626.952698,278.953125 634.780212,266.773407 
	C636.278564,264.441986 637.236816,260.157257 636.069519,258.164917 
	C634.871887,256.120605 630.648438,254.672195 627.954102,254.950027 
	C623.627075,255.396271 619.223999,256.988770 615.285156,258.960205 
	C603.627014,264.795319 595.839294,274.829651 588.016479,284.851044 
	C578.836609,296.610870 570.687134,308.886475 565.975708,323.195465 
	C565.531067,324.545898 564.653625,325.973724 563.565063,326.858765 
	C550.310120,337.635529 536.084534,346.825958 519.786438,352.332611 
	C514.548096,354.102509 509.166931,354.023895 502.890381,350.995575 
	C505.943756,349.600800 508.001678,348.694092 510.031403,347.728058 
	C522.902466,341.602295 535.064575,334.420715 544.452271,323.416290 
	C548.654175,318.490753 551.176758,312.695251 548.169495,306.359894 
	C545.187805,300.078400 539.117554,297.771118 532.718323,298.429108 
	C525.172668,299.204987 517.587891,300.714752 510.329041,302.922150 
	C497.189697,306.917755 485.487274,313.877014 474.633392,322.764984 
	C474.183746,321.810333 473.898468,321.260223 473.660248,320.690460 
	C469.485382,310.706512 460.727936,301.331512 445.706116,304.612457 
	C440.513672,305.746552 435.154449,306.470062 430.207123,308.292419 
	C422.419495,311.160980 414.936981,314.850708 407.277771,318.080109 
	C405.272980,318.925415 403.092865,319.354919 400.993256,319.975342 
	C400.670471,319.591431 400.347687,319.207489 400.024902,318.823547 
	C401.037354,316.908478 401.975372,314.949432 403.075378,313.086060 
	C407.464752,305.650482 412.189789,298.392151 416.149445,290.736603 
	C417.316193,288.480835 417.514771,283.908234 416.106262,282.591980 
	C414.308533,280.912079 410.272339,280.681702 407.492249,281.250397 
	C404.370270,281.889038 401.359711,283.812561 398.671326,285.703949 
	C386.361969,294.364258 376.651794,305.571808 369.014740,318.378601 
	C365.070160,324.993378 360.421875,330.552277 354.035126,334.648132 
	C346.079285,339.750244 338.146088,344.920166 329.915436,349.549255 
	C324.714050,352.474579 319.606873,351.177094 315.290985,346.982056 
	C313.210999,344.960266 312.708038,343.447510 314.994812,340.800781 
	C319.655670,335.406281 324.386475,329.866272 327.813660,323.679962 
	C330.348236,319.104828 331.230103,313.476715 332.161285,308.196594 
	C332.838562,304.356171 330.175415,302.127777 326.559387,301.114441 
	C320.070221,299.295959 313.970184,300.465485 308.279053,303.751190 
	C297.092712,310.209473 289.011932,319.489319 284.159760,331.448364 
	C280.672882,340.042358 279.437866,348.858582 283.448517,357.654907 
	C291.724152,375.805298 311.059174,382.382874 330.119446,373.626068 
	C332.679596,372.449860 335.192841,371.171661 338.147766,369.736755 
	C336.555206,375.036896 334.881683,379.411774 333.979065,383.940338 
	C333.041870,388.642303 332.144257,393.553253 332.546417,398.260315 
	C332.896637,402.359558 334.251312,406.900787 336.623840,410.193481 
	C342.153198,417.867371 351.306244,417.280060 356.260132,409.264771 
	C358.600769,405.477661 360.429657,401.306305 362.003204,397.125641 
	C366.810120,384.354889 371.316132,371.471008 376.112762,358.696289 
	C376.826721,356.794891 378.094330,354.552032 379.751282,353.640411 
	C393.885406,345.864105 408.092621,338.209991 422.457001,330.869598 
	C426.402252,328.853577 430.901764,327.809357 435.256134,326.781952 
	C436.415527,326.508423 438.440247,327.629669 439.190155,328.716248 
	C439.666595,329.406555 438.904572,331.625854 438.028625,332.434631 
	C436.219940,334.104706 434.075714,335.508514 431.872925,336.638702 
	C418.852936,343.318756 405.753845,349.844727 392.740204,356.536957 
	C390.399567,357.740570 388.072021,359.206573 386.192078,361.021393 
	C381.882233,365.181854 382.721924,371.128387 387.944580,373.954559 
	C389.809692,374.963867 391.966797,375.544006 394.060181,376.002655 
	C405.087372,378.418823 415.261566,375.290283 424.900757,370.449280 
	C436.024994,364.862488 446.854370,358.688629 457.767700,352.793518 
	C460.349243,364.501923 465.199463,370.780945 476.836517,374.538696 
	C482.871796,376.487518 489.576324,377.283905 495.940247,377.119629 
	C513.836365,376.657623 529.999634,370.128357 545.264343,361.204865 
	C550.365784,358.222626 555.301392,354.956696 560.937439,351.429443 
	C560.937439,353.440216 560.951538,354.707703 560.935059,355.974792 
	C560.840698,363.238373 561.744995,370.068604 568.975708,374.058624 
	C576.350281,378.128021 582.104858,373.851990 587.836060,370.162170 
	C593.240845,366.682465 598.445068,362.891083 603.732605,359.240143 
	C607.079468,362.756287 610.013428,366.157379 613.274963,369.208344 
	C625.393066,380.544220 636.480164,382.161469 651.048279,374.304810 
	C658.176208,370.460632 664.884888,365.839081 671.876282,361.511871 
	C680.043518,373.308228 691.938965,377.743713 706.169556,377.322418 
	C723.941772,376.796326 740.016846,370.817719 755.342102,362.332520 
	C757.911682,360.909851 760.443298,359.418701 762.272400,358.371490 
	C765.793518,362.386108 768.534790,366.398224 772.115295,369.413940 
	C780.204163,376.226929 790.031555,378.073547 800.285400,377.252319 
	C833.544434,374.588501 860.085083,358.432892 882.937683,335.281250 
	C885.274719,332.913666 886.735046,329.382538 887.761536,326.126343 
	C888.424561,324.022858 888.326111,320.830658 887.105164,319.275238 
	C886.267883,318.208527 882.574402,318.408997 880.754028,319.283844 
	C876.460938,321.347046 872.213684,323.762970 868.499756,326.727539 
	C855.402893,337.181763 841.486267,346.183014 825.669495,351.930450 
	C819.993896,353.992889 814.213013,354.226654 807.668701,351.021515 
	C812.451233,348.723785 816.368652,346.993317 820.146423,344.998444 
	C831.685547,338.905090 842.826904,332.189697 850.551697,321.282074 
	C858.073914,310.660278 852.707458,299.472107 839.714478,298.319183 
	C837.731079,298.143188 835.678955,298.044586 833.724792,298.343201 
	C811.734314,301.703430 792.447266,310.712769 776.047729,325.874268 
	C763.046021,337.894562 748.000122,346.645874 731.318726,352.439911 
	C726.232544,354.206512 720.854797,354.085083 716.330627,351.621399 
	C727.016724,344.923462 737.714478,338.839691 747.663147,331.710541 
	C752.374451,328.334534 756.449829,323.425964 759.401062,318.384949 
	C764.273193,310.063202 760.068359,301.431793 750.639465,299.152863 
	C747.471619,298.387207 743.981323,298.110291 740.762085,298.538849 
	C718.982422,301.438141 700.143860,310.731720 683.355652,325.858154 
M187.198593,79.679008 
	C190.470764,57.532532 176.463379,40.831451 162.672180,31.135817 
	C159.401611,28.836510 157.981293,31.415401 157.736801,34.144608 
	C156.835190,44.209236 155.128616,54.357723 155.703964,64.360832 
	C156.495941,78.130264 162.973648,89.074318 176.405945,94.851837 
	C180.017609,96.405289 182.543747,96.048164 183.772293,92.012894 
	C184.932190,88.203117 185.993744,84.363396 187.198593,79.679008 
M221.876389,193.462341 
	C222.127914,177.483307 215.629135,164.900543 202.947815,155.285507 
	C199.880447,152.959824 197.794846,153.172073 195.471878,156.227295 
	C190.183578,163.182648 187.726547,170.926788 188.859253,179.581329 
	C190.876831,194.996780 199.458359,206.936035 209.732056,217.888077 
	C213.219238,221.605499 215.371170,221.401733 216.730072,216.660843 
	C218.825195,209.351517 220.189423,201.832687 221.876389,193.462341 
M222.068665,120.698570 
	C222.201401,122.315948 221.731842,124.401443 222.565491,125.474068 
	C227.646606,132.011642 234.296341,136.195053 242.641174,137.163391 
	C259.699524,139.142822 274.070282,132.108154 287.862701,123.352287 
	C290.606232,121.610603 290.153412,119.630730 287.642151,117.908524 
	C267.336182,103.982864 242.373337,100.893990 222.068665,120.698570 
M226.246674,69.741173 
	C230.850052,58.584072 230.769318,47.091614 228.751892,35.445080 
	C228.135056,31.884029 226.353775,30.680138 223.248703,32.808136 
	C212.462982,40.199886 202.766724,48.732594 196.538315,60.478039 
	C191.345795,70.270012 190.656250,80.334869 195.457855,90.613831 
	C197.112610,94.156227 198.937424,95.276718 202.787613,93.418617 
	C213.200424,88.393394 221.138138,81.036293 226.246674,69.741173 
M222.690659,141.832520 
	C216.784271,142.167801 216.280624,142.733353 216.509598,148.651215 
	C216.862396,157.769104 220.438522,165.472565 227.204697,171.481339 
	C238.451981,181.469635 252.323868,185.364655 266.744781,187.723129 
	C269.924225,188.243103 271.041046,186.314758 270.307251,183.447067 
	C264.722992,161.623993 250.642715,142.432602 222.690659,141.832520 
M155.268799,129.706360 
	C156.462463,127.522766 157.662338,125.342545 158.848450,123.154846 
	C160.918579,119.336678 159.902695,116.779358 155.675049,115.664604 
	C150.877869,114.399681 146.117661,112.535995 141.239563,112.116447 
	C120.970612,110.373116 106.786865,120.836884 95.268944,136.077377 
	C93.025345,139.046112 94.716652,140.914398 97.811729,141.216370 
	C108.041313,142.214417 118.313293,143.828781 128.532043,143.594528 
	C138.974945,143.355148 148.229156,138.988647 155.268799,129.706360 
M149.672943,111.452629 
	C152.793686,111.061607 155.977356,110.939369 159.022720,110.226364 
	C166.494644,108.476974 167.025192,107.412209 164.250824,100.395355 
	C154.281723,75.181839 130.887985,68.814087 108.855515,71.208702 
	C105.388428,71.585526 105.565292,74.078293 107.068863,76.379997 
	C110.877289,82.210014 114.383736,88.317734 118.821251,93.638611 
	C126.635658,103.008621 135.826645,110.556725 149.672943,111.452629 
M338.523651,261.976227 
	C328.552521,266.739441 325.277679,272.888733 328.608948,280.593414 
	C331.735962,287.825653 341.987061,292.022400 349.356598,288.674103 
	C357.272217,285.077576 362.106140,278.636719 363.972351,270.220459 
	C365.603516,262.864288 361.636383,257.788879 354.190857,258.302002 
	C349.149384,258.649414 344.212006,260.506805 338.523651,261.976227 
M387.965912,444.505798 
	C388.783844,448.383057 388.497681,451.885132 386.808746,455.762726 
	C384.107971,461.963409 387.411255,469.284607 393.234070,472.322693 
	C399.314697,475.495300 406.497772,474.083374 410.822357,468.818237 
	C411.853149,467.563263 412.750977,466.199127 413.709961,464.885223 
	C415.791595,465.266968 417.722839,465.027740 418.607880,463.938477 
	C421.456299,460.432678 419.905640,457.203918 417.337250,454.262024 
	C412.565155,455.338501 410.297852,452.873627 411.435852,447.942688 
	C413.199432,440.300873 409.356567,433.962463 402.073212,432.500092 
	C394.980286,431.075897 389.289276,435.585541 387.965912,444.505798 
M584.659729,442.564087 
	C584.659729,439.500610 584.659729,436.437134 584.659729,433.089569 
	C582.023376,433.208893 580.270325,433.288208 578.334351,433.375824 
	C578.186096,436.140808 578.056946,438.549774 577.906982,441.346039 
	C576.666138,440.851593 575.762695,440.535217 574.895508,440.139252 
	C567.031494,436.548309 558.793396,437.985077 553.386169,443.905640 
	C548.103394,449.689972 547.182617,458.638885 551.192017,465.229858 
	C555.496887,472.306458 563.396667,475.480347 571.426636,473.359558 
	C579.248901,471.293640 584.359985,464.678650 584.647949,456.025970 
	C584.786255,451.869232 584.672913,447.704102 584.659729,442.564087 
M204.525009,473.256836 
	C215.431717,475.592010 225.406952,470.574799 226.768250,460.568451 
	C227.978134,451.674957 227.022141,442.486755 227.022141,433.560699 
	C225.124146,433.560699 223.240738,433.560699 221.316910,433.560699 
	C221.139847,436.324890 220.988434,438.688751 220.824432,441.249023 
	C219.864670,440.971802 219.375076,440.905762 218.955521,440.698181 
	C208.602539,435.575378 197.692078,438.929962 193.246719,448.616241 
	C188.886551,458.116882 193.283997,468.349976 204.525009,473.256836 
M850.075012,462.517120 
	C850.067078,460.026459 850.167969,457.529755 850.031006,455.046234 
	C849.605164,447.324036 844.257263,440.737213 836.900024,438.735596 
	C829.330322,436.676178 821.221863,439.827850 816.959595,446.486176 
	C812.788574,453.001953 813.455627,461.852692 818.567322,467.815948 
	C823.535645,473.612030 831.792847,475.599213 838.959839,472.702728 
	C840.284363,472.167450 841.576355,471.551788 843.857178,470.542206 
	C842.924500,473.829346 842.239807,476.242584 841.479004,478.924011 
	C843.128906,479.822327 844.791931,480.727753 846.406738,481.606964 
	C850.994751,475.857269 849.938110,469.564758 850.075012,462.517120 
M744.540527,468.019653 
	C749.813904,461.138092 750.548645,453.140350 746.493774,446.758575 
	C742.307190,440.169495 735.097534,436.992889 727.683472,438.470703 
	C720.207153,439.960938 714.077515,445.728760 713.543213,453.234558 
	C712.946838,461.612000 713.406433,470.064636 713.406433,478.659302 
	C715.524353,478.659302 717.404907,478.659302 719.525757,478.659302 
	C719.672302,475.950623 719.802002,473.552765 719.958618,470.657196 
	C728.740967,475.446808 736.777283,475.540314 744.540527,468.019653 
M463.713257,447.333282 
	C459.883423,455.212738 460.878326,462.772888 466.501892,468.524658 
	C472.706696,474.870911 479.997009,475.631683 488.677246,471.727905 
	C492.346313,472.405518 494.592468,472.820343 497.291168,473.318756 
	C497.291168,467.338379 497.353088,462.186279 497.277496,457.036224 
	C497.144989,448.010925 492.699982,441.597748 484.922791,439.046814 
	C476.937408,436.427490 469.716248,439.081238 463.713257,447.333282 
M671.350952,464.988098 
	C677.973450,474.117310 685.205688,476.139801 695.649658,471.889587 
	C696.468079,471.556519 697.565735,471.705017 698.488464,471.874908 
	C700.507263,472.246704 702.497009,472.776215 704.868713,473.327271 
	C704.868713,466.313141 705.346252,460.294495 704.685852,454.403442 
	C704.302307,450.981964 702.734253,447.250854 700.578064,444.556305 
	C694.878052,437.433502 685.328125,436.141968 677.668396,440.778229 
	C669.623474,445.647583 667.089294,454.565186 671.350952,464.988098 
M261.815613,440.565277 
	C254.612198,436.744476 247.653534,437.197662 241.348694,442.331451 
	C235.318604,447.241455 233.609863,453.874390 235.670288,461.201996 
	C237.704422,468.436127 242.909119,472.589417 250.245514,473.812134 
	C257.997345,475.104034 265.943268,470.731018 269.097626,463.745361 
	C272.804504,455.536041 270.391968,447.217712 261.815613,440.565277 
M312.856171,453.874664 
	C312.576569,452.748627 312.346649,451.607452 312.009216,450.499023 
	C309.835876,443.360077 302.632904,438.079529 295.122589,438.092102 
	C287.231018,438.105316 279.979187,443.368713 277.893158,450.728485 
	C275.796082,458.127350 277.463379,464.528992 283.332672,469.641663 
	C288.898865,474.490387 295.381927,475.427551 301.942352,472.591370 
	C309.521942,469.314575 313.204742,463.105774 312.856171,453.874664 
M594.007263,454.371368 
	C597.360352,458.385651 601.599304,458.524323 606.270935,457.369965 
	C609.822144,456.492432 613.079285,456.839050 613.986450,461.244324 
	C614.705566,464.736603 611.911621,467.774384 607.339172,467.203125 
	C603.369080,466.707123 599.604797,464.564056 594.832886,462.812469 
	C594.418152,463.194519 593.033386,464.470062 591.715027,465.684479 
	C597.599487,473.435577 606.105469,475.948517 613.624268,472.561493 
	C619.091614,470.098602 621.627258,464.879822 620.197083,459.033752 
	C618.847595,453.517548 613.712646,449.987762 607.799072,450.575165 
	C605.816711,450.772064 603.817200,451.456055 601.886963,451.272430 
	C600.717896,451.161163 599.189392,450.016907 598.731262,448.947479 
	C598.429138,448.242004 599.485107,446.314453 600.390137,445.874481 
	C601.949463,445.116516 604.093384,444.402710 605.585266,444.897308 
	C609.063477,446.050415 612.299866,447.932770 616.088745,449.736023 
	C616.947021,449.013397 618.319031,447.858276 619.843933,446.574371 
	C615.460693,440.176880 609.577454,437.459259 602.211243,438.340485 
	C593.619629,439.368256 590.085022,445.831696 594.007263,454.371368 
M656.935181,457.267303 
	C656.424683,458.275421 655.884705,459.269836 655.408630,460.293945 
	C652.784180,465.939423 647.739746,468.529663 641.969727,467.175873 
	C637.078308,466.028259 633.089355,460.772430 633.280640,455.727142 
	C633.467346,450.802490 637.466553,445.967133 642.197632,444.945770 
	C647.882568,443.718475 653.141357,446.512146 655.523010,452.016937 
	C655.957581,453.021332 656.419495,454.013947 656.968689,455.234039 
	C658.958130,454.627899 660.640930,454.115143 662.272461,453.618042 
	C660.770203,443.745758 653.030762,437.603210 643.249695,438.202606 
	C634.287048,438.751862 627.018494,446.621368 626.940063,455.860718 
	C626.858887,465.422913 633.944580,473.249634 643.313843,473.946869 
	C652.906250,474.660675 660.587524,468.521759 662.271729,458.603485 
	C660.760864,458.123047 659.216064,457.631866 656.935181,457.267303 
M777.505188,469.160950 
	C777.516663,465.171875 777.432068,461.179688 777.560059,457.194336 
	C777.810913,449.385162 782.483765,444.502686 789.378418,444.688507 
	C795.986938,444.866608 800.344788,449.828766 800.447144,457.418213 
	C800.515991,462.526489 800.460266,467.636475 800.460266,472.848389 
	C802.825867,472.848389 804.599976,472.848389 806.566895,472.848389 
	C806.566895,465.890259 807.164001,459.063690 806.410828,452.389496 
	C805.534302,444.622467 798.324036,438.735413 790.598450,438.196869 
	C782.115479,437.605499 773.756958,442.395752 772.202454,450.305756 
	C770.765930,457.615723 771.156189,465.284668 770.698303,473.585297 
	C773.903503,472.245117 777.628723,475.128510 777.505188,469.160950 
M165.678284,444.693085 
	C174.016083,445.179291 177.934677,449.297638 177.996872,457.705658 
	C178.033508,462.658081 178.003555,467.611023 178.003555,472.722778 
	C180.313492,472.722778 182.187866,472.722778 183.938889,472.722778 
	C183.938889,465.643982 184.519226,458.797424 183.787750,452.093964 
	C182.929123,444.225067 174.972168,438.237091 166.724930,438.140503 
	C158.718262,438.046722 150.354050,443.682831 149.422836,451.151825 
	C148.536621,458.259888 149.231995,465.565186 149.231995,472.779053 
	C151.058899,472.779053 152.815018,472.779053 154.365082,472.779053 
	C154.666412,472.380219 154.852676,472.248718 154.854416,472.114777 
	C154.919556,467.131531 154.943466,462.147675 155.023834,457.164734 
	C155.136154,450.199890 157.966019,446.651123 165.678284,444.693085 
M521.028381,444.893829 
	C530.374207,444.346832 534.942627,448.633026 534.990051,458.028259 
	C535.014954,462.964203 534.994446,467.900360 534.994446,472.856689 
	C537.403870,472.856689 539.199707,472.856689 540.913147,472.856689 
	C540.913147,465.728607 541.535522,458.719696 540.749207,451.872559 
	C539.849182,444.035431 531.794922,438.186279 523.493958,438.142944 
	C515.385071,438.100616 507.041962,444.207825 506.220093,451.884125 
	C505.486206,458.738983 506.065796,465.734406 506.065796,472.834503 
	C507.919739,472.834503 509.691864,472.834503 512.023865,472.834503 
	C512.023865,467.711670 512.123901,462.768036 511.998535,457.830078 
	C511.841614,451.647888 514.235168,447.229309 521.028381,444.893829 
M320.144623,459.601624 
	C320.144623,464.014465 320.144623,468.427307 320.144623,472.796051 
	C322.703125,472.796051 324.472717,472.796051 326.764343,472.796051 
	C326.764343,466.915436 326.607147,461.280151 326.808502,455.657684 
	C327.010162,450.026093 330.852142,445.781006 336.138947,444.842468 
	C341.312866,443.923950 346.431580,446.762268 348.648865,451.789795 
	C349.101868,452.816956 349.520264,453.859406 350.105682,455.255005 
	C352.121857,454.677948 353.927246,454.161255 355.880432,453.602234 
	C354.286682,445.907776 350.176605,441.234070 343.249023,438.925964 
	C332.461670,435.331818 319.010742,443.764862 320.144623,459.601624 
M759.536682,473.067810 
	C760.647156,472.114746 762.696960,471.187866 762.724365,470.204651 
	C763.034302,459.067780 763.152100,447.920258 762.960388,436.781769 
	C762.937927,435.477112 760.751709,434.209717 759.568542,432.925079 
	C758.378906,434.217499 756.181458,435.491913 756.158020,436.805115 
	C755.959534,447.943451 756.098999,459.090057 756.339111,470.229858 
	C756.359802,471.189240 757.834290,472.117279 759.536682,473.067810 
M140.243484,468.375702 
	C140.356308,458.058868 140.607651,447.739624 140.428024,437.427887 
	C140.401978,435.933350 138.310257,434.474823 137.174454,432.999603 
	C135.994385,434.414459 134.224716,435.668762 133.784637,437.285095 
	C133.243607,439.272125 133.882690,441.561096 133.888962,443.719910 
	C133.916946,453.336151 133.901108,462.952545 133.901108,473.256409 
	C136.883270,472.474396 140.756668,474.893799 140.243484,468.375702 
M454.088837,445.513123 
	C454.088837,441.442413 454.088837,437.371704 454.088837,433.072296 
	C451.550903,433.230194 449.810150,433.338470 448.179871,433.439911 
	C448.179871,446.850342 448.179871,459.852417 448.179871,473.095276 
	C450.350067,472.984711 452.086487,472.896240 454.088837,472.794220 
	C454.088837,463.727509 454.088837,455.118713 454.088837,445.513123 
M259.217316,78.236076 
	C260.000244,76.708359 261.123291,75.232574 261.369049,73.622833 
	C261.447876,73.106659 259.042603,71.497169 258.071198,71.714851 
	C256.848267,71.988892 255.930359,73.624031 254.880844,74.671898 
	C256.103577,75.892555 257.326324,77.113213 259.217316,78.236076 
M254.982422,63.806389 
	C253.246597,63.856312 251.406372,63.603348 249.839554,64.143494 
	C249.378479,64.302444 249.160858,67.090889 249.799591,67.974838 
	C250.436020,68.855583 253.130692,69.526306 253.450485,69.122635 
	C254.468719,67.837334 254.801498,66.009026 254.982422,63.806389 
M246.863693,64.962105 
	C245.271103,64.301445 243.699036,63.266609 242.075119,63.177639 
	C241.485458,63.145336 240.003082,65.632164 240.298935,66.504822 
	C240.721863,67.752342 242.933441,69.631279 243.448288,69.373962 
	C244.898193,68.649315 245.871597,66.971268 246.863693,64.962105 
z"/>
<path fill="#086C3E" opacity="1.000000" stroke="none" 
	d="
M683.608643,325.614075 
	C700.143860,310.731720 718.982422,301.438141 740.762085,298.538849 
	C743.981323,298.110291 747.471619,298.387207 750.639465,299.152863 
	C760.068359,301.431793 764.273193,310.063202 759.401062,318.384949 
	C756.449829,323.425964 752.374451,328.334534 747.663147,331.710541 
	C737.714478,338.839691 727.016724,344.923462 716.330627,351.621399 
	C720.854797,354.085083 726.232544,354.206512 731.318726,352.439911 
	C748.000122,346.645874 763.046021,337.894562 776.047729,325.874268 
	C792.447266,310.712769 811.734314,301.703430 833.724792,298.343201 
	C835.678955,298.044586 837.731079,298.143188 839.714478,298.319183 
	C852.707458,299.472107 858.073914,310.660278 850.551697,321.282074 
	C842.826904,332.189697 831.685547,338.905090 820.146423,344.998444 
	C816.368652,346.993317 812.451233,348.723785 807.668701,351.021515 
	C814.213013,354.226654 819.993896,353.992889 825.669495,351.930450 
	C841.486267,346.183014 855.402893,337.181763 868.499756,326.727539 
	C872.213684,323.762970 876.460938,321.347046 880.754028,319.283844 
	C882.574402,318.408997 886.267883,318.208527 887.105164,319.275238 
	C888.326111,320.830658 888.424561,324.022858 887.761536,326.126343 
	C886.735046,329.382538 885.274719,332.913666 882.937683,335.281250 
	C860.085083,358.432892 833.544434,374.588501 800.285400,377.252319 
	C790.031555,378.073547 780.204163,376.226929 772.115295,369.413940 
	C768.534790,366.398224 765.793518,362.386108 762.272400,358.371490 
	C760.443298,359.418701 757.911682,360.909851 755.342102,362.332520 
	C740.016846,370.817719 723.941772,376.796326 706.169556,377.322418 
	C691.938965,377.743713 680.043518,373.308228 671.876282,361.511871 
	C664.884888,365.839081 658.176208,370.460632 651.048279,374.304810 
	C636.480164,382.161469 625.393066,380.544220 613.274963,369.208344 
	C610.013428,366.157379 607.079468,362.756287 603.732605,359.240143 
	C598.445068,362.891083 593.240845,366.682465 587.836060,370.162170 
	C582.104858,373.851990 576.350281,378.128021 568.975708,374.058624 
	C561.744995,370.068604 560.840698,363.238373 560.935059,355.974792 
	C560.951538,354.707703 560.937439,353.440216 560.937439,351.429443 
	C555.301392,354.956696 550.365784,358.222626 545.264343,361.204865 
	C529.999634,370.128357 513.836365,376.657623 495.940247,377.119629 
	C489.576324,377.283905 482.871796,376.487518 476.836517,374.538696 
	C465.199463,370.780945 460.349243,364.501923 457.767700,352.793518 
	C446.854370,358.688629 436.024994,364.862488 424.900757,370.449280 
	C415.261566,375.290283 405.087372,378.418823 394.060181,376.002655 
	C391.966797,375.544006 389.809692,374.963867 387.944580,373.954559 
	C382.721924,371.128387 381.882233,365.181854 386.192078,361.021393 
	C388.072021,359.206573 390.399567,357.740570 392.740204,356.536957 
	C405.753845,349.844727 418.852936,343.318756 431.872925,336.638702 
	C434.075714,335.508514 436.219940,334.104706 438.028625,332.434631 
	C438.904572,331.625854 439.666595,329.406555 439.190155,328.716248 
	C438.440247,327.629669 436.415527,326.508423 435.256134,326.781952 
	C430.901764,327.809357 426.402252,328.853577 422.457001,330.869598 
	C408.092621,338.209991 393.885406,345.864105 379.751282,353.640411 
	C378.094330,354.552032 376.826721,356.794891 376.112762,358.696289 
	C371.316132,371.471008 366.810120,384.354889 362.003204,397.125641 
	C360.429657,401.306305 358.600769,405.477661 356.260132,409.264771 
	C351.306244,417.280060 342.153198,417.867371 336.623840,410.193481 
	C334.251312,406.900787 332.896637,402.359558 332.546417,398.260315 
	C332.144257,393.553253 333.041870,388.642303 333.979065,383.940338 
	C334.881683,379.411774 336.555206,375.036896 338.147766,369.736755 
	C335.192841,371.171661 332.679596,372.449860 330.119446,373.626068 
	C311.059174,382.382874 291.724152,375.805298 283.448517,357.654907 
	C279.437866,348.858582 280.672882,340.042358 284.159760,331.448364 
	C289.011932,319.489319 297.092712,310.209473 308.279053,303.751190 
	C313.970184,300.465485 320.070221,299.295959 326.559387,301.114441 
	C330.175415,302.127777 332.838562,304.356171 332.161285,308.196594 
	C331.230103,313.476715 330.348236,319.104828 327.813660,323.679962 
	C324.386475,329.866272 319.655670,335.406281 314.994812,340.800781 
	C312.708038,343.447510 313.210999,344.960266 315.290985,346.982056 
	C319.606873,351.177094 324.714050,352.474579 329.915436,349.549255 
	C338.146088,344.920166 346.079285,339.750244 354.035126,334.648132 
	C360.421875,330.552277 365.070160,324.993378 369.014740,318.378601 
	C376.651794,305.571808 386.361969,294.364258 398.671326,285.703949 
	C401.359711,283.812561 404.370270,281.889038 407.492249,281.250397 
	C410.272339,280.681702 414.308533,280.912079 416.106262,282.591980 
	C417.514771,283.908234 417.316193,288.480835 416.149445,290.736603 
	C412.189789,298.392151 407.464752,305.650482 403.075378,313.086060 
	C401.975372,314.949432 401.037354,316.908478 400.024902,318.823547 
	C400.347687,319.207489 400.670471,319.591431 400.993256,319.975342 
	C403.092865,319.354919 405.272980,318.925415 407.277771,318.080109 
	C414.936981,314.850708 422.419495,311.160980 430.207123,308.292419 
	C435.154449,306.470062 440.513672,305.746552 445.706116,304.612457 
	C460.727936,301.331512 469.485382,310.706512 473.660248,320.690460 
	C473.898468,321.260223 474.183746,321.810333 474.633392,322.764984 
	C485.487274,313.877014 497.189697,306.917755 510.329041,302.922150 
	C517.587891,300.714752 525.172668,299.204987 532.718323,298.429108 
	C539.117554,297.771118 545.187805,300.078400 548.169495,306.359894 
	C551.176758,312.695251 548.654175,318.490753 544.452271,323.416290 
	C535.064575,334.420715 522.902466,341.602295 510.031403,347.728058 
	C508.001678,348.694092 505.943756,349.600800 502.890381,350.995575 
	C509.166931,354.023895 514.548096,354.102509 519.786438,352.332611 
	C536.084534,346.825958 550.310120,337.635529 563.565063,326.858765 
	C564.653625,325.973724 565.531067,324.545898 565.975708,323.195465 
	C570.687134,308.886475 578.836609,296.610870 588.016479,284.851044 
	C595.839294,274.829651 603.627014,264.795319 615.285156,258.960205 
	C619.223999,256.988770 623.627075,255.396271 627.954102,254.950027 
	C630.648438,254.672195 634.871887,256.120605 636.069519,258.164917 
	C637.236816,260.157257 636.278564,264.441986 634.780212,266.773407 
	C626.952698,278.953125 618.329407,290.626190 610.631287,302.882721 
	C604.993591,311.858612 600.235107,321.400909 595.397888,330.851044 
	C594.623779,332.363403 595.493958,334.717499 595.603882,336.682465 
	C597.466003,335.896362 599.885132,335.606354 601.099243,334.243134 
	C608.620667,325.797913 615.834473,317.079773 623.222107,308.514069 
	C630.590393,299.970825 639.662354,295.595703 651.121826,297.872070 
	C657.439087,299.127014 659.515381,302.737152 656.294678,308.358398 
	C653.110840,313.915161 649.043823,319.091736 644.697510,323.822510 
	C640.008545,328.926239 634.546509,333.319641 628.397827,338.962677 
	C633.563477,342.910461 638.199219,346.804016 643.236877,350.079407 
	C644.660706,351.005157 647.803711,350.920380 649.234009,349.944458 
	C660.732849,342.098877 672.010437,333.928925 683.608643,325.614075 
M494.226349,332.217926 
	C494.226349,334.615723 494.226349,337.013489 494.226349,339.879333 
	C495.491211,339.389191 496.279694,339.196411 496.952972,338.805328 
	C503.977539,334.724915 511.030212,330.689301 517.970215,326.468811 
	C520.470459,324.948303 523.486877,323.284119 521.702515,319.456207 
	C519.975159,315.750763 516.748474,315.269196 513.251709,316.287964 
	C504.911285,318.717865 498.412567,323.508392 494.226349,332.217926 
M809.795410,334.272827 
	C814.604797,331.297638 819.535095,328.493896 824.148132,325.240387 
	C825.490906,324.293396 827.042236,321.460510 826.547852,320.543732 
	C825.513672,318.626099 823.336609,316.381256 821.356140,316.083130 
	C813.406372,314.886383 799.490051,325.963135 798.510864,333.894135 
	C798.281433,335.752289 798.723633,337.693359 798.908020,340.328827 
	C802.835632,338.159973 806.004395,336.410156 809.795410,334.272827 
M732.559082,317.928406 
	C730.118225,317.372101 727.483826,315.933960 725.271667,316.419525 
	C717.662964,318.089600 711.554565,322.535522 707.712341,329.272797 
	C706.098083,332.103516 706.149597,335.884247 705.443848,339.233063 
	C706.006714,339.556549 706.569580,339.880066 707.132507,340.203552 
	C715.296021,335.227539 723.501770,330.318787 731.598022,325.235657 
	C734.122009,323.651031 735.300293,321.367676 732.559082,317.928406 
z"/>
<path fill="#066A3A" opacity="1.000000" stroke="none" 
	d="
M243.039337,78.031555 
	C243.922745,77.214340 244.695602,76.200684 245.715805,75.626587 
	C247.197052,74.793030 248.856842,74.276718 250.440491,73.625122 
	C250.431763,75.382118 250.925308,77.347565 250.302002,78.849503 
	C249.244675,81.397270 247.482834,83.652664 245.573685,86.492584 
	C243.731995,89.284241 242.333740,91.614258 240.968933,93.969757 
	C241.002380,93.995239 240.944427,93.933311 240.654861,93.743011 
	C239.823334,94.253662 239.281357,94.954620 238.739380,95.655579 
	C238.739380,95.655571 238.718277,95.715065 238.441452,95.787834 
	C238.035156,96.162979 237.905685,96.465363 237.776215,96.767746 
	C237.776199,96.767738 238.000000,96.997559 237.635834,96.944611 
	C237.027435,97.305710 236.783218,97.719765 236.538986,98.133820 
	C230.734207,103.365974 224.833893,108.498848 219.206177,113.914970 
	C218.094742,114.984619 217.284271,117.305634 217.601151,118.776840 
	C221.127167,135.147186 210.857346,148.921265 194.210663,150.297791 
	C192.185608,150.465225 189.709625,152.219147 188.486710,153.967941 
	C174.932220,173.351212 166.988434,195.246796 161.079712,217.878220 
	C149.604843,261.828796 146.908203,306.511322 150.998062,351.670807 
	C151.278503,354.767395 151.606155,358.012268 155.702606,358.072327 
	C159.866852,358.133362 160.130508,354.955292 160.384521,351.792664 
	C162.101669,330.414093 165.864716,309.462402 175.446045,290.068268 
	C183.839432,273.078735 196.146011,259.817688 214.699051,253.808823 
	C225.949036,250.165237 237.130020,251.212509 247.615982,256.876526 
	C258.703491,262.865417 264.298096,275.427979 262.448303,289.311401 
	C259.546539,311.089966 247.381363,327.275391 231.237091,341.037231 
	C228.330139,343.515198 225.085373,345.593750 222.136002,348.025757 
	C214.806885,354.069366 213.642883,363.570984 219.291611,371.170959 
	C229.780304,385.282867 242.998978,394.482330 261.385864,393.908478 
	C272.397064,393.564819 282.225830,389.881500 290.661224,382.695557 
	C291.548035,381.940125 292.252686,380.749176 293.261505,380.405914 
	C295.230652,379.735931 297.896698,378.548920 299.299408,379.328918 
	C301.979950,380.819550 301.078003,383.452789 299.457184,385.781616 
	C294.027466,393.582977 287.038269,399.614288 278.780975,404.200623 
	C245.621826,422.618256 206.501724,412.471985 185.205215,379.966278 
	C184.293777,378.575104 183.672974,376.603271 182.381622,375.933044 
	C179.752655,374.568634 176.464615,372.701355 173.996750,373.300598 
	C171.555161,373.893433 168.719391,376.944611 167.946838,379.490997 
	C166.269241,385.020416 165.973862,390.952545 164.779388,396.650024 
	C163.699493,401.800964 161.634003,406.566742 156.651932,409.219421 
	C148.961777,413.313995 140.294891,410.918030 136.995529,402.892151 
	C134.047562,395.721069 131.891068,388.095123 130.411240,380.470764 
	C119.709564,325.334259 117.277084,270.049316 129.020706,214.741776 
	C135.590408,183.801208 147.322586,154.987793 166.115524,129.274734 
	C167.403809,127.512054 168.244492,125.162384 168.549606,122.981628 
	C171.273727,103.512299 190.973236,94.291321 207.555450,104.947899 
	C209.837067,106.414169 211.435684,106.779015 213.659805,105.025406 
	C219.400116,100.499428 225.284576,96.156273 231.052307,91.373932 
	C230.993149,91.007759 231.015930,91.066917 231.015930,91.066925 
	C235.124680,86.946671 239.233429,82.826424 243.169998,78.352051 
	C242.997818,77.997932 243.039352,78.031555 243.039337,78.031555 
M203.153534,345.676300 
	C207.204865,341.731995 211.581467,338.065979 215.242218,333.787476 
	C223.784256,323.803986 229.731339,312.653931 229.048096,298.930176 
	C228.518234,288.287048 222.845276,283.110931 212.324783,283.849091 
	C205.951828,284.296295 200.415054,286.716248 195.728271,291.073578 
	C185.703384,300.393860 180.759613,312.536926 177.047882,325.263611 
	C175.245575,331.443298 174.125458,337.821991 172.696503,344.110596 
	C173.056244,344.218384 173.415985,344.326141 173.775726,344.433929 
	C185.240372,332.523346 196.705017,320.612732 208.169647,308.702148 
	C208.510513,308.937012 208.851395,309.171844 209.192261,309.406708 
	C202.076721,324.587372 194.961182,339.768036 187.845642,354.948700 
	C188.164215,355.214386 188.482803,355.480103 188.801392,355.745789 
	C193.402786,352.541962 198.004196,349.338104 203.153534,345.676300 
M184.137039,110.592964 
	C183.099899,111.414452 181.786331,112.054245 181.096390,113.103943 
	C180.256546,114.381760 179.941650,116.004616 179.399689,117.478226 
	C180.880081,117.941696 182.749954,119.215942 183.771851,118.725021 
	C187.705963,116.835045 191.768799,114.833801 194.999008,111.984512 
	C197.346741,109.913635 195.955673,107.349586 192.705399,107.668777 
	C189.998535,107.934601 187.398956,109.292694 184.137039,110.592964 
z"/>
<path fill="#EC232A" opacity="1.000000" stroke="none" 
	d="
M187.148575,80.107925 
	C185.993744,84.363396 184.932190,88.203117 183.772293,92.012894 
	C182.543747,96.048164 180.017609,96.405289 176.405945,94.851837 
	C162.973648,89.074318 156.495941,78.130264 155.703964,64.360832 
	C155.128616,54.357723 156.835190,44.209236 157.736801,34.144608 
	C157.981293,31.415401 159.401611,28.836510 162.672180,31.135817 
	C176.463379,40.831451 190.470764,57.532532 187.148575,80.107925 
z"/>
<path fill="#EC232A" opacity="1.000000" stroke="none" 
	d="
M221.870056,193.932526 
	C220.189423,201.832687 218.825195,209.351517 216.730072,216.660843 
	C215.371170,221.401733 213.219238,221.605499 209.732056,217.888077 
	C199.458359,206.936035 190.876831,194.996780 188.859253,179.581329 
	C187.726547,170.926788 190.183578,163.182648 195.471878,156.227295 
	C197.794846,153.172073 199.880447,152.959824 202.947815,155.285507 
	C215.629135,164.900543 222.127914,177.483307 221.870056,193.932526 
z"/>
<path fill="#EC232A" opacity="1.000000" stroke="none" 
	d="
M222.293488,120.419205 
	C242.373337,100.893990 267.336182,103.982864 287.642151,117.908524 
	C290.153412,119.630730 290.606232,121.610603 287.862701,123.352287 
	C274.070282,132.108154 259.699524,139.142822 242.641174,137.163391 
	C234.296341,136.195053 227.646606,132.011642 222.565491,125.474068 
	C221.731842,124.401443 222.201401,122.315948 222.293488,120.419205 
z"/>
<path fill="#EC232A" opacity="1.000000" stroke="none" 
	d="
M226.099396,70.093338 
	C221.138138,81.036293 213.200424,88.393394 202.787613,93.418617 
	C198.937424,95.276718 197.112610,94.156227 195.457855,90.613831 
	C190.656250,80.334869 191.345795,70.270012 196.538315,60.478039 
	C202.766724,48.732594 212.462982,40.199886 223.248703,32.808136 
	C226.353775,30.680138 228.135056,31.884029 228.751892,35.445080 
	C230.769318,47.091614 230.850052,58.584072 226.099396,70.093338 
z"/>
<path fill="#EC2329" opacity="1.000000" stroke="none" 
	d="
M223.152100,141.833221 
	C250.642715,142.432602 264.722992,161.623993 270.307251,183.447067 
	C271.041046,186.314758 269.924225,188.243103 266.744781,187.723129 
	C252.323868,185.364655 238.451981,181.469635 227.204697,171.481339 
	C220.438522,165.472565 216.862396,157.769104 216.509598,148.651215 
	C216.280624,142.733353 216.784271,142.167801 223.152100,141.833221 
z"/>
<path fill="#EC2329" opacity="1.000000" stroke="none" 
	d="
M155.057007,129.999069 
	C148.229156,138.988647 138.974945,143.355148 128.532043,143.594528 
	C118.313293,143.828781 108.041313,142.214417 97.811729,141.216370 
	C94.716652,140.914398 93.025345,139.046112 95.268944,136.077377 
	C106.786865,120.836884 120.970612,110.373116 141.239563,112.116447 
	C146.117661,112.535995 150.877869,114.399681 155.675049,115.664604 
	C159.902695,116.779358 160.918579,119.336678 158.848450,123.154846 
	C157.662338,125.342545 156.462463,127.522766 155.057007,129.999069 
z"/>
<path fill="#EC2329" opacity="1.000000" stroke="none" 
	d="
M149.253952,111.412674 
	C135.826645,110.556725 126.635658,103.008621 118.821251,93.638611 
	C114.383736,88.317734 110.877289,82.210014 107.068863,76.379997 
	C105.565292,74.078293 105.388428,71.585526 108.855515,71.208702 
	C130.887985,68.814087 154.281723,75.181839 164.250824,100.395355 
	C167.025192,107.412209 166.494644,108.476974 159.022720,110.226364 
	C155.977356,110.939369 152.793686,111.061607 149.253952,111.412674 
z"/>
<path fill="#0A6D3F" opacity="1.000000" stroke="none" 
	d="
M338.875854,261.832520 
	C344.212006,260.506805 349.149384,258.649414 354.190857,258.302002 
	C361.636383,257.788879 365.603516,262.864288 363.972351,270.220459 
	C362.106140,278.636719 357.272217,285.077576 349.356598,288.674103 
	C341.987061,292.022400 331.735962,287.825653 328.608948,280.593414 
	C325.277679,272.888733 328.552521,266.739441 338.875854,261.832520 
z"/>
<path fill="#EB282F" opacity="1.000000" stroke="none" 
	d="
M387.976013,444.084351 
	C389.289276,435.585541 394.980286,431.075897 402.073212,432.500092 
	C409.356567,433.962463 413.199432,440.300873 411.435852,447.942688 
	C410.297852,452.873627 412.565155,455.338501 417.337250,454.262024 
	C419.905640,457.203918 421.456299,460.432678 418.607880,463.938477 
	C417.722839,465.027740 415.791595,465.266968 413.709961,464.885223 
	C412.750977,466.199127 411.853149,467.563263 410.822357,468.818237 
	C406.497772,474.083374 399.314697,475.495300 393.234070,472.322693 
	C387.411255,469.284607 384.107971,461.963409 386.808746,455.762726 
	C388.497681,451.885132 388.783844,448.383057 387.976013,444.084351 
M394.942841,465.575531 
	C396.266663,466.210754 397.530762,467.152924 398.925354,467.424194 
	C403.276276,468.270599 410.223389,462.184448 408.291992,459.137085 
	C406.570404,456.420654 403.682098,453.735168 400.737823,452.760651 
	C398.891083,452.149353 395.332581,454.151337 393.716919,456.004883 
	C391.342316,458.729218 391.892822,462.196472 394.942841,465.575531 
M397.831573,446.182983 
	C400.250031,446.182983 402.668488,446.182983 405.054321,446.182983 
	C405.808014,442.297913 404.643921,439.408661 401.132446,439.099487 
	C399.145569,438.924530 396.479187,440.445374 395.037506,442.035370 
	C393.917114,443.271027 392.949005,446.387695 397.831573,446.182983 
z"/>
<path fill="#EC2A31" opacity="1.000000" stroke="none" 
	d="
M584.666626,443.053436 
	C584.672913,447.704102 584.786255,451.869232 584.647949,456.025970 
	C584.359985,464.678650 579.248901,471.293640 571.426636,473.359558 
	C563.396667,475.480347 555.496887,472.306458 551.192017,465.229858 
	C547.182617,458.638885 548.103394,449.689972 553.386169,443.905640 
	C558.793396,437.985077 567.031494,436.548309 574.895508,440.139252 
	C575.762695,440.535217 576.666138,440.851593 577.906982,441.346039 
	C578.056946,438.549774 578.186096,436.140808 578.334351,433.375824 
	C580.270325,433.288208 582.023376,433.208893 584.659729,433.089569 
	C584.659729,436.437134 584.659729,439.500610 584.666626,443.053436 
M561.724548,445.640747 
	C556.804443,448.563904 554.212402,452.697876 555.511841,458.526917 
	C556.534912,463.115814 559.410583,466.229401 564.095520,467.208527 
	C569.144165,468.263641 573.374939,466.631409 576.239319,462.321045 
	C578.986633,458.186768 578.862976,453.812866 576.148682,449.678802 
	C573.197083,445.183472 569.002380,443.949493 561.724548,445.640747 
z"/>
<path fill="#EC2A31" opacity="1.000000" stroke="none" 
	d="
M204.135132,473.151947 
	C193.283997,468.349976 188.886551,458.116882 193.246719,448.616241 
	C197.692078,438.929962 208.602539,435.575378 218.955521,440.698181 
	C219.375076,440.905762 219.864670,440.971802 220.824432,441.249023 
	C220.988434,438.688751 221.139847,436.324890 221.316910,433.560699 
	C223.240738,433.560699 225.124146,433.560699 227.022141,433.560699 
	C227.022141,442.486755 227.978134,451.674957 226.768250,460.568451 
	C225.406952,470.574799 215.431717,475.592010 204.135132,473.151947 
M202.099854,447.473877 
	C196.902878,453.510040 196.858505,460.163574 201.985214,464.657684 
	C206.363785,468.495941 213.331528,468.415070 217.493683,464.477722 
	C221.811844,460.392731 222.346725,453.747406 218.734116,449.066345 
	C214.900253,444.098663 208.987534,443.337158 202.099854,447.473877 
z"/>
<path fill="#EB272E" opacity="1.000000" stroke="none" 
	d="
M850.076477,463.008606 
	C849.938110,469.564758 850.994751,475.857269 846.406738,481.606964 
	C844.791931,480.727753 843.128906,479.822327 841.479004,478.924011 
	C842.239807,476.242584 842.924500,473.829346 843.857178,470.542206 
	C841.576355,471.551788 840.284363,472.167450 838.959839,472.702728 
	C831.792847,475.599213 823.535645,473.612030 818.567322,467.815948 
	C813.455627,461.852692 812.788574,453.001953 816.959595,446.486176 
	C821.221863,439.827850 829.330322,436.676178 836.900024,438.735596 
	C844.257263,440.737213 849.605164,447.324036 850.031006,455.046234 
	C850.167969,457.529755 850.067078,460.026459 850.076477,463.008606 
M839.779358,447.588745 
	C833.265991,443.011688 826.319580,443.953491 822.448120,449.938538 
	C818.991638,455.282013 820.832275,462.743835 826.413757,466.014893 
	C830.873047,468.628235 837.075073,467.706177 840.609131,463.904388 
	C844.596619,459.614838 844.527771,453.725800 839.779358,447.588745 
z"/>
<path fill="#EC2A31" opacity="1.000000" stroke="none" 
	d="
M744.278687,468.267670 
	C736.777283,475.540314 728.740967,475.446808 719.958618,470.657196 
	C719.802002,473.552765 719.672302,475.950623 719.525757,478.659302 
	C717.404907,478.659302 715.524353,478.659302 713.406433,478.659302 
	C713.406433,470.064636 712.946838,461.612000 713.543213,453.234558 
	C714.077515,445.728760 720.207153,439.960938 727.683472,438.470703 
	C735.097534,436.992889 742.307190,440.169495 746.493774,446.758575 
	C750.548645,453.140350 749.813904,461.138092 744.278687,468.267670 
M741.549866,451.183838 
	C739.056152,446.329926 734.965759,444.218872 729.668823,444.760742 
	C725.151001,445.222839 721.922424,447.872803 720.433472,452.106842 
	C718.895386,456.480591 719.634338,460.643585 722.969727,464.105438 
	C726.393799,467.659393 732.547424,468.553040 736.769653,466.146942 
	C741.579224,463.406097 743.351746,458.436890 741.549866,451.183838 
z"/>
<path fill="#EB272E" opacity="1.000000" stroke="none" 
	d="
M463.904083,447.017090 
	C469.716248,439.081238 476.937408,436.427490 484.922791,439.046814 
	C492.699982,441.597748 497.144989,448.010925 497.277496,457.036224 
	C497.353088,462.186279 497.291168,467.338379 497.291168,473.318756 
	C494.592468,472.820343 492.346313,472.405518 488.677246,471.727905 
	C479.997009,475.631683 472.706696,474.870911 466.501892,468.524658 
	C460.878326,462.772888 459.883423,455.212738 463.904083,447.017090 
M486.334106,446.937561 
	C479.520447,443.242584 473.187042,444.356750 469.639008,449.874512 
	C466.461365,454.816284 467.633148,461.357056 472.365692,465.094604 
	C476.966034,468.727722 483.712433,468.213623 487.767151,463.920990 
	C492.260956,459.163513 491.943878,452.908936 486.334106,446.937561 
z"/>
<path fill="#EB282F" opacity="1.000000" stroke="none" 
	d="
M671.163086,464.659515 
	C667.089294,454.565186 669.623474,445.647583 677.668396,440.778229 
	C685.328125,436.141968 694.878052,437.433502 700.578064,444.556305 
	C702.734253,447.250854 704.302307,450.981964 704.685852,454.403442 
	C705.346252,460.294495 704.868713,466.313141 704.868713,473.327271 
	C702.497009,472.776215 700.507263,472.246704 698.488464,471.874908 
	C697.565735,471.705017 696.468079,471.556519 695.649658,471.889587 
	C685.205688,476.139801 677.973450,474.117310 671.163086,464.659515 
M697.895203,452.284454 
	C695.771790,447.413940 692.205872,444.589691 686.745850,444.712372 
	C681.999207,444.819000 678.469971,447.052490 676.593567,451.445953 
	C674.651489,455.993134 675.395386,460.250824 678.701172,463.949158 
	C681.826233,467.445282 687.124878,468.516876 691.509766,466.661377 
	C696.790161,464.426941 698.700562,460.491913 697.895203,452.284454 
z"/>
<path fill="#EB2930" opacity="1.000000" stroke="none" 
	d="
M262.144775,440.736328 
	C270.391968,447.217712 272.804504,455.536041 269.097626,463.745361 
	C265.943268,470.731018 257.997345,475.104034 250.245514,473.812134 
	C242.909119,472.589417 237.704422,468.436127 235.670288,461.201996 
	C233.609863,453.874390 235.318604,447.241455 241.348694,442.331451 
	C247.653534,437.197662 254.612198,436.744476 262.144775,440.736328 
M264.176208,456.413208 
	C263.670593,449.844940 260.214020,445.599182 254.738037,444.820068 
	C248.058151,443.869659 242.410919,448.010681 241.424667,454.582489 
	C240.573151,460.256439 244.674423,466.157043 250.227356,467.247009 
	C257.246887,468.624847 262.507263,464.839569 264.176208,456.413208 
z"/>
<path fill="#EB2930" opacity="1.000000" stroke="none" 
	d="
M312.885864,454.299591 
	C313.204742,463.105774 309.521942,469.314575 301.942352,472.591370 
	C295.381927,475.427551 288.898865,474.490387 283.332672,469.641663 
	C277.463379,464.528992 275.796082,458.127350 277.893158,450.728485 
	C279.979187,443.368713 287.231018,438.105316 295.122589,438.092102 
	C302.632904,438.079529 309.835876,443.360077 312.009216,450.499023 
	C312.346649,451.607452 312.576569,452.748627 312.885864,454.299591 
M292.114319,445.001953 
	C285.871185,447.453369 283.077698,451.566040 283.681549,457.416992 
	C284.193695,462.379089 287.960999,466.484741 292.772400,467.284454 
	C297.433838,468.059143 301.410614,466.739655 304.208649,462.903687 
	C306.989136,459.091705 307.216614,454.779938 305.025482,450.678986 
	C302.493134,445.939392 298.250153,444.116302 292.114319,445.001953 
z"/>
<path fill="#EB2930" opacity="1.000000" stroke="none" 
	d="
M593.756836,454.075287 
	C590.085022,445.831696 593.619629,439.368256 602.211243,438.340485 
	C609.577454,437.459259 615.460693,440.176880 619.843933,446.574371 
	C618.319031,447.858276 616.947021,449.013397 616.088745,449.736023 
	C612.299866,447.932770 609.063477,446.050415 605.585266,444.897308 
	C604.093384,444.402710 601.949463,445.116516 600.390137,445.874481 
	C599.485107,446.314453 598.429138,448.242004 598.731262,448.947479 
	C599.189392,450.016907 600.717896,451.161163 601.886963,451.272430 
	C603.817200,451.456055 605.816711,450.772064 607.799072,450.575165 
	C613.712646,449.987762 618.847595,453.517548 620.197083,459.033752 
	C621.627258,464.879822 619.091614,470.098602 613.624268,472.561493 
	C606.105469,475.948517 597.599487,473.435577 591.715027,465.684479 
	C593.033386,464.470062 594.418152,463.194519 594.832886,462.812469 
	C599.604797,464.564056 603.369080,466.707123 607.339172,467.203125 
	C611.911621,467.774384 614.705566,464.736603 613.986450,461.244324 
	C613.079285,456.839050 609.822144,456.492432 606.270935,457.369965 
	C601.599304,458.524323 597.360352,458.385651 593.756836,454.075287 
z"/>
<path fill="#EB2930" opacity="1.000000" stroke="none" 
	d="
M657.303223,457.203979 
	C659.216064,457.631866 660.760864,458.123047 662.271729,458.603485 
	C660.587524,468.521759 652.906250,474.660675 643.313843,473.946869 
	C633.944580,473.249634 626.858887,465.422913 626.940063,455.860718 
	C627.018494,446.621368 634.287048,438.751862 643.249695,438.202606 
	C653.030762,437.603210 660.770203,443.745758 662.272461,453.618042 
	C660.640930,454.115143 658.958130,454.627899 656.968689,455.234039 
	C656.419495,454.013947 655.957581,453.021332 655.523010,452.016937 
	C653.141357,446.512146 647.882568,443.718475 642.197632,444.945770 
	C637.466553,445.967133 633.467346,450.802490 633.280640,455.727142 
	C633.089355,460.772430 637.078308,466.028259 641.969727,467.175873 
	C647.739746,468.529663 652.784180,465.939423 655.408630,460.293945 
	C655.884705,459.269836 656.424683,458.275421 657.303223,457.203979 
z"/>
<path fill="#EC282F" opacity="1.000000" stroke="none" 
	d="
M777.507874,469.618896 
	C777.628723,475.128510 773.903503,472.245117 770.698303,473.585297 
	C771.156189,465.284668 770.765930,457.615723 772.202454,450.305756 
	C773.756958,442.395752 782.115479,437.605499 790.598450,438.196869 
	C798.324036,438.735413 805.534302,444.622467 806.410828,452.389496 
	C807.164001,459.063690 806.566895,465.890259 806.566895,472.848389 
	C804.599976,472.848389 802.825867,472.848389 800.460266,472.848389 
	C800.460266,467.636475 800.515991,462.526489 800.447144,457.418213 
	C800.344788,449.828766 795.986938,444.866608 789.378418,444.688507 
	C782.483765,444.502686 777.810913,449.385162 777.560059,457.194336 
	C777.432068,461.179688 777.516663,465.171875 777.507874,469.618896 
z"/>
<path fill="#EC242B" opacity="1.000000" stroke="none" 
	d="
M165.264130,444.725616 
	C157.966019,446.651123 155.136154,450.199890 155.023834,457.164734 
	C154.943466,462.147675 154.919556,467.131531 154.854416,472.114777 
	C154.852676,472.248718 154.666412,472.380219 154.365082,472.779053 
	C152.815018,472.779053 151.058899,472.779053 149.231995,472.779053 
	C149.231995,465.565186 148.536621,458.259888 149.422836,451.151825 
	C150.354050,443.682831 158.718262,438.046722 166.724930,438.140503 
	C174.972168,438.237091 182.929123,444.225067 183.787750,452.093964 
	C184.519226,458.797424 183.938889,465.643982 183.938889,472.722778 
	C182.187866,472.722778 180.313492,472.722778 178.003555,472.722778 
	C178.003555,467.611023 178.033508,462.658081 177.996872,457.705658 
	C177.934677,449.297638 174.016083,445.179291 165.264130,444.725616 
z"/>
<path fill="#EB242B" opacity="1.000000" stroke="none" 
	d="
M520.627808,444.982544 
	C514.235168,447.229309 511.841614,451.647888 511.998535,457.830078 
	C512.123901,462.768036 512.023865,467.711670 512.023865,472.834503 
	C509.691864,472.834503 507.919739,472.834503 506.065796,472.834503 
	C506.065796,465.734406 505.486206,458.738983 506.220093,451.884125 
	C507.041962,444.207825 515.385071,438.100616 523.493958,438.142944 
	C531.794922,438.186279 539.849182,444.035431 540.749207,451.872559 
	C541.535522,458.719696 540.913147,465.728607 540.913147,472.856689 
	C539.199707,472.856689 537.403870,472.856689 534.994446,472.856689 
	C534.994446,467.900360 535.014954,462.964203 534.990051,458.028259 
	C534.942627,448.633026 530.374207,444.346832 520.627808,444.982544 
z"/>
<path fill="#EC2C34" opacity="1.000000" stroke="none" 
	d="
M320.145691,459.124695 
	C319.010742,443.764862 332.461670,435.331818 343.249023,438.925964 
	C350.176605,441.234070 354.286682,445.907776 355.880432,453.602234 
	C353.927246,454.161255 352.121857,454.677948 350.105682,455.255005 
	C349.520264,453.859406 349.101868,452.816956 348.648865,451.789795 
	C346.431580,446.762268 341.312866,443.923950 336.138947,444.842468 
	C330.852142,445.781006 327.010162,450.026093 326.808502,455.657684 
	C326.607147,461.280151 326.764343,466.915436 326.764343,472.796051 
	C324.472717,472.796051 322.703125,472.796051 320.144623,472.796051 
	C320.144623,468.427307 320.144623,464.014465 320.145691,459.124695 
z"/>
<path fill="#ED2F37" opacity="1.000000" stroke="none" 
	d="
M759.085083,473.063843 
	C757.834290,472.117279 756.359802,471.189240 756.339111,470.229858 
	C756.098999,459.090057 755.959534,447.943451 756.158020,436.805115 
	C756.181458,435.491913 758.378906,434.217499 759.568542,432.925049 
	C760.751709,434.209717 762.937927,435.477112 762.960388,436.781769 
	C763.152100,447.920258 763.034302,459.067780 762.724365,470.204651 
	C762.696960,471.187866 760.647156,472.114746 759.085083,473.063843 
z"/>
<path fill="#EB2028" opacity="1.000000" stroke="none" 
	d="
M140.242889,468.858154 
	C140.756668,474.893799 136.883270,472.474396 133.901108,473.256409 
	C133.901108,462.952545 133.916946,453.336151 133.888962,443.719910 
	C133.882690,441.561096 133.243607,439.272125 133.784637,437.285095 
	C134.224716,435.668762 135.994385,434.414459 137.174438,432.999603 
	C138.310257,434.474823 140.401978,435.933350 140.428024,437.427887 
	C140.607651,447.739624 140.356308,458.058868 140.242889,468.858154 
z"/>
<path fill="#EB2028" opacity="1.000000" stroke="none" 
	d="
M454.088837,446.011505 
	C454.088837,455.118713 454.088837,463.727509 454.088837,472.794220 
	C452.086487,472.896240 450.350067,472.984711 448.179871,473.095276 
	C448.179871,459.852417 448.179871,446.850342 448.179871,433.439911 
	C449.810150,433.338470 451.550903,433.230194 454.088837,433.072296 
	C454.088837,437.371704 454.088837,441.442413 454.088837,446.011505 
z"/>
<path fill="#217246" opacity="1.000000" stroke="none" 
	d="
M258.883179,78.284973 
	C257.326324,77.113213 256.103577,75.892555 254.880844,74.671898 
	C255.930359,73.624031 256.848267,71.988892 258.071198,71.714851 
	C259.042603,71.497169 261.447876,73.106659 261.369049,73.622833 
	C261.123291,75.232574 260.000244,76.708359 258.883179,78.284973 
z"/>
<path fill="#ED2F37" opacity="1.000000" stroke="none" 
	d="
M251.953278,88.101387 
	C252.077713,87.826706 252.236771,87.562202 252.320923,87.275688 
	C252.824463,85.561066 252.996613,83.613121 253.983566,82.254662 
	C254.303009,81.814987 257.029297,82.568558 258.105530,83.448151 
	C258.724121,83.953728 258.558624,86.772087 258.201691,86.889130 
	C256.434601,87.468567 254.486069,87.494545 252.289398,87.864487 
	C251.977295,88.013344 251.953278,88.101387 251.953278,88.101387 
z"/>
<path fill="#217246" opacity="1.000000" stroke="none" 
	d="
M230.369949,85.848633 
	C230.273697,85.129410 229.885895,84.281418 230.135986,83.715157 
	C230.877960,82.035118 231.871292,80.466087 232.766327,78.853645 
	C234.107178,79.978600 235.448029,81.103554 236.788879,82.228500 
	C235.331741,83.375710 233.905502,84.567322 232.385956,85.624847 
	C232.142990,85.793922 231.481995,85.362343 230.631683,85.487091 
	C230.249115,85.765747 230.369949,85.848633 230.369949,85.848633 
z"/>
<path fill="#EC2329" opacity="1.000000" stroke="none" 
	d="
M243.016174,78.017593 
	C242.083084,78.072304 240.985428,78.428017 240.210892,78.074944 
	C238.649338,77.363098 237.263535,76.265701 235.805222,75.327347 
	C236.815628,74.064545 237.826035,72.801743 238.836456,71.538940 
	C240.089828,72.756218 241.475189,73.872948 242.522263,75.247391 
	C242.870499,75.704483 242.350815,76.822784 242.633636,77.835175 
	C243.039352,78.031555 242.997818,77.997932 243.016174,78.017593 
z"/>
<path fill="#EC2C34" opacity="1.000000" stroke="none" 
	d="
M255.190765,64.098450 
	C254.801498,66.009026 254.468719,67.837334 253.450485,69.122635 
	C253.130692,69.526306 250.436020,68.855583 249.799591,67.974838 
	C249.160858,67.090889 249.378479,64.302444 249.839554,64.143494 
	C251.406372,63.603348 253.246597,63.856312 255.190765,64.098450 
z"/>
<path fill="#ED2F37" opacity="1.000000" stroke="none" 
	d="
M230.011719,85.733833 
	C230.369949,85.848633 230.249115,85.765747 230.245117,85.725296 
	C230.300903,87.225594 230.360687,88.766350 230.718201,90.687012 
	C231.015930,91.066917 230.993149,91.007759 231.020294,91.022568 
	C230.526291,90.993805 230.003860,90.961990 229.484253,90.904442 
	C227.894760,90.728409 226.033813,90.967072 224.825897,90.191643 
	C224.164566,89.767105 224.142776,86.676392 224.639694,86.432541 
	C226.093826,85.718918 227.953018,85.830681 230.011719,85.733833 
z"/>
<path fill="#217246" opacity="1.000000" stroke="none" 
	d="
M246.948273,65.315590 
	C245.871597,66.971268 244.898193,68.649315 243.448288,69.373962 
	C242.933441,69.631279 240.721863,67.752342 240.298935,66.504822 
	C240.003082,65.632164 241.485458,63.145336 242.075119,63.177639 
	C243.699036,63.266609 245.271103,64.301445 246.948273,65.315590 
z"/>
<path fill="#0A6D3F" opacity="1.000000" stroke="none" 
	d="
M251.932861,88.023849 
	C250.566879,90.407333 252.449554,95.237282 246.531250,94.251945 
	C245.871445,93.799904 245.663300,93.527702 245.304443,92.892700 
	C245.447144,91.101555 245.740585,89.673218 246.034027,88.244873 
	C247.803619,88.452812 249.573227,88.660751 251.648056,88.485039 
	C251.953278,88.101387 251.977295,88.013344 251.932861,88.023849 
z"/>
<path fill="#EC2C34" opacity="1.000000" stroke="none" 
	d="
M245.455170,93.255516 
	C245.663300,93.527702 245.871445,93.799904 246.131866,94.184669 
	C247.351669,96.762573 247.663864,99.437141 244.503677,100.057571 
	C243.281281,100.297562 241.538193,97.885414 240.323303,96.157959 
	C240.724335,95.067375 240.834381,94.500343 240.944427,93.933311 
	C240.944427,93.933311 241.002380,93.995239 241.345169,94.072403 
	C242.943695,93.851555 244.199417,93.553535 245.455170,93.255516 
z"/>
<path fill="#C8D6CB" opacity="1.000000" stroke="none" 
	d="
M245.304443,92.892708 
	C244.199417,93.553535 242.943695,93.851555 241.311707,94.046921 
	C242.333740,91.614258 243.731995,89.284241 245.427704,86.792740 
	C245.794434,86.896782 245.863708,87.162300 245.983521,87.836349 
	C245.740585,89.673218 245.447144,91.101555 245.304443,92.892708 
z"/>
<path fill="#C8D6CB" opacity="1.000000" stroke="none" 
	d="
M240.654861,93.743011 
	C240.834381,94.500343 240.724335,95.067375 240.347992,95.792786 
	C239.853165,95.923828 239.624619,95.896500 239.067734,95.762375 
	C239.281357,94.954620 239.823334,94.253662 240.654861,93.743011 
z"/>
<path fill="#C8D6CB" opacity="1.000000" stroke="none" 
	d="
M236.794907,98.087097 
	C236.783218,97.719765 237.027435,97.305710 237.522247,96.831558 
	C237.532166,97.194435 237.291504,97.617409 236.794907,98.087097 
z"/>
<path fill="#C8D6CB" opacity="1.000000" stroke="none" 
	d="
M238.028885,96.701157 
	C237.905685,96.465363 238.035156,96.162979 238.409943,95.789833 
	C238.530685,96.024239 238.406128,96.329407 238.028885,96.701157 
z"/>
<path fill="#F2F8F5" opacity="1.000000" stroke="none" 
	d="
M494.373535,331.843994 
	C498.412567,323.508392 504.911285,318.717865 513.251709,316.287964 
	C516.748474,315.269196 519.975159,315.750763 521.702515,319.456207 
	C523.486877,323.284119 520.470459,324.948303 517.970215,326.468811 
	C511.030212,330.689301 503.977539,334.724915 496.952972,338.805328 
	C496.279694,339.196411 495.491211,339.389191 494.226349,339.879333 
	C494.226349,337.013489 494.226349,334.615723 494.373535,331.843994 
z"/>
<path fill="#F1F7F4" opacity="1.000000" stroke="none" 
	d="
M809.484314,334.466583 
	C806.004395,336.410156 802.835632,338.159973 798.908020,340.328827 
	C798.723633,337.693359 798.281433,335.752289 798.510864,333.894135 
	C799.490051,325.963135 813.406372,314.886383 821.356140,316.083130 
	C823.336609,316.381256 825.513672,318.626099 826.547852,320.543732 
	C827.042236,321.460510 825.490906,324.293396 824.148132,325.240387 
	C819.535095,328.493896 814.604797,331.297638 809.484314,334.466583 
z"/>
<path fill="#F2F8F5" opacity="1.000000" stroke="none" 
	d="
M732.820801,318.231934 
	C735.300293,321.367676 734.122009,323.651031 731.598022,325.235657 
	C723.501770,330.318787 715.296021,335.227539 707.132507,340.203552 
	C706.569580,339.880066 706.006714,339.556549 705.443848,339.233063 
	C706.149597,335.884247 706.098083,332.103516 707.712341,329.272797 
	C711.554565,322.535522 717.662964,318.089600 725.271667,316.419525 
	C727.483826,315.933960 730.118225,317.372101 732.820801,318.231934 
z"/>
<path fill="#F7FBF9" opacity="1.000000" stroke="none" 
	d="
M202.879562,345.905273 
	C198.004196,349.338104 193.402786,352.541962 188.801392,355.745789 
	C188.482803,355.480103 188.164215,355.214386 187.845642,354.948700 
	C194.961182,339.768036 202.076721,324.587372 209.192261,309.406708 
	C208.851395,309.171844 208.510513,308.937012 208.169647,308.702148 
	C196.705017,320.612732 185.240372,332.523346 173.775726,344.433929 
	C173.415985,344.326141 173.056244,344.218384 172.696503,344.110596 
	C174.125458,337.821991 175.245575,331.443298 177.047882,325.263611 
	C180.759613,312.536926 185.703384,300.393860 195.728271,291.073578 
	C200.415054,286.716248 205.951828,284.296295 212.324783,283.849091 
	C222.845276,283.110931 228.518234,288.287048 229.048096,298.930176 
	C229.731339,312.653931 223.784256,323.803986 215.242218,333.787476 
	C211.581467,338.065979 207.204865,341.731995 202.879562,345.905273 
z"/>
<path fill="#EAF3EE" opacity="1.000000" stroke="none" 
	d="
M184.444443,110.379974 
	C187.398956,109.292694 189.998535,107.934601 192.705399,107.668777 
	C195.955673,107.349586 197.346741,109.913635 194.999008,111.984512 
	C191.768799,114.833801 187.705963,116.835045 183.771851,118.725021 
	C182.749954,119.215942 180.880081,117.941696 179.399689,117.478226 
	C179.941650,116.004616 180.256546,114.381760 181.096390,113.103943 
	C181.786331,112.054245 183.099899,111.414452 184.444443,110.379974 
z"/>
<path fill="#FAF2F2" opacity="1.000000" stroke="none" 
	d="
M394.673035,465.314484 
	C391.892822,462.196472 391.342316,458.729218 393.716919,456.004883 
	C395.332581,454.151337 398.891083,452.149353 400.737823,452.760651 
	C403.682098,453.735168 406.570404,456.420654 408.291992,459.137085 
	C410.223389,462.184448 403.276276,468.270599 398.925354,467.424194 
	C397.530762,467.152924 396.266663,466.210754 394.673035,465.314484 
z"/>
<path fill="#FAF2F2" opacity="1.000000" stroke="none" 
	d="
M397.388733,446.251343 
	C392.949005,446.387695 393.917114,443.271027 395.037506,442.035370 
	C396.479187,440.445374 399.145569,438.924530 401.132446,439.099487 
	C404.643921,439.408661 405.808014,442.297913 405.054321,446.182983 
	C402.668488,446.182983 400.250031,446.182983 397.388733,446.251343 
z"/>
<path fill="#FCF7F7" opacity="1.000000" stroke="none" 
	d="
M562.109253,445.514404 
	C569.002380,443.949493 573.197083,445.183472 576.148682,449.678802 
	C578.862976,453.812866 578.986633,458.186768 576.239319,462.321045 
	C573.374939,466.631409 569.144165,468.263641 564.095520,467.208527 
	C559.410583,466.229401 556.534912,463.115814 555.511841,458.526917 
	C554.212402,452.697876 556.804443,448.563904 562.109253,445.514404 
z"/>
<path fill="#FCF7F7" opacity="1.000000" stroke="none" 
	d="
M202.409729,447.238861 
	C208.987534,443.337158 214.900253,444.098663 218.734116,449.066345 
	C222.346725,453.747406 221.811844,460.392731 217.493683,464.477722 
	C213.331528,468.415070 206.363785,468.495941 201.985214,464.657684 
	C196.858505,460.163574 196.902878,453.510040 202.409729,447.238861 
z"/>
<path fill="#FCF7F7" opacity="1.000000" stroke="none" 
	d="
M840.101318,447.799133 
	C844.527771,453.725800 844.596619,459.614838 840.609131,463.904388 
	C837.075073,467.706177 830.873047,468.628235 826.413757,466.014893 
	C820.832275,462.743835 818.991638,455.282013 822.448120,449.938538 
	C826.319580,443.953491 833.265991,443.011688 840.101318,447.799133 
z"/>
<path fill="#FCF7F7" opacity="1.000000" stroke="none" 
	d="
M741.702820,451.536011 
	C743.351746,458.436890 741.579224,463.406097 736.769653,466.146942 
	C732.547424,468.553040 726.393799,467.659393 722.969727,464.105438 
	C719.634338,460.643585 718.895386,456.480591 720.433472,452.106842 
	C721.922424,447.872803 725.151001,445.222839 729.668823,444.760742 
	C734.965759,444.218872 739.056152,446.329926 741.702820,451.536011 
z"/>
<path fill="#FCF7F7" opacity="1.000000" stroke="none" 
	d="
M486.632843,447.187897 
	C491.943878,452.908936 492.260956,459.163513 487.767151,463.920990 
	C483.712433,468.213623 476.966034,468.727722 472.365692,465.094604 
	C467.633148,461.357056 466.461365,454.816284 469.639008,449.874512 
	C473.187042,444.356750 479.520447,443.242584 486.632843,447.187897 
z"/>
<path fill="#FCF7F7" opacity="1.000000" stroke="none" 
	d="
M697.997437,452.685883 
	C698.700562,460.491913 696.790161,464.426941 691.509766,466.661377 
	C687.124878,468.516876 681.826233,467.445282 678.701172,463.949158 
	C675.395386,460.250824 674.651489,455.993134 676.593567,451.445953 
	C678.469971,447.052490 681.999207,444.819000 686.745850,444.712372 
	C692.205872,444.589691 695.771790,447.413940 697.997437,452.685883 
z"/>
<path fill="#FCF7F7" opacity="1.000000" stroke="none" 
	d="
M264.153625,456.827728 
	C262.507263,464.839569 257.246887,468.624847 250.227356,467.247009 
	C244.674423,466.157043 240.573151,460.256439 241.424667,454.582489 
	C242.410919,448.010681 248.058151,443.869659 254.738037,444.820068 
	C260.214020,445.599182 263.670593,449.844940 264.153625,456.827728 
z"/>
<path fill="#FCF7F7" opacity="1.000000" stroke="none" 
	d="
M292.521637,444.915161 
	C298.250153,444.116302 302.493134,445.939392 305.025482,450.678986 
	C307.216614,454.779938 306.989136,459.091705 304.208649,462.903687 
	C301.410614,466.739655 297.433838,468.059143 292.772400,467.284454 
	C287.960999,466.484741 284.193695,462.379089 283.681549,457.416992 
	C283.077698,451.566040 285.871185,447.453369 292.521637,444.915161 
z"/>
</svg>