<?xml version="1.0" encoding="UTF-8" standalone="no" ?>
<!DOCTYPE svg PUBLIC "-//W3C//DTD SVG 1.1//EN" "http://www.w3.org/Graphics/SVG/1.1/DTD/svg11.dtd">
<svg xmlns="http://www.w3.org/2000/svg" xmlns:xlink="http://www.w3.org/1999/xlink" version="1.1" width="1280" height="1024" viewBox="0 0 1280 1024" xml:space="preserve">
<desc>Created with Fabric.js 5.3.0</desc>
<defs>
</defs>
<g transform="matrix(1 0 0 1 640 512)" id="background-logo"  >
<rect style="stroke: none; stroke-width: 0; stroke-dasharray: none; stroke-linecap: butt; stroke-dashoffset: 0; stroke-linejoin: miter; stroke-miterlimit: 4; fill: rgb(26,121,126); fill-rule: nonzero; opacity: 1;"  paint-order="stroke"  x="-640" y="-512" rx="0" ry="0" width="1280" height="1024" />
</g>
<g transform="matrix(3.6650752107539 0 0 3.6650752107539 621.1690567711415 431.648056231357)" id="logo-logo"  >
<g style=""  paint-order="stroke"   >
		<g transform="matrix(0.48676323054582266 0 0 0.48676323054582266 -13.633626206702559 16.82299212636093)"  >
<linearGradient id="SVGID_4_992454" gradientUnits="userSpaceOnUse" gradientTransform="matrix(1 0 0 1 433.7489933774426 394.7278861904605)"  x1="0" y1="0" x2="0" y2="125">
<stop offset="0%" style="stop-color:rgb(250,217,97);stop-opacity: 1"/>
<stop offset="100%" style="stop-color:rgb(247,107,28);stop-opacity: 1"/>
</linearGradient>
<path style="stroke: none; stroke-width: 1; stroke-dasharray: none; stroke-linecap: butt; stroke-dashoffset: 0; stroke-linejoin: miter; stroke-miterlimit: 4; fill: url(#SVGID_4_992454); fill-rule: nonzero; opacity: 1;"  paint-order="stroke"  transform=" translate(-502.6461056635037, -457.37992709683283)" d="M 571.5432129 513.9475708 C 571.5432129 513.9475708 571.5712891 509.2065125 567.4403686999999 506.15707399999997 C 566.4581298999999 505.4319458 565.0667725 505.50854489999995 563.8193969999999 505.4520874 C 559.6483154999999 505.26342769999997 555.0720214999999 504.53454589999996 551.5672607999999 502.3028564 C 551.8031005999999 501.8088684 551.9213867999998 501.2894592 551.7909545999998 500.7664489 C 551.6466674999998 500.1882018 551.2229613999998 499.7160339 550.8145751999998 499.2660522 C 542.3187255999998 489.9023132 534.7750243999998 479.7632751 528.3207397999998 469.0328369 C 526.4102783999998 465.85684200000003 524.5672607999999 462.5921326 521.9367675999998 459.9188232 C 519.3064574999999 457.245697 515.7294311999998 455.1837463 511.8601684999998 455.1414489 L 509.9470519999998 455.6456603 C 509.1164855999998 456.12533559999997 508.3166808999998 456.64645379999996 507.4979247999998 457.14196769999995 L 515.1547851999998 449.5295715 L 510.37216189999975 431.4751892 L 507.92724609999976 431.4751892 L 510.29800419999975 443.9743347 L 490.05508429999975 435.641571 L 475.9411621999997 454.7054443 C 473.9064331999997 453.2633667 471.5358581999997 452.1059875 469.3436584999997 450.8761291 C 467.1057739999997 449.6204833 464.88354499999974 447.91674800000004 463.44720459999974 445.90017700000004 C 463.35653689999975 445.73214720000004 463.2491454999997 445.5728149 463.1700744999997 445.3984985 C 462.6602477999997 444.27453610000003 462.4655151999997 443.1048889 462.4625244999997 441.9178466 C 465.0162353999997 442.5523986 467.75268559999967 442.4227599 470.0063782999997 440.8442077 C 473.2303467999997 438.58593740000003 477.1383057999997 434.40402220000004 476.9511414999997 430.47268670000005 C 476.90863049999973 429.58123770000003 476.31585709999973 427.14367670000007 476.3351746999997 426.25051870000004 C 476.3599549999997 425.11926260000007 476.8058167999997 424.0292357 477.1495667999997 422.9363402 C 478.6303406999997 418.22683700000005 478.4268494999997 414.2602233 476.29528819999973 410.18438710000004 C 478.6488037999997 407.44012440000006 479.87619029999973 403.77899160000004 479.4881592999997 400.2881163 C 479.31732189999974 398.7517088 477.6709900999997 397.6787718 476.11270149999973 398.14904770000004 C 474.83047489999973 398.53610210000005 473.3523254999997 398.5133971 472.03637699999973 398.19732650000003 C 469.78021239999975 397.6553953 467.7808227999997 396.4386595 465.6128540999997 395.63983140000005 C 458.7148743999997 393.09771710000007 450.45538339999973 396.1101378000001 445.9240723999997 401.70391830000005 C 445.4894715999997 402.24038680000007 444.8271180999997 402.56414780000006 444.1213379999997 402.6588133000001 C 441.4590454999997 403.01565530000005 439.1512146999997 405.0093992000001 437.7589722999997 407.2654722000001 C 435.0481873999997 411.6580198000001 434.9601441999997 417.3867491000001 437.5354309999997 421.8241880000001 C 438.4631653999997 423.4226682000001 439.6928406999997 424.8345640000001 440.9834900999997 426.1945798000001 L 440.9833069999997 426.1947324000001 C 440.9961243999997 426.20803810000007 441.00808729999966 426.22033660000005 441.0209046999997 426.2334592000001 C 441.3966370999997 426.6286924000001 441.7762452999997 427.0206906000001 442.15600599999965 427.4104612000001 L 442.40066539999964 427.6613767000001 C 444.70214859999965 430.0643308000001 446.47976699999964 432.1861570000001 446.5574646999996 434.6629636000001 C 446.58047499999964 435.3962705000001 446.5066528999996 436.1425473000001 446.6894226999996 436.8545530000001 C 446.94708259999965 437.85772680000014 447.70715339999964 438.67153910000013 448.6150207999996 439.25457740000013 C 447.7326354999996 441.0715940000001 446.6571044999996 442.7888181000001 445.36242679999964 444.4028318000001 C 445.13061529999965 444.6917722000001 444.88247679999967 445.0134885000001 444.63415529999963 445.3365781000001 C 440.98751829999964 447.4819333000001 436.4507751999996 451.4989011000001 434.93026739999965 455.4843137000001 C 433.25842289999963 459.86630220000006 433.49163819999967 466.0877988000001 434.81497199999967 469.83132910000006 C 435.3536072999997 471.35510230000006 436.1064758999997 472.7930906000001 436.93615729999965 474.19577000000004 C 437.1570739999996 484.36138890000007 435.82827769999966 492.72708100000006 434.69546519999966 503.01415990000004 C 434.6322022999997 503.58764620000005 434.5782471999997 504.19714330000005 434.8497620999997 504.71160860000003 C 435.2998352999997 505.56448340000003 436.4340821999997 505.82171600000004 437.43035899999967 505.9699704 C 437.97937019999966 506.051666 438.53399669999965 506.0950009 439.08459479999965 506.1674802 C 440.32586679999963 510.499664 444.55541999999963 515.2173459 449.32537849999966 517.3777463 C 459.22766119999966 521.8626096 465.55697639999966 519.9406735 471.48507699999965 516.9229734 C 475.35260019999964 514.9543455 479.23559579999966 513.3944089 482.7646484999996 511.2756345 C 485.9011230999996 509.70614600000005 488.87182619999965 507.9565122 491.43307499999963 505.41882300000003 C 497.10705569999965 499.7965391 504.12438969999965 489.15225200000003 508.31652839999964 482.4087827 C 516.8636474999996 493.5873105 530.7289429999996 500.5358274 538.6638183999996 512.1444089 C 539.3982543999996 511.78701750000005 540.1068115999997 511.38430760000006 540.8027343999996 510.96331760000004 C 541.7637328999996 513.3812864 541.8320922999997 515.4365842000001 542.2946166999997 515.6072995000001 C 542.9290770999996 515.8414914000001 567.8053588999996 515.8188474000001 568.4670409999997 515.8188474000001 C 568.4670409999997 515.8188474000001 568.4587401999996 515.0490110000001 568.2016600999997 513.9477536 C 570.1005249 513.9484253 571.401001 513.9475708 571.5432129 513.9475708 z" stroke-linecap="round" />
</g>
		<g transform="matrix(0.48676323054582266 0 0 0.48676323054582266 33.470448017664864 20.517694806422014)"  >
<linearGradient id="SVGID_4_992455" gradientUnits="userSpaceOnUse" gradientTransform="matrix(1 0 0 1 505.1755195536982 321.0892334)"  x1="0" y1="0" x2="0" y2="288">
<stop offset="0%" style="stop-color:rgb(250,217,97);stop-opacity: 1"/>
<stop offset="100%" style="stop-color:rgb(247,107,28);stop-opacity: 1"/>
</linearGradient>
<path style="stroke: none; stroke-width: 1; stroke-dasharray: none; stroke-linecap: butt; stroke-dashoffset: 0; stroke-linejoin: miter; stroke-miterlimit: 4; fill: url(#SVGID_4_992455); fill-rule: nonzero; opacity: 1;"  paint-order="stroke"  transform=" translate(-599.4160982768492, -464.97027585)" d="M 635.8428955 321.0892334 C 640.0582275 337.55026250000003 639.4979248000001 355.2920227 633.7618408000001 371.2995605 C 629.4932251 383.19836419999996 622.4765625000001 394.7505188 623.1969604000001 407.3697509 C 623.7038574000001 416.8143005 628.5327758000001 425.4049377 633.5485229000001 433.4086913 C 638.6093139000001 441.5109862 644.6286010000001 446.89257799999996 651.9184570000001 454.6294555 C 653.4340210000001 456.237976 653.7993774000001 458.6238708 652.8111572000001 460.6005554 C 650.5576172000001 465.1083679 646.0507812000002 468.5100403 641.2054443000002 470.252716 C 635.1491699000002 472.41372670000004 628.5327758000002 472.41372670000004 622.0762939000002 472.41372670000004 C 624.6108398000002 477.21594230000005 627.1721191000003 482.3917235 626.7451782000002 487.80767810000003 C 626.3183594000002 493.2234801 621.1159057000002 496.9319457 616.2869873000002 497.8658141 C 619.0083008000001 499.8133239 625.6513672000002 503.8686217 622.2897949000002 511.9256591 C 620.1554565000001 517.074707 612.1250000000002 517.5551147 608.3632812000002 521.6369018 C 603.2941894000002 527.1595458 604.7787475000002 534.6744995 604.6453857000001 536.1419677 C 602.0308837000001 564.9555053 570.5854492000001 559.7614745 550.7093505000001 553.8922118 C 539.9043578000002 550.7173461 513.5185546000001 533.0023192 507.56912220000015 550.2904052 C 500.28573600000016 571.4470214 510.5571898000002 593.8309325 525.7910765000001 608.7713622 C 527.3650511000002 608.8246459 528.9124754000002 608.8513183 530.4866331000002 608.8513183 C 620.5822752000001 608.8513183 693.6566770000002 535.7768554 693.6566770000002 445.6812438 C 693.6566772 395.7376404 671.2195435 351.0232239 635.8428955 321.0892334 z" stroke-linecap="round" />
</g>
		<g transform="matrix(0.48676323054582266 0 0 0.48676323054582266 -22.390662876017643 10.570013560718678)"  >
<linearGradient id="SVGID_4_992456" gradientUnits="userSpaceOnUse" gradientTransform="matrix(1 0 0 1 367.653020246865 281.99935919999984)"  x1="0" y1="0" x2="0" y2="325">
<stop offset="0%" style="stop-color:rgb(250,217,97);stop-opacity: 1"/>
<stop offset="100%" style="stop-color:rgb(247,107,28);stop-opacity: 1"/>
</linearGradient>
<path style="stroke: none; stroke-width: 1; stroke-dasharray: none; stroke-linecap: butt; stroke-dashoffset: 0; stroke-linejoin: miter; stroke-miterlimit: 4; fill: url(#SVGID_4_992456); fill-rule: nonzero; opacity: 1;"  paint-order="stroke"  transform=" translate(-484.65576432343255, -444.53388989999985)" d="M 495.2110901 510.3868408 C 478.0396118 510.3868408 465.7575989 510.3868408 465.7575989 510.3868408 L 444.6015015 510.3868408 C 444.3010559 510.3796692 444.0300904 510.3738098 443.75018309999996 510.3676147 C 442.89855959999994 508.62869259999997 442.2445984 507.2572631 441.9539185 506.68505849999997 C 438.5840149 500.04895009999996 435.7097779 493.16177359999995 433.34179689999996 486.1060485 C 428.5828858 471.9266662 425.86856079999995 457.0562438 425.2711182 442.10534659999996 C 425.7047425 423.69741809999994 427.4700623 409.88037099999997 434.2058106 398.263092 C 438.56854250000004 390.7383728 443.8395691 383.5269775 449.9111329 377.13531489999997 C 466.27706919999997 359.90600579999995 493.2795106 357.23483269999997 512.1555787 371.6703186 C 512.2633668 371.7527161 512.3708497 371.83544919999997 512.4780274 371.91864009999995 C 506.33807379999996 363.59475699999996 497.5168763 357.37030029999994 487.72921759999997 354.0531311 C 492.1588746 352.97125239999997 496.73770149999996 352.2984009 501.4884644 352.2090149 C 524.1715088 351.7823792 548.9764405 371.2792053 570.3926392 356.325531 C 578.4983520999999 350.6656494 583.9818726 341.92779540000004 590.5275879 334.6895447 C 583.3045043999999 339.8179322 576.3070679 345.8176575 567.9649048 349.0762024 C 559.4310913 352.4094544 550.2479248 351.8624878 541.4805908 349.8013001 C 540.0661620999999 349.4687806 538.6574707 349.1178895 537.2509154999999 348.7611084 C 537.6727904999999 348.5240173 538.1191405999999 348.3359375 538.5293578999999 348.0755615 C 547.7566527999999 342.2163696 552.4404906999999 331.04574579999996 556.098938 320.74578859999997 C 550.7460327 327.9744568 544.4966431 334.72488409999994 536.7392578 339.27780149999995 C 534.6306763 340.5155334 532.3978882 341.57769769999993 530.0891724 342.42413329999994 C 525.3273316000001 344.17007449999994 520.1376953 344.2949828999999 515.1622315000001 343.31143189999995 C 506.92510990000005 341.68322759999995 498.59451300000006 340.88305669999994 489.9393921000001 342.19061279999994 C 480.9219666000001 343.55276489999994 470.7251282000001 345.92822269999994 461.2879028000001 349.7179259999999 C 464.0973205000001 345.3213195999999 466.8096924000001 340.9125060999999 469.1675720000001 338.2595824999999 C 483.1302185000001 322.5497130999999 493.5687256000001 317.4079589999999 510.3547668000001 311.6725157999999 C 493.55667110000013 311.67333979999995 474.6362915000001 320.49453729999993 458.4786376000001 335.90267939999995 C 453.26556390000013 340.8739318 444.79852290000014 349.97122189999993 439.5149535000001 354.86691279999997 C 435.0971984000001 358.9602966 430.1456298000001 364.90353389999996 423.4338073000001 364.19113159999995 C 419.3304748000001 363.75537109999993 417.8781432000001 359.34622189999993 417.75473020000015 355.79721069999994 C 417.47952270000013 347.88674929999996 422.02560420000015 341.00085449999995 427.29876710000013 335.5115966999999 C 433.0540772000001 329.5205077999999 443.7757568000001 320.86791989999995 450.5303955000001 316.0674743999999 C 451.5479736000001 315.3441772999999 452.5726929000001 314.6309509999999 453.6037903000001 313.9270019999999 C 475.6654358000001 298.8621215999999 498.31835940000013 289.2356872999999 524.1490479000001 281.9993591999999 C 487.80215460000016 284.3346252999999 449.81570440000013 300.3263549999999 422.34851080000016 324.1271057999999 C 359.36215220000014 374.2843628999999 350.28042610000017 475.77239999999995 397.67871100000013 540.4683838999999 C 397.90682990000016 540.7953491999999 398.1409913000001 541.1173097 398.3715821000001 541.442505 C 398.48635870000015 541.5964967 398.58978280000014 541.7578737 398.70523080000015 541.9114380999999 L 398.71514900000017 541.9041139 C 400.1206055000002 543.8703615 401.5475465000002 545.8219606 403.04321300000015 547.7211305 C 417.1082460000001 565.5809327 435.0288087000001 580.404358 455.22189340000017 590.8486939999999 C 466.6857911000002 596.7782593999999 478.88864140000015 601.2924195999999 491.48391730000014 604.1257936 C 491.46322640000017 604.1060792 491.44354250000015 604.0855713999999 491.42300420000015 604.0658570999999 C 496.6871949000001 605.9923707999999 501.75225840000013 607.0684205999999 506.40142830000013 607.0684205999999 C 492.95318610000015 589.0475465999998 488.01858530000015 570.4874268999998 493.09289560000013 547.6701661999998 C 495.03735360000013 538.9268189999998 499.45300300000014 529.4522706999998 508.04150400000015 526.9096070999998 C 512.7136231000002 525.5263062999998 517.7412110000001 526.5130616999998 522.4288331000001 527.8428345999998 C 536.9042359000001 531.9487305999999 550.3584596000002 539.2272339999998 564.9454347000001 542.9177857999998 C 570.4152833 544.3015748999998 576.8004152000001 544.9415284999998 582.1104127000001 542.6116334999998 C 587.2536012 540.3550416999998 587.9050904000001 535.3435670999999 588.4484864000001 530.3273927999998 C 589.456482 521.0194703999997 594.5083009000001 515.7457887999998 601.6585084000001 510.3868409999998 C 601.6573486 510.3868408 535.1757202 510.3868408 495.2110901 510.3868408 z" stroke-linecap="round" />
</g>
		<g transform="matrix(0.48676323054582266 0 0 0.48676323054582266 -5.469848508585301 -45.403179019017415)"  >
<linearGradient id="SVGID_2_2_2_8_992458" gradientUnits="userSpaceOnUse" gradientTransform="matrix(1 0 0 1 399.23199460000006 236.78666690000003)"  x1="120.18566894999998" y1="0" x2="120.18566894999998" y2="185.51325979999996">
<stop offset="30.000000000000014%" style="stop-color:rgb(202,218,75);stop-opacity: 1"/>
<stop offset="100%" style="stop-color:rgb(0,0,0);stop-opacity: 1"/>
</linearGradient>
<path style="stroke: none; stroke-width: 1; stroke-dasharray: none; stroke-linecap: butt; stroke-dashoffset: 0; stroke-linejoin: miter; stroke-miterlimit: 4; fill: url(#SVGID_2_2_2_8_992458); fill-rule: nonzero; opacity: 1;"  paint-order="stroke"  transform=" translate(-519.41766355, -329.5432968)" d="M 543.9017334 266.3848267 C 545.4729614 264.7651368 546.7553711 262.73892220000005 547.8342896 260.7409974 C 549.6129151 257.58514410000004 551.7111817 254.28491220000004 554.8792725000001 252.11909490000002 C 550.6391602000001 253.9048462 547.788086 256.7388611 545.6917115000001 259.45907600000004 C 543.9447633000001 261.7158509 543.1275636000001 263.45361340000005 541.2947999000002 265.2175599 C 541.1574708000002 262.6359559 541.2842408000001 259.0403443 542.3635255000002 256.98455820000004 C 544.4926149000001 253.01762400000004 546.3836061000002 251.13792430000004 550.6804200000001 249.75819410000003 C 553.2644654000002 248.92440810000002 557.5583497000001 248.53056350000003 560.0558472000001 247.49369830000003 C 560.0558472000001 247.49369830000003 559.1213379000002 249.63719200000003 558.9455567000001 250.21672080000005 C 558.6530152000001 251.08567830000004 558.4473267000001 251.98408530000006 558.2705079000001 252.91159080000006 C 557.8876954000001 254.85362270000005 557.4757691000001 256.82424950000006 556.6002808000001 258.61993430000007 C 554.2947998 263.3403625 549.1224976 266.5157776 543.9017334 266.3848267 z M 477.5778198 288.2759705 C 477.6090393 286.01980590000005 477.15106199999997 283.66665650000004 476.5644531 281.47384650000004 C 475.6920166 277.95904550000006 474.95297239999996 274.1197816 475.77111809999997 270.3699341 C 473.91207879999996 274.5800476 473.78332509999996 278.59765630000004 474.1255493 282.01416020000005 C 474.40383909999997 284.85391240000007 475.0022583 286.67791750000004 474.87976069999996 289.21853640000006 C 473.00753779999997 287.43707280000007 470.63137809999995 284.73742680000004 470.0052795 282.50231940000003 C 468.8309936 278.15747080000006 468.91638179999995 275.4927369 471.09539789999997 271.53869640000005 C 472.4030456 269.15789810000007 475.2567443 265.9222108000001 476.36202999999995 263.45327770000006 C 476.36202999999995 263.45327770000006 477.1535949 265.65267960000006 477.42358399999995 266.19448860000006 C 477.80728149999993 267.02682500000003 478.27438359999996 267.8209229000001 478.78250119999996 268.61630260000004 C 479.83718869999996 270.2903443 480.89031979999993 272.0051576 481.4861144999999 273.91125500000004 C 483.0493469 278.9248047 481.4661255 284.7849426 477.5778198 288.2759705 z M 460.2972717 281.2543945 C 459.9366455 279.0256347 459.0777282 276.7854309 458.1200561 274.7253723 C 456.6517333 271.4117126 455.2584533 267.7553406 455.4131469 263.9191589 C 454.3138427 268.38800050000003 454.8840331 272.3694458 455.81347650000004 275.6774902 C 456.57992550000006 278.42813110000003 457.4852905 280.1227111 457.80541990000006 282.64749140000004 C 455.6538391000001 281.21405020000003 452.84701540000003 278.9624023 451.84310910000005 276.8674621 C 449.93377680000003 272.7877197 449.55557250000004 270.1470031 451.01422120000007 265.8754272 C 451.88818360000005 263.3042297 454.1354370000001 259.62451169999997 454.79495240000006 257.0012512 C 454.79495240000006 257.0012512 455.95550540000005 259.0325317 456.31521610000004 259.5200195 C 456.8372193 260.2742614 457.43463140000006 260.9764404 458.07269290000005 261.6728515 C 459.401062 263.1411132 460.7349854 264.64987179999997 461.65197760000007 266.42578119999996 C 464.0601196 271.0975952 463.5184631 277.14505 460.2972717 281.2543945 z M 455.2856445 297.7418213 C 453.9985656 295.8871765 452.256958 294.2371216 450.5038757 292.79217530000005 C 447.74911499999996 290.43679810000003 444.9142151 287.73995970000004 443.39871209999995 284.21319580000005 C 444.33471669999994 288.71801760000005 446.56707759999995 292.0630798 448.83309929999996 294.64584350000007 C 450.71154779999995 296.79614260000005 452.25970449999994 297.93405150000007 453.63793939999994 300.07318110000006 C 451.07775869999995 299.70834350000007 447.57330319999994 298.8882141000001 445.7634886999999 297.43173210000003 C 442.2801817999999 294.57565300000005 440.7995604999999 292.3569946 440.27294909999995 287.87512200000003 C 439.95230089999995 285.17904660000005 440.39273059999994 280.89083860000005 439.85607899999997 278.2403259 C 439.85607899999997 278.2403259 441.77981559999995 279.5718078 442.31475819999997 279.8563537 C 443.111267 280.3114623 443.95336899999995 280.6871032 444.82965079999997 281.039978 C 446.66189569999995 281.7912903 448.51663199999996 282.5767212 450.11038199999996 283.7829284 C 454.2992554 286.9579163 456.4196167 292.6459961 455.2856445 297.7418213 z M 423.0570068 317.6188354 C 420.9382934 316.8422851 418.5666809 316.49414060000004 416.30398560000003 316.3202514 C 412.69952390000003 315.97766110000003 408.83285520000004 315.402008 405.5640564 313.38989250000003 C 408.9239197 316.53442370000005 412.672699 317.98614490000006 416.0095825 318.79537960000005 C 418.7810974 319.47384640000007 420.6996765 319.51446530000004 423.0567322 320.47119140000007 C 420.7582703 321.6438904000001 417.427124 322.9869995000001 415.1114807 322.83624270000007 C 410.62417600000003 322.5029297000001 408.13775630000004 321.5400696000001 405.125061 318.17907720000005 C 403.30963130000004 316.15951540000003 401.1973266 312.4012147 399.2319946 310.54296880000004 C 399.2319946 310.54296880000004 401.56851190000003 310.52606210000005 402.1688232 310.451294 C 403.08081050000004 310.3657227 403.98419190000004 310.1889344 404.90231320000004 309.97393800000003 C 406.82983400000006 309.53533940000005 408.7953491 309.1117249 410.7904968 309.1820374 C 416.0370789 309.3706055 421.0449524 312.8019104 423.0570068 317.6188354 z M 437.4900818 307.3482056 C 435.9498291 305.6965027 433.9900818 304.3126526 432.0487976 303.13354499999997 C 428.9859924 301.1967774 425.7944946 298.93334969999995 423.7862549 295.65872199999995 C 425.363739 299.98504649999995 428.05386350000003 302.9768678 430.66677860000004 305.20898449999993 C 432.83413700000006 307.0685120999999 434.52850350000006 307.97299209999994 436.20007330000004 309.8933106999999 C 433.61795050000006 309.8996277999999 430.0368958 309.59072889999993 428.0378724 308.4083252999999 C 424.18276990000004 306.0803223999999 422.39849860000004 304.09597789999987 421.2288209 299.73358159999987 C 420.52136240000004 297.1099548999999 420.3350831 292.8004455999999 419.42086800000004 290.25292969999987 C 419.42086800000004 290.25292969999987 421.51434330000006 291.29519649999986 422.08404550000006 291.5001220999999 C 422.93688970000005 291.83642579999986 423.82327280000004 292.0874938999999 424.74008190000006 292.3110961999999 C 426.65911880000004 292.79199219999987 428.60528580000005 293.3034057999999 430.35461440000006 294.2690124999999 C 434.9529724 296.8114624 437.8719788 302.1394348 437.4900818 307.3482056 z M 434.0817566 284.3245239 C 433.7745056 282.08706659999996 432.97009280000003 279.8268738 432.0627747 277.7445984 C 430.6753846 274.3968811 429.37100219999996 270.7080383 429.616333 266.87445069999995 C 428.4129639 271.31945799999994 428.8879089 275.31475829999994 429.7374268 278.64465329999996 C 430.43746949999996 281.41333009999994 431.3012085 283.12881469999996 431.56100469999996 285.66146849999996 C 429.4468995 284.17889399999996 426.69799809999995 281.86312869999995 425.74539189999996 279.74493409999997 C 423.93582159999994 275.62094119999995 423.62081909999995 272.9710083 425.17828369999995 268.73150639999994 C 426.11169429999995 266.1795043999999 428.4424743999999 262.5498352999999 429.1630248999999 259.94091799999995 C 429.1630248999999 259.94091799999995 430.27355959999994 261.9989624 430.6211242999999 262.49472049999997 C 431.1243896999999 263.2609864 431.7042236999999 263.9768982 432.3247375999999 264.6878968 C 433.6161499999999 266.18664559999996 434.9121093999999 267.7259827 435.7855529999999 269.5230714 C 438.0790405 274.2506104 437.3950195 280.2872009 434.0817566 284.3245239 z M 489.039032 264.7267761 C 489.99874880000004 262.6831054 490.5534973 260.3489074 490.92501830000003 258.1076965 C 491.58224490000003 254.54336539999997 492.494751 250.73837279999998 494.78689570000006 247.65823359999996 C 491.35784910000007 250.72785949999997 489.58230590000005 254.33686819999997 488.48330680000004 257.59255979999995 C 487.5642394 260.29608149999996 487.35571280000005 262.20599359999994 486.19552600000003 264.47122189999993 C 485.22775260000003 262.07385249999993 484.18054190000004 258.6312560999999 484.5336302 256.33520509999994 C 485.2588804 251.88951109999994 486.4365233 249.49578859999994 490.0509642 246.79180909999994 C 492.2232664 245.16188049999994 496.1549681 243.39146429999994 498.17956530000004 241.59757999999994 C 498.17956530000004 241.59757999999994 497.99179060000006 243.92947389999995 498.0137328 244.53491219999995 C 498.0191954 245.45214849999996 498.11633290000003 246.36897289999996 498.250244 247.30392469999995 C 498.5186766 249.26564039999997 498.7688292 251.26390089999995 498.5240172 253.24752819999995 C 497.8765259 258.4634399 494.0172729 263.151062 489.039032 264.7267761 z M 470.3348083 261.3501587 C 470.82696530000004 259.14666750000004 470.8606262 256.7477112 470.7357177 254.4793701 C 470.60177600000003 250.8574676 470.6647033 246.9451294 472.231903 243.440155 C 469.5527343 247.18217470000002 468.6048278 251.0909729 468.2403869 254.5077362 C 467.931488 257.346405 468.143402 259.2559509 467.5038146 261.7192993 C 466.0376586 259.58987429999996 464.2666015 256.4575805 464.1117248 254.13969419999998 C 463.8525085 249.642746 464.4812316 247.0502014 467.42086789999996 243.6247101 C 469.1865845 241.5612946 472.63897699999995 238.9779968 474.224884 236.7866669 C 474.224884 236.7866669 474.54885859999996 239.1035614 474.70199579999996 239.6896973 C 474.9068908 240.583786 475.2011108 241.4575196 475.5352478 242.3409272 C 476.223999 244.1972657 476.90286249999997 246.093216 477.095459 248.0825959 C 477.5981445 253.3144073 474.8510742 258.729248 470.3348083 261.3501587 z M 567.3867798 279.508667 C 569.1768189 278.1358032 570.7401734 276.3189697 572.0980835 274.5004578 C 574.3166504000001 271.6388855 576.8724365 268.6810303 580.3218384 267.0006409 C 575.8669434000001 268.1492005 572.6340943 270.53643800000003 570.1644898000001 272.9210511 C 568.1079712000001 274.8982545 567.046814 276.4975892 564.9770508 277.9749757 C 565.2163696 275.4023133 565.8644409 271.86544810000004 567.2310791 269.9897767 C 569.9143066 266.3771974 572.0585327 264.7938233 576.510498 264.0549928 C 579.1884155 263.6066896 583.4942016 263.84228529999996 586.1160278 263.1805726 C 586.1160278 263.1805726 584.8798217 265.1640016 584.6217041 265.71145640000003 C 584.2059326 266.52810680000005 583.8717651 267.38650520000004 583.5620728 268.27789320000005 C 582.9010010000001 270.14242570000005 582.2069703 272.03100600000005 581.079773 273.67913830000003 C 578.1125488 278.0111084 572.5333252 280.3980713 567.3867798 279.508667 z M 563.7133789 262.9078369 C 565.5670776 261.6221008 567.2156372 259.8820801 568.6589965999999 258.1305847 C 571.0119018999999 255.3783111 573.7062987999999 252.5460205 577.2321777999999 251.0324249 C 572.727356 251.9667206 569.3839721999999 254.1967163 566.8031007 256.46054069999997 C 564.6542969999999 258.33715809999995 563.5178834 259.8839721 561.3797609 261.2607116 C 561.7418213999999 258.70242299999995 562.5583498 255.20059199999997 564.0131838 253.3923797 C 566.8661501 249.9122009 569.0836793999999 248.4331359 573.5660402 247.90795889999998 C 576.2623292999999 247.5881805 580.5520630999999 248.02932729999998 583.2025758 247.493698 C 583.2025758 247.493698 581.8728639 249.41577139999998 581.5888673 249.95027149999999 C 581.1345216 250.7460936 580.7597046999999 251.58753959999999 580.4077149999999 252.46310409999998 C 579.6582033 254.2939299 578.8746338999999 256.1471861 577.669861 257.7395323 C 574.4987183 261.9247131 568.8116455 264.0422363 563.7133789 262.9078369 z M 547.8065796 281.5011902 C 549.6184691999999 280.6615906 551.1815796 279.3938294 552.7040405 278.1298523 C 553.4265136 277.5223694 554.1529541 276.9556885 554.9281616000001 276.46667479999996 C 555.4301758 276.12829589999996 557.5074463000001 275.05636599999997 557.5074463000001 275.05636599999997 C 554.9172974 274.283844 551.3406983000001 271.87896729999994 548.8116455 270.89437869999995 C 544.6105347 269.2519836999999 541.9584961 269.51571659999996 537.8045044 271.24734499999994 C 535.6704712000001 272.15994269999993 533.3027344000001 274.86749269999996 531.7797241000001 276.95562749999993 C 534.3135986000001 276.74490359999993 536.0438232 275.91345219999994 538.8222046000001 275.2664795999999 C 542.1639404000001 274.4807434999999 546.1624146 274.0831299999999 550.5758667000001 275.37496959999993 C 546.7534180000001 275.05444349999993 543.0441284000001 276.28866589999996 539.6737061000001 277.6126709999999 C 537.5764161000001 278.4806213999999 535.3035889000001 279.2420654999999 533.0634766000002 279.50604259999994 C 537.0272217 282.9028015 543.0402832 283.7056274 547.8065796 281.5011902 z M 573.9342041 315.3143921 C 575.2937622 313.8516846 576.2609863 312.0867615 577.1920776 310.34069830000004 C 577.6309203999999 309.5050355 578.0889891999999 308.70562750000005 578.621582 307.9596253 C 578.9582518999999 307.45648200000005 580.4754637999999 305.6783143 580.4754637999999 305.6783143 C 577.7855834 305.9432069 573.5649413 305.0702821 570.8514403999999 305.11578380000003 C 566.3411864999999 305.18496710000005 563.9860839999999 306.4324952 560.7960814999999 309.60708630000005 C 559.1658934999999 311.25927750000005 557.9986571999999 314.6614076000001 557.3789671999999 317.17053230000005 C 559.6447142999999 316.0168153000001 560.9317015999999 314.59252940000005 563.2587278999999 312.9424134 C 566.0547484 310.95074470000003 569.6055907 309.06985480000003 574.1797484 308.5957947 C 570.5201415 309.7453308 567.5535887 312.2912293 564.9346922 314.7920227 C 563.3217161 316.388977 561.5059202 317.9537353 559.5322264 319.0456543 C 564.4865112 320.6902161 570.3562622 319.1583252 573.9342041 315.3143921 z M 603.8344116 348.1235962 C 605.6539306 347.3006897 607.2285155999999 346.0473328 608.7625122 344.7973938 C 609.4904785 344.19653320000003 610.2221069 343.6365662 611.00177 343.1546631 C 611.5068358999999 342.82092289999997 613.593811 341.7680969 613.593811 341.7680969 C 611.0108642 340.9718628 607.4564819 338.5343017 604.9366454999999 337.5266113 C 600.7507933999999 335.8457641 598.0964965999999 336.085144 593.9268798999999 337.77859490000003 C 591.7845458999999 338.67156980000004 589.3921508999999 341.3572692 587.8500976999999 343.4313354 C 590.3857421999999 343.2438659 592.1234741999999 342.42831420000005 594.9076538999999 341.80685420000003 C 598.2564087999999 341.05181880000004 602.2583008999999 340.6908874 606.6596680999999 342.0231018 C 602.8403931999999 341.6675415 599.1199951999998 342.8677063 595.7376099999999 344.1607361 C 593.6325074999999 345.0093994 591.3527832999999 345.749939 589.1104126999999 345.99340820000003 C 593.0427856 349.4263 599.0481567 350.2842102 603.8344116 348.1235962 z M 609.7120361 326.0776367 C 610.9985351 324.55032350000005 611.8783569 322.7403259 612.7230224 320.9509582 C 613.1205444 320.0948486 613.5390624 319.2740478 614.0345458 318.5029907 C 614.3461913000001 317.98400879999997 615.7747802 316.1339416 615.7747802 316.1339416 C 613.1010741 316.5298461 608.8428954 315.86410520000004 606.1348876 316.0420227 C 601.6334837999999 316.3313599 599.3421629999999 317.6923828 596.3110961 321.0188293 C 594.7636107 322.7486267 593.7639159 326.20358269999997 593.267517 328.7398986 C 595.474182 327.4769286 596.6900634 325.9915465 598.9337157 324.2298583 C 601.6290282 322.1040648 605.0836791 320.0520934 609.6291503 319.3552855 C 606.0301512999999 320.6820982 603.1915282 323.36975079999996 600.6978759 325.9953612 C 599.1648559 327.6691283 597.4277343 329.32064809999997 595.5097655 330.5075987 C 600.5383301 331.9082336 606.3261719 330.0915833 609.7120361 326.0776367 z M 588.9438477 295.8991394 C 590.4925538 294.6384582 591.6945800999999 293.02423100000004 592.8581543 291.4237061 C 593.4083252 290.65673830000003 593.9725952 289.9283448 594.6031494 289.2631836 C 595.0061645 288.8114319 596.7546997000001 287.2601013 596.7546997000001 287.2601013 C 594.0540771000001 287.1505737 589.9947510000001 285.7025146 587.3010864 285.3723755 C 582.824646 284.8173218 580.3197021000001 285.7272339 576.7213745 288.4302368 C 574.878418 289.8411865 573.2518921000001 293.0491943 572.2911377 295.4485168 C 574.6946411 294.6191406 576.1662598 293.38650509999997 578.6990967 292.07400509999997 C 581.7436524000001 290.4880371 585.5203858 289.11618039999996 590.1160889 289.2791137 C 586.3327637 289.91162099999997 583.0426636 292.0228881 580.1030884 294.1375427 C 578.2847901 295.4961242 576.2700806 296.79479979999996 574.1644287 297.60333249999996 C 578.8435669 299.9170532 584.8687134 299.2114258 588.9438477 295.8991394 z M 603.4783936 281.4066772 C 605.2576905 280.500122 606.772461 279.1749877 608.2467652 277.85513299999997 C 608.946045 277.22113029999997 609.65094 276.627777 610.4073487000001 276.11019889999994 C 610.8963624 275.75335689999997 612.9321900000001 274.60473629999996 612.9321900000001 274.60473629999996 C 610.3151246000001 273.92932129999997 606.6514283000001 271.6594848 604.0875245000001 270.76989739999993 C 599.8281861 269.28530879999994 597.1878663000001 269.6477049999999 593.1013184000001 271.5329893999999 C 591.0027466000001 272.5245054999999 588.7376099 275.3184507999999 587.2935181 277.4618833999999 C 589.817688 277.15682969999995 591.5157471 276.2614744999999 594.2680054 275.5113523999999 C 597.578125 274.6015928999999 601.55896 274.0551755999999 606.0174561 275.1815488999999 C 602.18573 275.0037534999999 598.5250855 276.3753965999999 595.2063599 277.82412699999986 C 593.1429444 278.76968359999984 590.9000855 279.6152951999999 588.6713868 279.96264629999985 C 592.7588501 283.209198 598.7975464 283.787262 603.4783936 281.4066772 z M 628.0910034 311.3795166 C 629.9961548 311.9779358 632.0054931 312.0921936 633.9821777 312.1819458 C 634.925354 312.218811 635.8440551 312.2886047 636.7465209999999 312.4486389 C 637.3455810999999 312.5361938 639.6033325 313.14132689999997 639.6033325 313.14132689999997 C 638.2074584999999 310.82681269999995 637.180542 306.64102169999995 635.9726562 304.21081539999994 C 633.970642 300.16870109999996 631.831604 298.57894889999994 627.5938719999999 297.06408689999995 C 625.4012449999999 296.3028869 621.8278197999999 296.71200559999994 619.2960814999999 297.2315063 C 621.3120116999999 298.7809143 623.1513060999999 299.3303527 625.6417235999999 300.72167959999996 C 628.6421507999999 302.38949579999996 631.8671263999998 304.78634629999993 634.2620848999999 308.71206659999996 C 631.6506346999998 305.9025268 628.0764769999998 304.31906119999996 624.6925658999999 303.03005979999995 C 622.5571898999999 302.26055909999997 620.3637084999999 301.2941283999999 618.5291747999999 299.981842 C 619.1749268 305.1617432 623.0820923 309.8022766 628.0910034 311.3795166 z M 620.6439819 290.9373779 C 621.9933470999999 289.4693603 622.949707 287.7004394 623.8700560999999 285.950531 C 624.3038329999999 285.1130371 624.7568968999999 284.3117371 625.2846069 283.5636291 C 625.618042 283.059143 627.1231689 281.2749633 627.1231689 281.2749633 C 624.4403685999999 281.5496825 620.2243652 280.69177240000005 617.5168457 280.7471008 C 613.0165405 280.8326111 610.6727295 282.0890197 607.5053710999999 285.2760009 C 605.8869629 286.93453969999996 604.7391968 290.3418273 604.1333007999999 292.85394279999997 C 606.3884887999999 291.6916808 607.6656493999999 290.26232899999997 609.9794921999999 288.60336299999994 C 612.7595824999999 286.60101309999993 616.2933959999999 284.70675659999995 620.8554076999999 284.21603389999996 C 617.2094115999998 285.37911979999996 614.2619017999999 287.9364624 611.6610717999998 290.44741819999996 C 610.0595092999998 292.0506592 608.2553710999998 293.62240599999996 606.2913818999998 294.7217712 C 611.2432861 296.348877 617.0928955 294.7953186 620.6439819 290.9373779 z M 564.7628784 295.3842468 C 565.2460937 293.4390564 565.2396239999999 291.42092890000004 565.2106322999999 289.4369507 C 565.1908569 288.4907227 565.2054443 287.56683350000003 565.3110962 286.6533814 C 565.3625487999999 286.0482789 565.8312987999999 283.7497559 565.8312987999999 283.7497559 C 563.6041258999999 285.2960511 559.4864501999999 286.5939331 557.1325072999999 287.9596253 C 553.2167969 290.22402960000005 551.7578735 292.46722420000003 550.4996338 296.80590830000006 C 549.8710937999999 299.0492555000001 550.4940186 302.59884650000004 551.1645507999999 305.0989076000001 C 552.5905761999999 302.9814760000001 553.0288695999999 301.1053773000001 554.2686156999999 298.5233461000001 C 555.7537841999999 295.41305560000006 557.9534302 292.03097550000007 561.7293701 289.38082900000006 C 559.0808716 292.17559830000005 557.7142944 295.8545839000001 556.63031 299.3241884000001 C 555.9901122 301.5107424000001 555.1567993 303.76824970000007 553.9566039 305.6888124000001 C 559.0897217 304.7082214 563.4885864 300.4986267 564.7628784 295.3842468 z M 507.1453552 270.0453796 C 507.1143188 268.04373169999997 506.5911865 266.0969238 506.05499269999996 264.1889038 C 505.7935181 263.2803955 505.57098389999993 262.3846741 505.43914799999993 261.4757385 C 505.3339538999999 260.87835689999997 505.19845589999994 258.5393066 505.19845589999994 258.5393066 C 503.44107059999993 260.60195919999995 499.7921448999999 262.90844719999996 497.8659058999999 264.8291931 C 494.6597901999999 268.0171203 493.82370009999994 270.55612179999997 493.7183533999999 275.066864 C 493.6852417999999 277.3935242 495.1966553999999 280.66119380000004 496.4853821999999 282.90338130000004 C 497.3218689999999 280.4942626 497.2651062999999 278.5708313 497.8024597999999 275.76080320000005 C 498.4418640999999 272.37792970000004 499.7024536999999 268.54989620000003 502.6746216999999 265.0252990000001 C 500.8295899999999 268.4011230000001 500.4505615999999 272.3026733000001 500.2911377999999 275.92977900000005 C 500.2321777999999 278.20462030000004 500.0046387999999 280.59735100000006 499.3360901999999 282.75863640000006 C 504.0480957 280.4987488 507.2232056 275.3091736 507.1453552 270.0453796 z M 505.0243225 307.4060059 C 507.0209045 307.25323490000005 508.93304439999997 306.61248780000005 510.8056946 305.96109010000004 C 511.69699099999997 305.64474490000003 512.5778197999999 305.36807250000004 513.477417 305.1811218 C 514.0675048999999 305.0397644 516.3946533 304.76214600000003 516.3946533 304.76214600000003 C 514.2291869999999 303.1331177 511.7062683 299.6304321 509.6723633 297.82418820000004 C 506.2960816 294.8172607 503.71069339999997 294.13699340000005 499.20077519999995 294.30630490000004 C 496.87579349999993 294.41482540000004 493.70449829999995 296.12261960000006 491.54364019999997 297.54568480000006 C 493.9993897 298.2342224000001 495.9163514 298.0605163000001 498.7543336 298.42602540000007 C 502.1703797 298.8585510000001 506.0683595 299.8841553000001 509.7666932 302.6370545000001 C 506.2849122 301.00042730000007 502.3666993 300.8594056000001 498.73574840000003 300.9209290000001 C 496.46096810000006 301.0005188000001 494.0583497 300.9189454000001 491.860138 300.3829651000001 C 494.4007568 304.9498291 499.7736206 307.8040161 505.0243225 307.4060059 z M 514.0845947 328.699707 C 514.9334717 326.88616939999997 515.3159179 324.9061584 515.6696777000001 322.9553222 C 515.8325195000001 322.0237121 516.0247802000001 321.120697 516.3044433000001 320.2455139 C 516.4714965000002 319.6622314 517.3742675000001 317.4994812 517.3742675000001 317.4994812 C 514.8909301000001 318.5836792 510.6004333000001 319.0577087 508.0274963000001 319.9402771 C 503.7489318000001 321.4010925 501.8851928000001 323.3175964 499.8146972000001 327.3276062 C 498.7658080000001 329.4052734 498.6932372000001 333.0063782 498.8696288000001 335.587677 C 500.67684930000013 333.788147 501.4683226000001 332.0336609 503.1822204000001 329.7424316 C 505.2387695000001 326.9808349 508.04873650000013 324.09133909999997 512.2644653000001 322.22515869999995 C 509.1271667000001 324.45178219999997 507.0774841000001 327.79394529999996 505.3454284000001 330.98562619999996 C 504.2960204000001 333.00537109999993 503.0433959000001 335.05718989999997 501.4957275000001 336.70751949999993 C 506.7215271 336.7415161 511.848938 333.4671631 514.0845947 328.699707 z M 582.5770874 329.2932129 C 582.8895874 327.3157959 582.7078857 325.3080444 582.5067139 323.3362732 C 582.4048462000001 322.3963623 582.3391114 321.4757385 582.3650513 320.5575867 C 582.3637696 319.9509888 582.6312256 317.62323 582.6312256 317.62323 C 580.5463257 319.3543396 576.5560913 321.00149539999995 574.3291016 322.5638428 C 570.6240234999999 325.15536499999996 569.3651123 327.5136109 568.4881591999999 331.9397888 C 568.0567626999999 334.2264709 568.9856567999999 337.704956 569.8709716999999 340.1348877 C 571.1080321999999 337.90463259999996 571.3818359999999 335.99984739999996 572.3928832999999 333.3233337 C 573.6026610999999 330.099945 575.5007323999998 326.544403 579.0330199999999 323.58108519999996 C 576.6366576999999 326.59097289999994 575.5944823999998 330.3699951 574.8157347999999 333.91629029999996 C 574.3677367999999 336.14749149999994 573.7333983999998 338.46594239999996 572.7042845999998 340.4807739 C 577.7338867 339.0616455 581.7515259 334.4927063 582.5770874 329.2932129 z M 583.6351318 368.4007874 C 585.5220946999999 369.0695801 587.5292357999999 369.25799570000004 589.5045166 369.4206849 C 590.4472046 369.49237070000004 591.3643188 369.59606940000003 592.2622681 369.7893983 C 592.8588257 369.899109 595.0984497000001 370.5876161 595.0984497000001 370.5876161 C 593.7777100000001 368.2213136 592.8877563000001 363.9971925 591.7588501 361.5221254 C 589.8883667 357.4057008 587.7999878 355.7368471 583.6087647 354.0654604 C 581.4395142000001 353.2232363 577.8498536000001 353.50058 575.2990113000001 353.926697 C 577.265564 355.5506594 579.0881959000001 356.16806049999997 581.5347291 357.6513979 C 584.4826051 359.4301149 587.6312257000001 361.9462282 589.8988648000001 365.9607851 C 587.3778077000001 363.0545351 583.8529664 361.33902 580.5088502000001 359.9250185 C 578.3971559000001 359.0766603 576.2337648000001 358.029175 574.4410401000001 356.649048 C 574.916748 361.8533325 578.6742554 366.6385498 583.6351318 368.4007874 z M 592.7127686 394.2512512 C 594.3059693 395.46505740000003 596.1597901 396.2599182 597.9911499 397.0205993 C 598.8670043999999 397.3779296 599.7087402 397.75784300000004 600.5048828 398.2169189 C 601.0395508 398.5041198 602.9625244 399.8448791 602.9625244 399.8448791 C 602.425354 397.1940002 602.8641968000001 392.91238400000003 602.5428467 390.21719360000003 C 602.0151367000001 385.73678590000003 600.5347290000001 383.51214600000003 597.0526734 380.639679 C 595.2435303 379.1746216 591.7409669 378.3360291 589.182251 377.9574891 C 590.5603027999999 380.10211189999995 592.1078491 381.2474061 593.9858399 383.40594489999995 C 596.2512818 385.99865729999993 598.4833375 389.35275279999996 599.4201661 393.85833749999995 C 597.9045411 390.32669079999994 595.0704956999999 387.6168519 592.3167115 385.24862679999995 C 590.5642091 383.79544079999994 588.8231812 382.13742069999995 587.5363159999999 380.2774659 C 586.4046631 385.3621216 588.5255127 391.0563354 592.7127686 394.2512512 z M 573.3439331 414.6247253 C 574.6373291 416.1539611 576.2757568 417.33041380000003 577.8996582 418.4686279 C 578.6776123 419.0067138 579.4174194 419.5594177 580.0956421 420.1795959 C 580.5556641 420.5754699 582.1436768 422.29992669999996 582.1436768 422.29992669999996 C 582.1917115 419.59555049999994 583.5447998 415.50961299999994 583.8131714 412.80859369999996 C 584.2655029 408.31985469999995 583.3004761 405.82797239999996 580.5209351 402.27127069999995 C 579.0709229 400.45007319999996 575.8321533999999 398.87484739999996 573.4155883999999 397.95269769999993 C 574.2979737 400.3443297999999 575.5616454999999 401.79684439999994 576.9291381999999 404.31002799999993 C 578.5811156999999 407.3308409999999 580.0361327999999 411.0878599999999 579.9778442999999 415.6895445999999 C 579.2606811999999 411.9138487999999 577.0787353999999 408.65588369999995 574.9014282999999 405.7488096999999 C 573.5041504999999 403.9514158999999 572.1622925999999 401.95651229999993 571.3074952 399.86254869999993 C 569.1044312 404.5829163 569.9454956 410.6008606 573.3439331 414.6247253 z M 548.2929077 403.7902832 C 549.8860473 405.0040894 551.7399292 405.7989502 553.571289 406.5596313 C 554.4471434999999 406.91699209999996 555.2888183 407.2969055 556.0849608999999 407.75595089999996 C 556.6196898999999 408.0431518 558.5426634999999 409.38394159999996 558.5426634999999 409.38394159999996 C 558.0054930999999 406.73306269999995 558.4443358999999 402.45141599999994 558.1229857999999 399.75622549999997 C 557.5952758 395.27581779999997 556.1148681 393.05117789999997 552.6328124999999 390.17871089999994 C 550.8236693999999 388.71368399999994 547.3211059999999 387.87506099999996 544.7623900999998 387.4965209999999 C 546.1404418999998 389.6411437999999 547.6879881999998 390.7864379999999 549.5659789999999 392.94500729999993 C 551.8314208999999 395.53768919999993 554.0634765999998 398.89178459999994 555.0003051999998 403.39736939999995 C 553.4846191999999 399.86572269999994 550.6506347999998 397.15591429999995 547.8968505999999 394.78765869999995 C 546.1443481999999 393.33447269999994 544.4032592999998 391.67645259999995 543.1164550999998 389.81652829999996 C 541.9848022 394.9011536 544.1056519 400.5953674 548.2929077 403.7902832 z M 609.9521484 368.9171143 C 611.8936767 369.388733 613.9053955 369.3691407 615.8828735000001 369.32714849999996 C 616.8260498000001 369.30117799999994 617.7470703 369.30975349999994 618.6581421000001 369.40966799999995 C 619.2615967 369.45733649999994 621.5552979 369.9121704 621.5552979 369.9121704 C 620.0021973 367.69000239999997 618.6868287 363.57147219999996 617.3130494000001 361.2210388 C 615.0352784 357.31118769999995 612.7915650000001 355.8635559 608.4600221000001 354.6307068 C 606.2205201 354.01538089999997 602.6854860000001 354.6628113 600.1968995000001 355.35119629999997 C 602.3150636 356.76666259999996 604.1875001000001 357.1937256 606.7678834000001 358.4194336 C 609.8760987000001 359.8877564 613.2589723000001 362.0703735 615.9205323000001 365.83761599999997 C 613.1207276000001 363.20129399999996 609.4462891000001 361.8555909 605.9819947000001 360.79174809999995 C 603.7990113000001 360.16436769999996 601.5443116000001 359.34384159999996 599.6235352000001 358.1534118999999 C 600.6279907 363.2917786 604.84729 367.6732483 609.9521484 368.9171143 z M 624.9094849 339.9614868 C 626.87323 339.6178589 628.7055054000001 338.7949829 630.4975586 337.965271 C 631.3498535 337.56405639999997 632.1957398000001 337.2034607 633.0689087000001 336.9306946 C 633.6398926 336.73303219999997 635.9190064000001 336.2330933 635.9190064000001 336.2330933 C 633.6132203000001 334.8134766 630.7692872 331.55700690000003 628.5764161000001 329.9478455 C 624.9354249 327.2680664 622.3063966000001 326.8361512 617.8533326 327.43682870000004 C 615.5597535 327.76770030000006 612.5842896 329.7766725 610.5822144 331.40460210000003 C 613.0835572 331.8572083 614.9663697 331.50027470000003 617.8148804 331.59368900000004 C 621.2428589 331.69873050000007 625.206604 332.34991460000003 629.1418457 334.7451477 C 625.5307007 333.4439697 621.633606 333.6781006 618.0411376999999 334.0870056 C 615.7944335999999 334.3841553 613.4052733999999 334.5326233 611.1741332999999 334.2077637 C 614.1398926 338.5252991 619.7446899 340.8614502 624.9094849 339.9614868 z M 603.7097778 310.200592 C 605.5528564 309.41873159999994 607.1599731 308.2015686 608.7263183 306.98690789999995 C 609.4697875 306.40283199999993 610.2160034 305.85964959999995 611.0086669 305.39550779999996 C 611.522644 305.07327269999996 613.639099 304.06771849999996 613.639099 304.06771849999996 C 611.0665892 303.21548459999997 607.5564574 300.70248409999994 605.0519408 299.6404418999999 C 600.8916625 297.86932369999994 598.2244262 298.0499267999999 594.0050048 299.6494750999999 C 591.8366088 300.4941710999999 589.3773803 303.1239623999999 587.7845458 305.1615905999999 C 590.3316649000001 305.0302123999999 592.0925902 304.2539367999999 594.8986205 303.6945800999999 C 598.2738036 303.0142211999999 602.2952269 302.7419128999999 606.6794433 304.16958619999986 C 602.8571777 303.73028569999985 599.0993041 304.8469848999999 595.6783447 306.06393429999986 C 593.5482177 306.86520379999985 591.2454834 307.55462639999985 588.9912719 307.7483824999999 C 592.8581543 311.2638855 598.8615112 312.2531433 603.7097778 310.200592 z M 545.5617676 379.9460754 C 547.3032227000001 380.9191284 549.2445069 381.43905639999997 551.1588745 381.9283752 C 552.0734863 382.1560058 552.9575195 382.4109191 553.8074341 382.7509155 C 554.3753662 382.9583435 556.4602051 384.00955200000004 556.4602051 384.00955200000004 C 555.5639649000001 381.45892330000004 555.4071045000001 377.1502075 554.7180176 374.52438350000006 C 553.5787964000001 370.15838620000005 551.8093262000001 368.16680900000006 547.9728394 365.8224182000001 C 545.9832764 364.6315307000001 542.4069825 364.30670160000005 539.8266602 364.3014831000001 C 541.4839478 366.2285461000001 543.1709595 367.1402587000001 545.3240967 369.0088195000001 C 547.9199829 371.25176990000006 550.5878296000001 374.2545165000001 552.1347656 378.5862731000001 C 550.1502075000001 375.3038939000001 546.9764404 373.02703850000006 543.9290161 371.0772399000001 C 541.9971313 369.8898925000001 540.0482178 368.4978332000001 538.5203247000001 366.83984370000013 C 538.1032715 372.0449524 540.9840088 377.3839722 545.5617676 379.9460754 z M 568.6513672 385.3516235 C 570.1138916 386.70828240000003 571.8775025 387.6718444 573.6222534 388.5992736 C 574.4572754 389.0363769 575.2561645 389.4928283 576.00177 390.0238647 C 576.5046387 390.3594665 578.2824095999999 391.8731689 578.2824095999999 391.8731689 C 578.0135496999999 389.1831054 578.8781127 384.9592285 578.828308 382.2449951 C 578.7518309 377.733551 577.5025023 375.3805542 574.3278808 372.1967163 C 572.6757202 370.56982419999997 569.2772216 369.40982049999997 566.7711791 368.7955933 C 567.9267577 371.0594178 569.3508300000001 372.3435975 571.0020141 374.6676331 C 572.9949951 377.460022 574.878662 381.00766 575.3593749 385.5821228 C 574.2057494000001 381.9240417 571.6591186 378.96231079999995 569.158142 376.3482056 C 567.5611571 374.7383423 565.9960326 372.9255371 564.9026488 370.95373539999997 C 563.2688599 375.913147 564.8078613 381.78125 568.6513672 385.3516235 z M 500.7202148 387.2482605 C 500.9676208 389.2295227 501.6997375 391.1016235 502.44064330000003 392.93380740000003 C 502.79959110000004 393.8055115 503.1183472 394.6688538 503.34808350000003 395.55541990000006 C 503.51754760000006 396.1360473000001 503.90560910000005 398.4402160000001 503.90560910000005 398.4402160000001 C 505.4346618000001 396.19924920000005 508.82321160000004 393.5058288000001 510.53598020000004 391.3867797000001 C 513.3876953 387.8686828000001 513.9467163 385.2580260000001 513.5639038 380.7736816000001 C 513.3453369 378.4629821000001 511.48504640000004 375.3912963000001 509.95770260000006 373.3115844000001 C 509.3842468000001 375.79351800000006 509.64886470000005 377.6943664000001 509.41699220000004 380.5404968000001 C 509.14535520000004 383.9660034000001 508.30255130000006 387.90206910000006 505.72045900000006 391.72793580000007 C 507.1948548000001 388.1751404000001 507.15081790000005 384.26434330000006 506.9175415000001 380.65014650000006 C 506.73028560000006 378.38797000000005 506.6983643000001 375.99014280000006 507.13119510000007 373.77264410000004 C 502.6777039 376.5382996 500.0733643 382.0376587 500.7202148 387.2482605 z M 541.3515015 322.5195007 C 541.7176514 320.5563965 541.5906983 318.547821 541.4432373000001 316.57455439999995 C 541.3670044 315.63372799999996 541.326355 314.71325679999995 541.3772583000001 313.7980957 C 541.3925171000001 313.19290159999997 541.7231445000001 310.87890619999996 541.7231445000001 310.87890619999996 C 539.5922851000001 312.54168699999997 535.5594482000001 314.06210319999997 533.2911987000001 315.5521545 C 529.5176391000001 318.0234375 528.1952514000001 320.3373413 527.1983642000001 324.7260131 C 526.7049560000002 326.9939574 527.5387573000002 330.4927978 528.3574218000001 332.9442138 C 529.6544799000001 330.7573547 529.9799194000001 328.865509 531.0632934000001 326.2265014 C 532.3601074000002 323.0480041 534.3538207000001 319.5593261 537.9648437000002 316.7118224 C 535.4879150000002 319.6407775 534.3435058000002 323.37875360000004 533.4686279000002 326.8926391 C 532.9601440000002 329.1047363 532.2631225000002 331.3981323 531.1797485000002 333.3765258 C 536.2452393 332.1156311 540.3848877 327.6812134 541.3515015 322.5195007 z M 533.0249023 263.7474976 C 533.4022216 261.78659059999995 533.2866821 259.77737429999996 533.1504516 257.80331429999995 C 533.0795898 256.86209119999995 533.0441894 255.94143689999996 533.1002807 255.02661139999995 C 533.1189575 254.42153939999994 533.4627685 252.10951239999994 533.4627685 252.10951239999994 C 531.3224487 253.76002509999995 527.2810058 255.25723269999995 525.0043334000001 256.73422249999993 C 521.2167968000001 259.1837463999999 519.8812255 261.48999029999993 518.8593749 265.8727417999999 C 518.3530883000001 268.1377869999999 519.1669921 271.64123549999994 519.9717406000001 274.0972595999999 C 521.2811888000001 271.9179382999999 521.6173705000001 270.0280151999999 522.7156981 267.3953247999999 C 524.0305785 264.2243957999999 526.0441893000001 260.7473144999999 529.6712645 257.9206238999999 C 527.1777342 260.8352661999999 526.0120848 264.5665283999999 525.1172484 268.0752259999999 C 524.5962523 270.28433239999987 523.8861693 272.57363909999987 522.7915648 274.54571549999986 C 527.8640747 273.3139343 532.0289917 268.9034729 533.0249023 263.7474976 z M 520.6134033 249.4328461 C 520.9907225999999 247.4719239 520.8751831 245.46270760000002 520.7389526 243.48866280000001 C 520.6680296999999 242.5474397 520.6326904 241.62678540000002 520.6887207 240.7119599 C 520.7074585 240.1068726 521.0512695 237.7948609 521.0512695 237.7948609 C 518.9109497 239.4453736 514.8695068 240.9425812 512.5928344 242.4195557 C 508.8052673 244.8691101 507.46972650000004 247.1753235 506.44787590000004 251.558075 C 505.94158930000003 253.8231202 506.75546260000004 257.3265687 507.56021110000006 259.7825928 C 508.8696593000001 257.60327149999995 509.20587150000006 255.71336369999997 510.30419910000006 253.08067319999998 C 511.61907950000005 249.90975949999998 513.6326293000001 246.43266289999997 517.2597655000001 243.6059723 C 514.7662352000001 246.52059939999998 513.6005858000001 250.25186159999998 512.7057494000001 253.7605744 C 512.1846923 255.96966559999998 511.47463980000003 258.2590027 510.38003530000003 260.2310792 C 515.4525757 258.9992676 519.6174316 254.5888062 520.6134033 249.4328461 z M 524.9121094 387.9068298 C 526.5906983 388.98577880000005 528.4971314 389.625061 530.3786620999999 390.2320861 C 531.2779540999999 390.5159911 532.1449584999999 390.8252257 532.9726562 391.2171935 C 533.5269165 391.4594115 535.5435791 392.6376647 535.5435791 392.6376647 C 534.8077393 390.0371703 534.9202881 385.7284545 534.3960571 383.0657958 C 533.5310058 378.638977 531.8880615 376.5420531 528.2026977 373.9648131 C 526.2899169000001 372.6531066 522.7382202 372.10699450000004 520.1613769 371.9416197 C 521.6962890000001 373.9671934 523.3242797 374.9815672 525.3580932000001 376.979553 C 527.8106689000001 379.37860090000004 530.2877197000001 382.5401304 531.5621337000001 386.9581602 C 529.7850951000001 383.5599668 526.7573852000002 381.0912779 523.8354491000001 378.95672590000004 C 521.9801024000001 377.65213000000006 520.1205443000001 376.1422117 518.6979979000001 374.39312730000006 C 517.9563599 379.5605774 520.5 385.0663757 524.9121094 387.9068298 z M 529.616333 300.4816284 C 531.2080688000001 301.68701169999997 533.0608520000001 302.47146599999996 534.8911743000001 303.22183229999996 C 535.7665405000001 303.57424929999996 536.6077270000001 303.9494324 537.4033203000001 304.4041443 C 537.9376221000001 304.688385 539.8590088000001 306.0188904 539.8590088000001 306.0188904 C 539.3243408000001 303.3686524 539.7667847000001 299.0801697 539.4479370000001 296.38430789999995 C 538.9243164000002 291.9026795 537.4461670000002 289.68481449999996 533.9673462000002 286.8305359 C 532.1598511000002 285.375 528.6587524000001 284.55670169999996 526.1009522000002 284.19323729999996 C 527.4768067000001 286.33163449999995 529.0230103000001 287.46871949999996 530.8986817000001 289.61804199999995 C 533.1613770000001 292.19961549999994 535.3900147000002 295.5435181 536.3226929000001 300.04785159999994 C 534.8104859000001 296.5218810999999 531.9794312000001 293.82650759999996 529.2282715000001 291.47259529999997 C 527.4774780000001 290.02856449999996 525.7382202000001 288.3794251 524.4532471000001 286.5254212 C 523.3173218 291.6218567 525.4327393 297.3088379 529.616333 300.4816284 z" stroke-linecap="round" />
</g>
</g>
</g>
<g transform="matrix(1.121552538155942 1.55979229538669 -1.5597922953866903 1.121552538155942 376.7285149950682 669.7087278185423)" id="text-logo-0"  >
<g style=""  paint-order="stroke"   >
		<g transform="matrix(0.9999999999999999 0 0 1 0 0)" id="text-logo-0-path-0"  >
<filter id="SVGID_992459" y="-194.12362957317765%" height="488.2472591463553%" x="-311.68737947061317%" width="723.3747589412263%" >
	<feGaussianBlur in="SourceAlpha" stdDeviation="12.571726055183428"></feGaussianBlur>
	<feOffset dx="0" dy="0" result="oBlur" ></feOffset>
	<feFlood flood-color="rgb(0,0,0)" flood-opacity="1"/>
	<feComposite in2="oBlur" operator="in" />
	<feMerge>
		<feMergeNode></feMergeNode>
		<feMergeNode in="SourceGraphic"></feMergeNode>
	</feMerge>
</filter>
<path style="stroke: rgb(201,228,101); stroke-width: 1.2571726055183428; stroke-dasharray: none; stroke-linecap: butt; stroke-dashoffset: 0; stroke-linejoin: miter; stroke-miterlimit: 4; fill: rgb(171,188,96); fill-rule: nonzero; opacity: 1;filter: url(#SVGID_992459);"  paint-order="stroke"  transform=" translate(-5.16, 7.22)" d="M 5.16 -8.62 C 3.8 -8.62 2.68 -9.74 2.68 -11.1 C 2.68 -12.46 3.8 -13.57 5.16 -13.57 C 6.02 -13.57 6.83 -13.14 7.28 -12.4 C 7.41 -12.19 7.65 -12.13 7.86 -12.25 C 8.07 -12.38 8.13 -12.65 8 -12.83 C 7.41 -13.84 6.33 -14.44 5.16 -14.44 C 3.32 -14.44 1.82 -12.93 1.82 -11.1 C 1.82 -9.26 3.32 -7.76 5.16 -7.76 C 7.06 -7.76 8.6 -6.21 8.6 -4.31 C 8.6 -2.41 7.06 -0.87 5.16 -0.87 C 3.26 -0.87 1.71 -2.41 1.71 -4.31 C 1.71 -4.56 1.51 -4.74 1.28 -4.74 C 1.03 -4.74 0.85 -4.56 0.85 -4.31 C 0.85 -1.94 2.78 0 5.16 0 C 7.53 0 9.47 -1.94 9.47 -4.31 C 9.47 -6.68 7.53 -8.62 5.16 -8.62 Z" stroke-linecap="round" />
</g>
</g>
</g>
<g transform="matrix(1.3023491544249177 1.4123451350716008 -1.412345135071601 1.3023491544249177 400.37802390965834 698.6317105346036)" id="text-logo-1"  >
<g style=""  paint-order="stroke"   >
		<g transform="matrix(1 0 0 1 0 0)" id="text-logo-1-path-0"  >
<filter id="SVGID_992460" y="-194.12362957317765%" height="488.2472591463553%" x="-258.1008722572619%" width="616.2017445145239%" >
	<feGaussianBlur in="SourceAlpha" stdDeviation="12.571726055183428"></feGaussianBlur>
	<feOffset dx="0" dy="0" result="oBlur" ></feOffset>
	<feFlood flood-color="rgb(0,0,0)" flood-opacity="1"/>
	<feComposite in2="oBlur" operator="in" />
	<feMerge>
		<feMergeNode></feMergeNode>
		<feMergeNode in="SourceGraphic"></feMergeNode>
	</feMerge>
</filter>
<path style="stroke: rgb(201,228,101); stroke-width: 1.2571726055183428; stroke-dasharray: none; stroke-linecap: butt; stroke-dashoffset: 0; stroke-linejoin: miter; stroke-miterlimit: 4; fill: rgb(171,188,96); fill-rule: nonzero; opacity: 1;filter: url(#SVGID_992460);"  paint-order="stroke"  transform=" translate(-6.909999999999999, 7.22)" d="M 6.91 -14.44 L 2.06 -14.44 C 1.82 -14.44 1.63 -14.25 1.63 -14.01 L 1.63 -0.43 C 1.63 -0.19 1.82 0 2.06 0 C 2.29 0 2.5 -0.19 2.5 -0.43 L 2.5 -3.88 L 6.91 -3.88 C 9.82 -3.88 12.19 -6.25 12.19 -9.16 C 12.19 -12.07 9.82 -14.44 6.91 -14.44 Z M 2.5 -4.74 L 2.5 -13.57 L 6.91 -13.57 C 9.34 -13.57 11.33 -11.59 11.33 -9.16 C 11.33 -6.73 9.34 -4.74 6.91 -4.74 Z" stroke-linecap="round" />
</g>
</g>
</g>
<g transform="matrix(1.4648197902794433 1.2430346264675833 -1.2430346264675836 1.4648197902794435 426.35392931563376 723.4975423161973)" id="text-logo-2"  >
<g style=""  paint-order="stroke"   >
		<g transform="matrix(1 0 0 1 0 0)" id="text-logo-2-path-0"  >
<filter id="SVGID_992461" y="-194.12362957317765%" height="488.2472591463553%" x="-221.2553022646086%" width="542.5106045292172%" >
	<feGaussianBlur in="SourceAlpha" stdDeviation="12.571726055183428"></feGaussianBlur>
	<feOffset dx="0" dy="0" result="oBlur" ></feOffset>
	<feFlood flood-color="rgb(0,0,0)" flood-opacity="1"/>
	<feComposite in2="oBlur" operator="in" />
	<feMerge>
		<feMergeNode></feMergeNode>
		<feMergeNode in="SourceGraphic"></feMergeNode>
	</feMerge>
</filter>
<path style="stroke: rgb(201,228,101); stroke-width: 1.2571726055183428; stroke-dasharray: none; stroke-linecap: butt; stroke-dashoffset: 0; stroke-linejoin: miter; stroke-miterlimit: 4; fill: rgb(171,188,96); fill-rule: nonzero; opacity: 1;filter: url(#SVGID_992461);"  paint-order="stroke"  transform=" translate(-6.646497711399147, 7.22)" d="M 12.85 -0.6 L 7.1 -14.17 C 7.03 -14.34 6.87 -14.44 6.7 -14.44 C 6.54 -14.44 6.37 -14.34 6.31 -14.17 L 0.43 -0.6 C 0.35 -0.39 0.43 -0.12 0.66 -0.04 C 0.87 0.06 1.11 -0.04 1.22 -0.27 L 3.2 -4.85 L 10.13 -4.85 L 12.07 -0.27 C 12.13 -0.1 12.29 0 12.46 0 C 12.52 0 12.58 -0.02 12.63 -0.04 C 12.85 -0.12 12.96 -0.37 12.85 -0.6 Z M 3.59 -5.71 L 6.7 -12.91 L 9.76 -5.71 Z" stroke-linecap="round" />
</g>
</g>
</g>
<g transform="matrix(1.6156227784698858 1.0395167811444714 -1.0395167811444714 1.6156227784698858 458.90478014100506 747.555033061304)" id="text-logo-3"  >
<g style=""  paint-order="stroke"   >
		<g transform="matrix(1 0 0 1 0 0)" id="text-logo-3-path-0"  >
<filter id="SVGID_992462" y="-194.12362957317765%" height="488.2472591463553%" x="-258.1008722572619%" width="616.2017445145239%" >
	<feGaussianBlur in="SourceAlpha" stdDeviation="12.571726055183428"></feGaussianBlur>
	<feOffset dx="0" dy="0" result="oBlur" ></feOffset>
	<feFlood flood-color="rgb(0,0,0)" flood-opacity="1"/>
	<feComposite in2="oBlur" operator="in" />
	<feMerge>
		<feMergeNode></feMergeNode>
		<feMergeNode in="SourceGraphic"></feMergeNode>
	</feMerge>
</filter>
<path style="stroke: rgb(201,228,101); stroke-width: 1.2571726055183428; stroke-dasharray: none; stroke-linecap: butt; stroke-dashoffset: 0; stroke-linejoin: miter; stroke-miterlimit: 4; fill: rgb(171,188,96); fill-rule: nonzero; opacity: 1;filter: url(#SVGID_992462);"  paint-order="stroke"  transform=" translate(-6.909999999999999, 7.22)" d="M 12.19 -9.16 C 12.19 -12.07 9.82 -14.44 6.91 -14.44 L 2.06 -14.44 C 1.82 -14.44 1.63 -14.25 1.63 -14.01 L 1.63 -0.43 C 1.63 -0.19 1.82 0 2.06 0 C 2.29 0 2.5 -0.19 2.5 -0.43 L 2.5 -3.88 L 5.76 -3.88 L 9.51 -0.12 C 9.59 -0.04 9.72 0 9.82 0 C 9.92 0 10.05 -0.04 10.13 -0.12 C 10.29 -0.29 10.29 -0.58 10.13 -0.74 L 6.97 -3.88 C 9.86 -3.92 12.19 -6.27 12.19 -9.16 Z M 2.5 -4.74 L 2.5 -13.57 L 6.91 -13.57 C 9.34 -13.57 11.33 -11.59 11.33 -9.16 C 11.33 -6.73 9.34 -4.74 6.91 -4.74 Z" stroke-linecap="round" />
</g>
</g>
</g>
<g transform="matrix(1.733830421275836 0.827444361180963 -0.8274443611809631 1.7338304212758362 492.5151847856981 766.1568917322725)" id="text-logo-4"  >
<g style=""  paint-order="stroke"   >
		<g transform="matrix(1 0 0 1 0 0)" id="text-logo-4-path-0"  >
<filter id="SVGID_992463" y="-194.12362957317765%" height="488.2472591463553%" x="-282.1840678870371%" width="664.3681357740742%" >
	<feGaussianBlur in="SourceAlpha" stdDeviation="12.571726055183428"></feGaussianBlur>
	<feOffset dx="0" dy="0" result="oBlur" ></feOffset>
	<feFlood flood-color="rgb(0,0,0)" flood-opacity="1"/>
	<feComposite in2="oBlur" operator="in" />
	<feMerge>
		<feMergeNode></feMergeNode>
		<feMergeNode in="SourceGraphic"></feMergeNode>
	</feMerge>
</filter>
<path style="stroke: rgb(201,228,101); stroke-width: 1.2571726055183428; stroke-dasharray: none; stroke-linecap: butt; stroke-dashoffset: 0; stroke-linejoin: miter; stroke-miterlimit: 4; fill: rgb(171,188,96); fill-rule: nonzero; opacity: 1;filter: url(#SVGID_992463);"  paint-order="stroke"  transform=" translate(-6.425, 7.22)" d="M 11.1 -0.74 L 4.6 -7.22 L 11.1 -13.7 C 11.26 -13.86 11.26 -14.15 11.1 -14.32 C 10.93 -14.48 10.64 -14.48 10.48 -14.32 L 2.5 -6.31 L 2.5 -14.01 C 2.5 -14.25 2.29 -14.44 2.06 -14.44 C 1.82 -14.44 1.63 -14.25 1.63 -14.01 L 1.63 -0.43 C 1.63 -0.19 1.82 0 2.06 0 C 2.29 0 2.5 -0.19 2.5 -0.43 L 2.5 -5.1 L 4 -6.6 L 10.48 -0.12 C 10.56 -0.04 10.69 0 10.79 0 C 10.89 0 11.02 -0.04 11.1 -0.12 C 11.26 -0.29 11.26 -0.58 11.1 -0.74 Z" stroke-linecap="round" />
</g>
</g>
</g>
<g transform="matrix(1.8210182848099632 0.612147455258531 -0.612147455258531 1.8210182848099632 526.5463721324082 779.7805877386861)" id="text-logo-5"  >
<g style=""  paint-order="stroke"   >
		<g transform="matrix(0.9999999999999999 0 0 1 0 0)" id="text-logo-5-path-0"  >
<filter id="SVGID_992464" y="-194.12362957317765%" height="488.2472591463553%" x="-282.1840678870371%" width="664.3681357740742%" >
	<feGaussianBlur in="SourceAlpha" stdDeviation="12.571726055183428"></feGaussianBlur>
	<feOffset dx="0" dy="0" result="oBlur" ></feOffset>
	<feFlood flood-color="rgb(0,0,0)" flood-opacity="1"/>
	<feComposite in2="oBlur" operator="in" />
	<feMerge>
		<feMergeNode></feMergeNode>
		<feMergeNode in="SourceGraphic"></feMergeNode>
	</feMerge>
</filter>
<path style="stroke: rgb(201,228,101); stroke-width: 1.2571726055183428; stroke-dasharray: none; stroke-linecap: butt; stroke-dashoffset: 0; stroke-linejoin: miter; stroke-miterlimit: 4; fill: rgb(171,188,96); fill-rule: nonzero; opacity: 1;filter: url(#SVGID_992464);"  paint-order="stroke"  transform=" translate(-6.425, 7.22)" d="M 10.79 -0.87 L 2.5 -0.87 L 2.5 -14.01 C 2.5 -14.25 2.29 -14.44 2.06 -14.44 C 1.82 -14.44 1.63 -14.25 1.63 -14.01 L 1.63 -0.43 C 1.63 -0.19 1.82 0 2.06 0 L 10.79 0 C 11.04 0 11.22 -0.19 11.22 -0.43 C 11.22 -0.66 11.04 -0.87 10.79 -0.87 Z" stroke-linecap="round" />
</g>
</g>
</g>
<g transform="matrix(1.8815169482554333 0.3882345605678044 -0.3882345605678045 1.8815169482554335 561.4943432003521 789.066484338216)" id="text-logo-6"  >
<g style=""  paint-order="stroke"   >
		<g transform="matrix(0.9999999999999999 0 0 1 0 0)" id="text-logo-6-path-0"  >
<filter id="SVGID_992465" y="-194.12362957317765%" height="488.2472591463553%" x="-282.1840678870371%" width="664.3681357740742%" >
	<feGaussianBlur in="SourceAlpha" stdDeviation="12.571726055183428"></feGaussianBlur>
	<feOffset dx="0" dy="0" result="oBlur" ></feOffset>
	<feFlood flood-color="rgb(0,0,0)" flood-opacity="1"/>
	<feComposite in2="oBlur" operator="in" />
	<feMerge>
		<feMergeNode></feMergeNode>
		<feMergeNode in="SourceGraphic"></feMergeNode>
	</feMerge>
</filter>
<path style="stroke: rgb(201,228,101); stroke-width: 1.2571726055183428; stroke-dasharray: none; stroke-linecap: butt; stroke-dashoffset: 0; stroke-linejoin: miter; stroke-miterlimit: 4; fill: rgb(171,188,96); fill-rule: nonzero; opacity: 1;filter: url(#SVGID_992465);"  paint-order="stroke"  transform=" translate(-6.425, 7.22)" d="M 10.79 -0.87 L 2.5 -0.87 L 2.5 -6.79 L 7.88 -6.79 C 8.13 -6.79 8.31 -6.97 8.31 -7.22 C 8.31 -7.47 8.13 -7.65 7.88 -7.65 L 2.5 -7.65 L 2.5 -13.57 L 10.79 -13.57 C 11.04 -13.57 11.22 -13.78 11.22 -14.01 C 11.22 -14.25 11.04 -14.44 10.79 -14.44 L 1.63 -14.44 L 1.63 0 L 10.79 0 C 11.04 0 11.22 -0.19 11.22 -0.43 C 11.22 -0.66 11.04 -0.87 10.79 -0.87 Z" stroke-linecap="round" />
</g>
</g>
</g>
<g transform="matrix(1.9110038699919139 0.19722147314033273 -0.19722147314033273 1.9110038699919139 594.1644217301651 807.804640502231)" id="text-logo-7"  >
<g style=""  paint-order="stroke"   >
		<g transform="matrix(0.9999999999999999 0 0 1 0 0)" id="text-logo-7-path-0"  >
<filter id="SVGID_992466" y="-40%" height="180%" x="-40%" width="180%" >
	<feGaussianBlur in="SourceAlpha" stdDeviation="12.571726055183428"></feGaussianBlur>
	<feOffset dx="0" dy="0" result="oBlur" ></feOffset>
	<feFlood flood-color="rgb(0,0,0)" flood-opacity="1"/>
	<feComposite in2="oBlur" operator="in" />
	<feMerge>
		<feMergeNode></feMergeNode>
		<feMergeNode in="SourceGraphic"></feMergeNode>
	</feMerge>
</filter>
<path style="stroke: rgb(201,228,101); stroke-width: 1.2571726055183428; stroke-dasharray: none; stroke-linecap: butt; stroke-dashoffset: 0; stroke-linejoin: miter; stroke-miterlimit: 4; fill: rgb(171,188,96); fill-rule: nonzero; opacity: 1;filter: url(#SVGID_992466);"  paint-order="stroke"  transform=" translate(0, 0)" d="" stroke-linecap="round" />
</g>
</g>
</g>
<g transform="matrix(1.92115367316365 0.0008152800317838449 -0.000815280031783845 1.9211536731636503 621.7503936295927 795.0463039591149)" id="text-logo-8"  >
<g style=""  paint-order="stroke"   >
		<g transform="matrix(0.9999999999999999 0 0 1 0 0)" id="text-logo-8-path-0"  >
<filter id="SVGID_992467" y="-194.12362957317765%" height="488.2472591463553%" x="-282.1840678870371%" width="664.3681357740742%" >
	<feGaussianBlur in="SourceAlpha" stdDeviation="12.571726055183428"></feGaussianBlur>
	<feOffset dx="0" dy="0" result="oBlur" ></feOffset>
	<feFlood flood-color="rgb(0,0,0)" flood-opacity="1"/>
	<feComposite in2="oBlur" operator="in" />
	<feMerge>
		<feMergeNode></feMergeNode>
		<feMergeNode in="SourceGraphic"></feMergeNode>
	</feMerge>
</filter>
<path style="stroke: rgb(201,228,101); stroke-width: 1.2571726055183428; stroke-dasharray: none; stroke-linecap: butt; stroke-dashoffset: 0; stroke-linejoin: miter; stroke-miterlimit: 4; fill: rgb(171,188,96); fill-rule: nonzero; opacity: 1;filter: url(#SVGID_992467);"  paint-order="stroke"  transform=" translate(-6.425, 7.22)" d="M 8.66 -8.25 C 9.61 -8.85 10.25 -9.9 10.25 -11.1 C 10.25 -12.93 8.75 -14.44 6.91 -14.44 L 1.63 -14.44 L 1.63 0 L 6.91 0 C 9.28 0 11.22 -1.94 11.22 -4.31 C 11.22 -6.06 10.17 -7.57 8.66 -8.25 Z M 2.5 -0.87 L 2.5 -7.76 L 6.91 -7.76 C 8.81 -7.76 10.36 -6.21 10.36 -4.31 C 10.36 -2.41 8.81 -0.87 6.91 -0.87 Z M 2.5 -8.62 L 2.5 -13.57 L 6.91 -13.57 C 8.27 -13.57 9.39 -12.46 9.39 -11.1 C 9.39 -9.74 8.27 -8.62 6.91 -8.62 Z" stroke-linecap="round" />
</g>
</g>
</g>
<g transform="matrix(1.9026858420544697 -0.2657417675812177 0.2657417675812177 1.9026858420544697 662.8776179472833 792.1529074822154)" id="text-logo-9"  >
<g style=""  paint-order="stroke"   >
		<g transform="matrix(1 0 0 1 0 0)" id="text-logo-9-path-0"  >
<filter id="SVGID_992468" y="-194.12362957317765%" height="488.2472591463553%" x="-194.12362957317765%" width="488.2472591463553%" >
	<feGaussianBlur in="SourceAlpha" stdDeviation="12.571726055183428"></feGaussianBlur>
	<feOffset dx="0" dy="0" result="oBlur" ></feOffset>
	<feFlood flood-color="rgb(0,0,0)" flood-opacity="1"/>
	<feComposite in2="oBlur" operator="in" />
	<feMerge>
		<feMergeNode></feMergeNode>
		<feMergeNode in="SourceGraphic"></feMergeNode>
	</feMerge>
</filter>
<path style="stroke: rgb(201,228,101); stroke-width: 1.2571726055183428; stroke-dasharray: none; stroke-linecap: butt; stroke-dashoffset: 0; stroke-linejoin: miter; stroke-miterlimit: 4; fill: rgb(171,188,96); fill-rule: nonzero; opacity: 1;filter: url(#SVGID_992468);"  paint-order="stroke"  transform=" translate(-8.15, 7.22)" d="M 8.15 0 C 12.13 0 15.37 -3.24 15.37 -7.22 C 15.37 -11.2 12.13 -14.44 8.15 -14.44 C 4.17 -14.44 0.93 -11.2 0.93 -7.22 C 0.93 -3.24 4.17 0 8.15 0 Z M 1.79 -7.22 C 1.79 -10.73 4.64 -13.57 8.15 -13.57 C 11.66 -13.57 14.5 -10.73 14.5 -7.22 C 14.5 -3.71 11.66 -0.87 8.15 -0.87 C 4.64 -0.87 1.79 -3.71 1.79 -7.22 Z M 2.81 -6.77 C 3.05 -4.02 5.34 -1.88 8.15 -1.88 C 10.95 -1.88 13.24 -4.02 13.49 -6.77 C 13.51 -7.03 13.29 -7.26 13.02 -7.26 C 12.77 -7.26 12.58 -7.08 12.56 -6.85 C 12.38 -4.52 10.52 -2.81 8.15 -2.81 C 5.78 -2.81 3.92 -4.52 3.73 -6.85 C 3.71 -7.08 3.53 -7.26 3.28 -7.26 C 3.01 -7.26 2.78 -7.03 2.81 -6.77 Z M 5.49 -7.59 C 5.49 -7.34 5.69 -7.14 5.94 -7.14 C 6.19 -7.14 6.42 -7.34 6.42 -7.59 L 6.42 -10.73 C 6.42 -10.97 6.19 -11.18 5.94 -11.18 C 5.69 -11.18 5.49 -10.97 5.49 -10.73 Z M 9.61 -7.59 C 9.61 -7.34 9.82 -7.14 10.07 -7.14 C 10.31 -7.14 10.54 -7.34 10.54 -7.59 L 10.54 -10.73 C 10.54 -10.97 10.31 -11.18 10.07 -11.18 C 9.82 -11.18 9.61 -10.97 9.61 -10.73 Z" stroke-linecap="round" />
</g>
</g>
</g>
<g transform="matrix(1.839771761550686 -0.5532377120121176 0.5532377120121177 1.8397717615506861 707.9426490035714 782.2895224583579)" id="text-logo-10"  >
<g style=""  paint-order="stroke"   >
		<g transform="matrix(1 0 0 1 0 0)" id="text-logo-10-path-0"  >
<filter id="SVGID_992469" y="-194.12362957317765%" height="488.2472591463553%" x="-194.12362957317765%" width="488.2472591463553%" >
	<feGaussianBlur in="SourceAlpha" stdDeviation="12.571726055183428"></feGaussianBlur>
	<feOffset dx="0" dy="0" result="oBlur" ></feOffset>
	<feFlood flood-color="rgb(0,0,0)" flood-opacity="1"/>
	<feComposite in2="oBlur" operator="in" />
	<feMerge>
		<feMergeNode></feMergeNode>
		<feMergeNode in="SourceGraphic"></feMergeNode>
	</feMerge>
</filter>
<path style="stroke: rgb(201,228,101); stroke-width: 1.2571726055183428; stroke-dasharray: none; stroke-linecap: butt; stroke-dashoffset: 0; stroke-linejoin: miter; stroke-miterlimit: 4; fill: rgb(171,188,96); fill-rule: nonzero; opacity: 1;filter: url(#SVGID_992469);"  paint-order="stroke"  transform=" translate(-8.15, 7.22)" d="M 8.15 0 C 12.13 0 15.37 -3.24 15.37 -7.22 C 15.37 -11.2 12.13 -14.44 8.15 -14.44 C 4.17 -14.44 0.93 -11.2 0.93 -7.22 C 0.93 -3.24 4.17 0 8.15 0 Z M 1.79 -7.22 C 1.79 -10.73 4.64 -13.57 8.15 -13.57 C 11.66 -13.57 14.5 -10.73 14.5 -7.22 C 14.5 -3.71 11.66 -0.87 8.15 -0.87 C 4.64 -0.87 1.79 -3.71 1.79 -7.22 Z M 2.81 -6.77 C 3.05 -4.02 5.34 -1.88 8.15 -1.88 C 10.95 -1.88 13.24 -4.02 13.49 -6.77 C 13.51 -7.03 13.29 -7.26 13.02 -7.26 C 12.77 -7.26 12.58 -7.08 12.56 -6.85 C 12.38 -4.52 10.52 -2.81 8.15 -2.81 C 5.78 -2.81 3.92 -4.52 3.73 -6.85 C 3.71 -7.08 3.53 -7.26 3.28 -7.26 C 3.01 -7.26 2.78 -7.03 2.81 -6.77 Z M 5.49 -7.59 C 5.49 -7.34 5.69 -7.14 5.94 -7.14 C 6.19 -7.14 6.42 -7.34 6.42 -7.59 L 6.42 -10.73 C 6.42 -10.97 6.19 -11.18 5.94 -11.18 C 5.69 -11.18 5.49 -10.97 5.49 -10.73 Z M 9.61 -7.59 C 9.61 -7.34 9.82 -7.14 10.07 -7.14 C 10.31 -7.14 10.54 -7.34 10.54 -7.59 L 10.54 -10.73 C 10.54 -10.97 10.31 -11.18 10.07 -11.18 C 9.82 -11.18 9.61 -10.97 9.61 -10.73 Z" stroke-linecap="round" />
</g>
</g>
</g>
<g transform="matrix(1.7464952350077785 -0.8003664752392127 0.8003664752392128 1.7464952350077787 747.6804253907203 767.2112299250751)" id="text-logo-11"  >
<g style=""  paint-order="stroke"   >
		<g transform="matrix(1 0 0 1 0 0)" id="text-logo-11-path-0"  >
<filter id="SVGID_992470" y="-194.12362957317765%" height="488.2472591463553%" x="-282.1840678870371%" width="664.3681357740742%" >
	<feGaussianBlur in="SourceAlpha" stdDeviation="12.571726055183428"></feGaussianBlur>
	<feOffset dx="0" dy="0" result="oBlur" ></feOffset>
	<feFlood flood-color="rgb(0,0,0)" flood-opacity="1"/>
	<feComposite in2="oBlur" operator="in" />
	<feMerge>
		<feMergeNode></feMergeNode>
		<feMergeNode in="SourceGraphic"></feMergeNode>
	</feMerge>
</filter>
<path style="stroke: rgb(201,228,101); stroke-width: 1.2571726055183428; stroke-dasharray: none; stroke-linecap: butt; stroke-dashoffset: 0; stroke-linejoin: miter; stroke-miterlimit: 4; fill: rgb(171,188,96); fill-rule: nonzero; opacity: 1;filter: url(#SVGID_992470);"  paint-order="stroke"  transform=" translate(-6.425, 7.22)" d="M 11.1 -0.74 L 4.6 -7.22 L 11.1 -13.7 C 11.26 -13.86 11.26 -14.15 11.1 -14.32 C 10.93 -14.48 10.64 -14.48 10.48 -14.32 L 2.5 -6.31 L 2.5 -14.01 C 2.5 -14.25 2.29 -14.44 2.06 -14.44 C 1.82 -14.44 1.63 -14.25 1.63 -14.01 L 1.63 -0.43 C 1.63 -0.19 1.82 0 2.06 0 C 2.29 0 2.5 -0.19 2.5 -0.43 L 2.5 -5.1 L 4 -6.6 L 10.48 -0.12 C 10.56 -0.04 10.69 0 10.79 0 C 10.89 0 11.02 -0.04 11.1 -0.12 C 11.26 -0.29 11.26 -0.58 11.1 -0.74 Z" stroke-linecap="round" />
</g>
</g>
</g>
<g transform="matrix(1.634107437089076 -1.0102103665286188 1.0102103665286188 1.6341074370890762 779.7953246786927 749.9159881860545)" id="text-logo-12"  >
<g style=""  paint-order="stroke"   >
		<g transform="matrix(1 0 0 1 0 0)" id="text-logo-12-path-0"  >
<filter id="SVGID_992471" y="-194.12362957317765%" height="488.2472591463553%" x="-213.27342996562925%" width="526.5468599312585%" >
	<feGaussianBlur in="SourceAlpha" stdDeviation="12.571726055183428"></feGaussianBlur>
	<feOffset dx="0" dy="0" result="oBlur" ></feOffset>
	<feFlood flood-color="rgb(0,0,0)" flood-opacity="1"/>
	<feComposite in2="oBlur" operator="in" />
	<feMerge>
		<feMergeNode></feMergeNode>
		<feMergeNode in="SourceGraphic"></feMergeNode>
	</feMerge>
</filter>
<path style="stroke: rgb(201,228,101); stroke-width: 1.2571726055183428; stroke-dasharray: none; stroke-linecap: butt; stroke-dashoffset: 0; stroke-linejoin: miter; stroke-miterlimit: 4; fill: rgb(171,188,96); fill-rule: nonzero; opacity: 1;filter: url(#SVGID_992471);"  paint-order="stroke"  transform=" translate(-7.434632352941176, 7.22)" d="M 13.78 -3.38 C 13.57 -3.55 13.31 -3.51 13.16 -3.32 C 11.94 -1.75 10.13 -0.87 8.15 -0.87 C 4.64 -0.87 1.79 -3.71 1.79 -7.22 C 1.79 -10.73 4.64 -13.57 8.15 -13.57 C 9.84 -13.57 11.45 -12.91 12.65 -11.72 C 12.81 -11.55 13.08 -11.55 13.24 -11.72 C 13.43 -11.88 13.43 -12.15 13.24 -12.32 C 11.88 -13.7 10.09 -14.44 8.15 -14.44 C 4.17 -14.44 0.93 -11.2 0.93 -7.22 C 0.93 -3.24 4.17 0 8.15 0 C 10.4 0 12.46 -1.01 13.84 -2.78 C 13.99 -2.97 13.97 -3.24 13.78 -3.38 Z" stroke-linecap="round" />
</g>
</g>
</g>
<g transform="matrix(1.488289056054424 -1.2148365265418832 1.2148365265418832 1.488289056054424 812.6939117357936 726.3414867229149)" id="text-logo-13"  >
<g style=""  paint-order="stroke"   >
		<g transform="matrix(1 0 0 1 0 0)" id="text-logo-13-path-0"  >
<filter id="SVGID_992472" y="-194.12362957317765%" height="488.2472591463553%" x="-282.1840678870371%" width="664.3681357740742%" >
	<feGaussianBlur in="SourceAlpha" stdDeviation="12.571726055183428"></feGaussianBlur>
	<feOffset dx="0" dy="0" result="oBlur" ></feOffset>
	<feFlood flood-color="rgb(0,0,0)" flood-opacity="1"/>
	<feComposite in2="oBlur" operator="in" />
	<feMerge>
		<feMergeNode></feMergeNode>
		<feMergeNode in="SourceGraphic"></feMergeNode>
	</feMerge>
</filter>
<path style="stroke: rgb(201,228,101); stroke-width: 1.2571726055183428; stroke-dasharray: none; stroke-linecap: butt; stroke-dashoffset: 0; stroke-linejoin: miter; stroke-miterlimit: 4; fill: rgb(171,188,96); fill-rule: nonzero; opacity: 1;filter: url(#SVGID_992472);"  paint-order="stroke"  transform=" translate(-6.425, 7.22)" d="M 10.79 -0.87 L 2.5 -0.87 L 2.5 -14.01 C 2.5 -14.25 2.29 -14.44 2.06 -14.44 C 1.82 -14.44 1.63 -14.25 1.63 -14.01 L 1.63 -0.43 C 1.63 -0.19 1.82 0 2.06 0 L 10.79 0 C 11.04 0 11.22 -0.19 11.22 -0.43 C 11.22 -0.66 11.04 -0.87 10.79 -0.87 Z" stroke-linecap="round" />
</g>
</g>
</g>
<g transform="matrix(1.3307971169039436 -1.3855724933152604 1.3855724933152604 1.3307971169039436 838.418565532862 702.5015865151569)" id="text-logo-14"  >
<g style=""  paint-order="stroke"   >
		<g transform="matrix(1 0 0 1 0 0)" id="text-logo-14-path-0"  >
<filter id="SVGID_992473" y="-194.12362957317765%" height="488.2472591463553%" x="-221.14761688293484%" width="542.2952337658696%" >
	<feGaussianBlur in="SourceAlpha" stdDeviation="12.571726055183428"></feGaussianBlur>
	<feOffset dx="0" dy="0" result="oBlur" ></feOffset>
	<feFlood flood-color="rgb(0,0,0)" flood-opacity="1"/>
	<feComposite in2="oBlur" operator="in" />
	<feMerge>
		<feMergeNode></feMergeNode>
		<feMergeNode in="SourceGraphic"></feMergeNode>
	</feMerge>
</filter>
<path style="stroke: rgb(201,228,101); stroke-width: 1.2571726055183428; stroke-dasharray: none; stroke-linecap: butt; stroke-dashoffset: 0; stroke-linejoin: miter; stroke-miterlimit: 4; fill: rgb(171,188,96); fill-rule: nonzero; opacity: 1;filter: url(#SVGID_992473);"  paint-order="stroke"  transform=" translate(-7.61, 7.22)" d="M 13.43 -14.44 C 13.2 -14.44 13 -14.25 13 -14.01 L 13 -6.25 C 13 -3.28 10.58 -0.87 7.61 -0.87 C 4.64 -0.87 2.23 -3.28 2.23 -6.25 L 2.23 -14.01 C 2.23 -14.25 2.02 -14.44 1.79 -14.44 C 1.55 -14.44 1.36 -14.25 1.36 -14.01 L 1.36 -6.25 C 1.36 -2.81 4.17 0 7.61 0 C 11.06 0 13.86 -2.81 13.86 -6.25 L 13.86 -14.01 C 13.86 -14.25 13.68 -14.44 13.43 -14.44 Z" stroke-linecap="round" />
</g>
</g>
</g>
<g transform="matrix(1.1314586842258763 -1.5526214433922922 1.5526214433922922 1.1314586842258763 864.9808702105458 670.7344647369271)" id="text-logo-15"  >
<g style=""  paint-order="stroke"   >
		<g transform="matrix(1 0 0 1 0 0)" id="text-logo-15-path-0"  >
<filter id="SVGID_992474" y="-194.12362957317765%" height="488.2472591463553%" x="-282.1840678870371%" width="664.3681357740742%" >
	<feGaussianBlur in="SourceAlpha" stdDeviation="12.571726055183428"></feGaussianBlur>
	<feOffset dx="0" dy="0" result="oBlur" ></feOffset>
	<feFlood flood-color="rgb(0,0,0)" flood-opacity="1"/>
	<feComposite in2="oBlur" operator="in" />
	<feMerge>
		<feMergeNode></feMergeNode>
		<feMergeNode in="SourceGraphic"></feMergeNode>
	</feMerge>
</filter>
<path style="stroke: rgb(201,228,101); stroke-width: 1.2571726055183428; stroke-dasharray: none; stroke-linecap: butt; stroke-dashoffset: 0; stroke-linejoin: miter; stroke-miterlimit: 4; fill: rgb(171,188,96); fill-rule: nonzero; opacity: 1;filter: url(#SVGID_992474);"  paint-order="stroke"  transform=" translate(-6.425, 7.22)" d="M 8.66 -8.25 C 9.61 -8.85 10.25 -9.9 10.25 -11.1 C 10.25 -12.93 8.75 -14.44 6.91 -14.44 L 1.63 -14.44 L 1.63 0 L 6.91 0 C 9.28 0 11.22 -1.94 11.22 -4.31 C 11.22 -6.06 10.17 -7.57 8.66 -8.25 Z M 2.5 -0.87 L 2.5 -7.76 L 6.91 -7.76 C 8.81 -7.76 10.36 -6.21 10.36 -4.31 C 10.36 -2.41 8.81 -0.87 6.91 -0.87 Z M 2.5 -8.62 L 2.5 -13.57 L 6.91 -13.57 C 8.27 -13.57 9.39 -12.46 9.39 -11.1 C 9.39 -9.74 8.27 -8.62 6.91 -8.62 Z" stroke-linecap="round" />
</g>
</g>
</g>
<g transform="matrix(1.121552538155942 1.55979229538669 -1.5597922953866903 1.121552538155942 376.7492614980668 669.693806688307)" id="text-logo-shadow-0"  >
<g style=""  paint-order="stroke"   >
		<g transform="matrix(0.9999999999999999 0 0 1 0 0)" id="text-logo-shadow-0-path-0"  >
<path style="stroke: rgb(201,228,101); stroke-width: 1.2571726055183428; stroke-dasharray: none; stroke-linecap: butt; stroke-dashoffset: 0; stroke-linejoin: miter; stroke-miterlimit: 4; fill: rgb(171,188,96); fill-rule: nonzero; opacity: 1;"  paint-order="stroke"  transform=" translate(-5.250000000000001, 7.35)" d="M 5.25 -8.78 C 3.86 -8.78 2.73 -9.91 2.73 -11.3 C 2.73 -12.68 3.86 -13.82 5.25 -13.82 C 6.13 -13.82 6.95 -13.38 7.41 -12.62 C 7.54 -12.41 7.79 -12.35 8 -12.47 C 8.21 -12.6 8.27 -12.87 8.15 -13.06 C 7.54 -14.09 6.45 -14.7 5.25 -14.7 C 3.38 -14.7 1.85 -13.17 1.85 -11.3 C 1.85 -9.43 3.38 -7.9 5.25 -7.9 C 7.18 -7.9 8.76 -6.32 8.76 -4.39 C 8.76 -2.46 7.18 -0.88 5.25 -0.88 C 3.32 -0.88 1.74 -2.46 1.74 -4.39 C 1.74 -4.64 1.53 -4.83 1.3 -4.83 C 1.05 -4.83 0.86 -4.64 0.86 -4.39 C 0.86 -1.97 2.83 0 5.25 0 C 7.67 0 9.64 -1.97 9.64 -4.39 C 9.64 -6.8 7.67 -8.78 5.25 -8.78 Z" stroke-linecap="round" />
</g>
</g>
</g>
<g transform="matrix(1.3023491544249177 1.4123451350716008 -1.412345135071601 1.3023491544249177 400.4064644321487 698.6248613141457)" id="text-logo-shadow-1"  >
<g style=""  paint-order="stroke"   >
		<g transform="matrix(1 0 0 1 0 0)" id="text-logo-shadow-1-path-0"  >
<path style="stroke: rgb(201,228,101); stroke-width: 1.2571726055183428; stroke-dasharray: none; stroke-linecap: butt; stroke-dashoffset: 0; stroke-linejoin: miter; stroke-miterlimit: 4; fill: rgb(171,188,96); fill-rule: nonzero; opacity: 1;"  paint-order="stroke"  transform=" translate(-7.035, 7.35)" d="M 7.04 -14.7 L 2.1 -14.7 C 1.85 -14.7 1.66 -14.51 1.66 -14.26 L 1.66 -0.44 C 1.66 -0.19 1.85 0 2.1 0 C 2.33 0 2.54 -0.19 2.54 -0.44 L 2.54 -3.95 L 7.04 -3.95 C 10 -3.95 12.41 -6.36 12.41 -9.32 C 12.41 -12.29 10 -14.7 7.04 -14.7 Z M 2.54 -4.83 L 2.54 -13.82 L 7.04 -13.82 C 9.51 -13.82 11.53 -11.8 11.53 -9.32 C 11.53 -6.85 9.51 -4.83 7.04 -4.83 Z" stroke-linecap="round" />
</g>
</g>
</g>
<g transform="matrix(1.4648197902794433 1.2430346264675833 -1.2430346264675836 1.4648197902794435 426.37004169526574 723.4777180574606)" id="text-logo-shadow-2"  >
<g style=""  paint-order="stroke"   >
		<g transform="matrix(1 0 0 1 0 0)" id="text-logo-shadow-2-path-0"  >
<path style="stroke: rgb(201,228,101); stroke-width: 1.2571726055183428; stroke-dasharray: none; stroke-linecap: butt; stroke-dashoffset: 0; stroke-linejoin: miter; stroke-miterlimit: 4; fill: rgb(171,188,96); fill-rule: nonzero; opacity: 1;"  paint-order="stroke"  transform=" translate(-6.766402522158851, 7.35)" d="M 13.08 -0.61 L 7.22 -14.43 C 7.16 -14.6 6.99 -14.7 6.83 -14.7 C 6.66 -14.7 6.49 -14.6 6.43 -14.43 L 0.44 -0.61 C 0.36 -0.4 0.44 -0.13 0.67 -0.04 C 0.88 0.06 1.13 -0.04 1.24 -0.27 L 3.26 -4.94 L 10.31 -4.94 L 12.29 -0.27 C 12.35 -0.11 12.52 0 12.68 0 C 12.75 0 12.81 -0.02 12.85 -0.04 C 13.08 -0.13 13.19 -0.38 13.08 -0.61 Z M 3.65 -5.82 L 6.83 -13.15 L 9.93 -5.82 Z" stroke-linecap="round" />
</g>
</g>
</g>
<g transform="matrix(1.6156227784698858 1.0395167811444714 -1.0395167811444714 1.6156227784698858 458.92983769828936 747.5407729291353)" id="text-logo-shadow-3"  >
<g style=""  paint-order="stroke"   >
		<g transform="matrix(1 0 0 1 0 0)" id="text-logo-shadow-3-path-0"  >
<path style="stroke: rgb(201,228,101); stroke-width: 1.2571726055183428; stroke-dasharray: none; stroke-linecap: butt; stroke-dashoffset: 0; stroke-linejoin: miter; stroke-miterlimit: 4; fill: rgb(171,188,96); fill-rule: nonzero; opacity: 1;"  paint-order="stroke"  transform=" translate(-7.035, 7.35)" d="M 12.41 -9.32 C 12.41 -12.29 10 -14.7 7.04 -14.7 L 2.1 -14.7 C 1.85 -14.7 1.66 -14.51 1.66 -14.26 L 1.66 -0.44 C 1.66 -0.19 1.85 0 2.1 0 C 2.33 0 2.54 -0.19 2.54 -0.44 L 2.54 -3.95 L 5.86 -3.95 L 9.68 -0.13 C 9.77 -0.04 9.89 0 10 0 C 10.1 0 10.23 -0.04 10.31 -0.13 C 10.48 -0.29 10.48 -0.59 10.31 -0.76 L 7.1 -3.95 C 10.04 -3.99 12.41 -6.38 12.41 -9.32 Z M 2.54 -4.83 L 2.54 -13.82 L 7.04 -13.82 C 9.51 -13.82 11.53 -11.8 11.53 -9.32 C 11.53 -6.85 9.51 -4.83 7.04 -4.83 Z" stroke-linecap="round" />
</g>
</g>
</g>
<g transform="matrix(1.733830421275836 0.827444361180963 -0.8274443611809631 1.7338304212758362 492.54403075757557 766.1423672949257)" id="text-logo-shadow-4"  >
<g style=""  paint-order="stroke"   >
		<g transform="matrix(1 0 0 1 0 0)" id="text-logo-shadow-4-path-0"  >
<path style="stroke: rgb(201,228,101); stroke-width: 1.2571726055183428; stroke-dasharray: none; stroke-linecap: butt; stroke-dashoffset: 0; stroke-linejoin: miter; stroke-miterlimit: 4; fill: rgb(171,188,96); fill-rule: nonzero; opacity: 1;"  paint-order="stroke"  transform=" translate(-6.54375, 7.35)" d="M 11.3 -0.76 L 4.68 -7.35 L 11.3 -13.94 C 11.47 -14.11 11.47 -14.41 11.3 -14.57 C 11.13 -14.74 10.84 -14.74 10.67 -14.57 L 2.54 -6.43 L 2.54 -14.26 C 2.54 -14.51 2.33 -14.7 2.1 -14.7 C 1.85 -14.7 1.66 -14.51 1.66 -14.26 L 1.66 -0.44 C 1.66 -0.19 1.85 0 2.1 0 C 2.33 0 2.54 -0.19 2.54 -0.44 L 2.54 -5.19 L 4.07 -6.72 L 10.67 -0.13 C 10.75 -0.04 10.88 0 10.98 0 C 11.09 0 11.21 -0.04 11.3 -0.13 C 11.47 -0.29 11.47 -0.59 11.3 -0.76 Z" stroke-linecap="round" />
</g>
</g>
</g>
<g transform="matrix(1.8210182848099632 0.612147455258531 -0.612147455258531 1.8210182848099632 526.5774875122195 779.7640941151894)" id="text-logo-shadow-5"  >
<g style=""  paint-order="stroke"   >
		<g transform="matrix(0.9999999999999999 0 0 1 0 0)" id="text-logo-shadow-5-path-0"  >
<path style="stroke: rgb(201,228,101); stroke-width: 1.2571726055183428; stroke-dasharray: none; stroke-linecap: butt; stroke-dashoffset: 0; stroke-linejoin: miter; stroke-miterlimit: 4; fill: rgb(171,188,96); fill-rule: nonzero; opacity: 1;"  paint-order="stroke"  transform=" translate(-6.54, 7.35)" d="M 10.98 -0.88 L 2.54 -0.88 L 2.54 -14.26 C 2.54 -14.51 2.33 -14.7 2.1 -14.7 C 1.85 -14.7 1.66 -14.51 1.66 -14.26 L 1.66 -0.44 C 1.66 -0.19 1.85 0 2.1 0 L 10.98 0 C 11.24 0 11.42 -0.19 11.42 -0.44 C 11.42 -0.67 11.24 -0.88 10.98 -0.88 Z" stroke-linecap="round" />
</g>
</g>
</g>
<g transform="matrix(1.8815169482554333 0.3882345605678044 -0.3882345605678045 1.8815169482554335 561.5197325712134 789.0456447698132)" id="text-logo-shadow-6"  >
<g style=""  paint-order="stroke"   >
		<g transform="matrix(0.9999999999999999 0 0 1 0 0)" id="text-logo-shadow-6-path-0"  >
<path style="stroke: rgb(201,228,101); stroke-width: 1.2571726055183428; stroke-dasharray: none; stroke-linecap: butt; stroke-dashoffset: 0; stroke-linejoin: miter; stroke-miterlimit: 4; fill: rgb(171,188,96); fill-rule: nonzero; opacity: 1;"  paint-order="stroke"  transform=" translate(-6.54, 7.35)" d="M 10.98 -0.88 L 2.54 -0.88 L 2.54 -6.91 L 8.02 -6.91 C 8.27 -6.91 8.46 -7.1 8.46 -7.35 C 8.46 -7.6 8.27 -7.79 8.02 -7.79 L 2.54 -7.79 L 2.54 -13.82 L 10.98 -13.82 C 11.24 -13.82 11.42 -14.03 11.42 -14.26 C 11.42 -14.51 11.24 -14.7 10.98 -14.7 L 1.66 -14.7 L 1.66 0 L 10.98 0 C 11.24 0 11.42 -0.19 11.42 -0.44 C 11.42 -0.67 11.24 -0.88 10.98 -0.88 Z" stroke-linecap="round" />
</g>
</g>
</g>
<g transform="matrix(1.9110038699919139 0.19722147314033273 -0.19722147314033273 1.9110038699919139 594.2363643656007 808.0371766909298)" id="text-logo-shadow-7"  >
<g style=""  paint-order="stroke"   >
		<g transform="matrix(0.9999999999999999 0 0 1 0 0)" id="text-logo-shadow-7-path-0"  >
<path style="stroke: rgb(201,228,101); stroke-width: 1.2571726055183428; stroke-dasharray: none; stroke-linecap: butt; stroke-dashoffset: 0; stroke-linejoin: miter; stroke-miterlimit: 4; fill: rgb(171,188,96); fill-rule: nonzero; opacity: 1;"  paint-order="stroke"  transform=" translate(0, 0)" d="" stroke-linecap="round" />
</g>
</g>
</g>
<g transform="matrix(1.92115367316365 0.0008152800317838449 -0.000815280031783845 1.9211536731636503 621.762149709596 795.0207540785748)" id="text-logo-shadow-8"  >
<g style=""  paint-order="stroke"   >
		<g transform="matrix(0.9999999999999999 0 0 1 0 0)" id="text-logo-shadow-8-path-0"  >
<path style="stroke: rgb(201,228,101); stroke-width: 1.2571726055183428; stroke-dasharray: none; stroke-linecap: butt; stroke-dashoffset: 0; stroke-linejoin: miter; stroke-miterlimit: 4; fill: rgb(171,188,96); fill-rule: nonzero; opacity: 1;"  paint-order="stroke"  transform=" translate(-6.54, 7.35)" d="M 8.82 -8.4 C 9.79 -9.01 10.44 -10.08 10.44 -11.3 C 10.44 -13.17 8.9 -14.7 7.04 -14.7 L 1.66 -14.7 L 1.66 0 L 7.04 0 C 9.45 0 11.42 -1.97 11.42 -4.39 C 11.42 -6.17 10.35 -7.71 8.82 -8.4 Z M 2.54 -0.88 L 2.54 -7.9 L 7.04 -7.9 C 8.97 -7.9 10.54 -6.32 10.54 -4.39 C 10.54 -2.46 8.97 -0.88 7.04 -0.88 Z M 2.54 -8.78 L 2.54 -13.82 L 7.04 -13.82 C 8.42 -13.82 9.55 -12.68 9.55 -11.3 C 9.55 -9.91 8.42 -8.78 7.04 -8.78 Z" stroke-linecap="round" />
</g>
</g>
</g>
<g transform="matrix(1.9026858420544697 -0.2657417675812177 0.2657417675812177 1.9026858420544697 662.8740920637686 792.1276131004806)" id="text-logo-shadow-9"  >
<g style=""  paint-order="stroke"   >
		<g transform="matrix(1 0 0 1 0 0)" id="text-logo-shadow-9-path-0"  >
<path style="stroke: rgb(201,228,101); stroke-width: 1.2571726055183428; stroke-dasharray: none; stroke-linecap: butt; stroke-dashoffset: 0; stroke-linejoin: miter; stroke-miterlimit: 4; fill: rgb(171,188,96); fill-rule: nonzero; opacity: 1;"  paint-order="stroke"  transform=" translate(-8.3, 7.35)" d="M 8.29 0 C 12.35 0 15.65 -3.3 15.65 -7.35 C 15.65 -11.4 12.35 -14.7 8.29 -14.7 C 4.24 -14.7 0.95 -11.4 0.95 -7.35 C 0.95 -3.3 4.24 0 8.29 0 Z M 1.83 -7.35 C 1.83 -10.92 4.73 -13.82 8.29 -13.82 C 11.87 -13.82 14.76 -10.92 14.76 -7.35 C 14.76 -3.78 11.87 -0.88 8.29 -0.88 C 4.73 -0.88 1.83 -3.78 1.83 -7.35 Z M 2.86 -6.89 C 3.11 -4.1 5.44 -1.91 8.29 -1.91 C 11.15 -1.91 13.48 -4.1 13.73 -6.89 C 13.76 -7.16 13.52 -7.39 13.25 -7.39 C 13 -7.39 12.81 -7.2 12.79 -6.97 C 12.6 -4.6 10.71 -2.86 8.29 -2.86 C 5.88 -2.86 3.99 -4.6 3.8 -6.97 C 3.78 -7.2 3.59 -7.39 3.34 -7.39 C 3.07 -7.39 2.83 -7.16 2.86 -6.89 Z M 5.59 -7.73 C 5.59 -7.48 5.8 -7.27 6.05 -7.27 C 6.3 -7.27 6.53 -7.48 6.53 -7.73 L 6.53 -10.92 C 6.53 -11.17 6.3 -11.38 6.05 -11.38 C 5.8 -11.38 5.59 -11.17 5.59 -10.92 Z M 9.79 -7.73 C 9.79 -7.48 10 -7.27 10.25 -7.27 C 10.5 -7.27 10.73 -7.48 10.73 -7.73 L 10.73 -10.92 C 10.73 -11.17 10.5 -11.38 10.25 -11.38 C 10 -11.38 9.79 -11.17 9.79 -10.92 Z" stroke-linecap="round" />
</g>
</g>
</g>
<g transform="matrix(1.839771761550686 -0.5532377120121176 0.5532377120121177 1.8397717615506861 707.9352906379758 782.2650456728004)" id="text-logo-shadow-10"  >
<g style=""  paint-order="stroke"   >
		<g transform="matrix(1 0 0 1 0 0)" id="text-logo-shadow-10-path-0"  >
<path style="stroke: rgb(201,228,101); stroke-width: 1.2571726055183428; stroke-dasharray: none; stroke-linecap: butt; stroke-dashoffset: 0; stroke-linejoin: miter; stroke-miterlimit: 4; fill: rgb(171,188,96); fill-rule: nonzero; opacity: 1;"  paint-order="stroke"  transform=" translate(-8.3, 7.35)" d="M 8.29 0 C 12.35 0 15.65 -3.3 15.65 -7.35 C 15.65 -11.4 12.35 -14.7 8.29 -14.7 C 4.24 -14.7 0.95 -11.4 0.95 -7.35 C 0.95 -3.3 4.24 0 8.29 0 Z M 1.83 -7.35 C 1.83 -10.92 4.73 -13.82 8.29 -13.82 C 11.87 -13.82 14.76 -10.92 14.76 -7.35 C 14.76 -3.78 11.87 -0.88 8.29 -0.88 C 4.73 -0.88 1.83 -3.78 1.83 -7.35 Z M 2.86 -6.89 C 3.11 -4.1 5.44 -1.91 8.29 -1.91 C 11.15 -1.91 13.48 -4.1 13.73 -6.89 C 13.76 -7.16 13.52 -7.39 13.25 -7.39 C 13 -7.39 12.81 -7.2 12.79 -6.97 C 12.6 -4.6 10.71 -2.86 8.29 -2.86 C 5.88 -2.86 3.99 -4.6 3.8 -6.97 C 3.78 -7.2 3.59 -7.39 3.34 -7.39 C 3.07 -7.39 2.83 -7.16 2.86 -6.89 Z M 5.59 -7.73 C 5.59 -7.48 5.8 -7.27 6.05 -7.27 C 6.3 -7.27 6.53 -7.48 6.53 -7.73 L 6.53 -10.92 C 6.53 -11.17 6.3 -11.38 6.05 -11.38 C 5.8 -11.38 5.59 -11.17 5.59 -10.92 Z M 9.79 -7.73 C 9.79 -7.48 10 -7.27 10.25 -7.27 C 10.5 -7.27 10.73 -7.48 10.73 -7.73 L 10.73 -10.92 C 10.73 -11.17 10.5 -11.38 10.25 -11.38 C 10 -11.38 9.79 -11.17 9.79 -10.92 Z" stroke-linecap="round" />
</g>
</g>
</g>
<g transform="matrix(1.7464952350077785 -0.8003664752392127 0.8003664752392128 1.7464952350077787 747.6877434650236 767.179760331011)" id="text-logo-shadow-11"  >
<g style=""  paint-order="stroke"   >
		<g transform="matrix(1 0 0 1 0 0)" id="text-logo-shadow-11-path-0"  >
<path style="stroke: rgb(201,228,101); stroke-width: 1.2571726055183428; stroke-dasharray: none; stroke-linecap: butt; stroke-dashoffset: 0; stroke-linejoin: miter; stroke-miterlimit: 4; fill: rgb(171,188,96); fill-rule: nonzero; opacity: 1;"  paint-order="stroke"  transform=" translate(-6.54375, 7.35)" d="M 11.3 -0.76 L 4.68 -7.35 L 11.3 -13.94 C 11.47 -14.11 11.47 -14.41 11.3 -14.57 C 11.13 -14.74 10.84 -14.74 10.67 -14.57 L 2.54 -6.43 L 2.54 -14.26 C 2.54 -14.51 2.33 -14.7 2.1 -14.7 C 1.85 -14.7 1.66 -14.51 1.66 -14.26 L 1.66 -0.44 C 1.66 -0.19 1.85 0 2.1 0 C 2.33 0 2.54 -0.19 2.54 -0.44 L 2.54 -5.19 L 4.07 -6.72 L 10.67 -0.13 C 10.75 -0.04 10.88 0 10.98 0 C 11.09 0 11.21 -0.04 11.3 -0.13 C 11.47 -0.29 11.47 -0.59 11.3 -0.76 Z" stroke-linecap="round" />
</g>
</g>
</g>
<g transform="matrix(1.634107437089076 -1.0102103665286188 1.0102103665286188 1.6341074370890762 779.7858549999477 749.8917916681162)" id="text-logo-shadow-12"  >
<g style=""  paint-order="stroke"   >
		<g transform="matrix(1 0 0 1 0 0)" id="text-logo-shadow-12-path-0"  >
<path style="stroke: rgb(201,228,101); stroke-width: 1.2571726055183428; stroke-dasharray: none; stroke-linecap: butt; stroke-dashoffset: 0; stroke-linejoin: miter; stroke-miterlimit: 4; fill: rgb(171,188,96); fill-rule: nonzero; opacity: 1;"  paint-order="stroke"  transform=" translate(-7.569632352941178, 7.35)" d="M 14.03 -3.44 C 13.82 -3.61 13.55 -3.57 13.4 -3.38 C 12.16 -1.79 10.31 -0.88 8.29 -0.88 C 4.73 -0.88 1.83 -3.78 1.83 -7.35 C 1.83 -10.92 4.73 -13.82 8.29 -13.82 C 10.02 -13.82 11.66 -13.15 12.87 -11.93 C 13.04 -11.76 13.31 -11.76 13.48 -11.93 C 13.67 -12.1 13.67 -12.37 13.48 -12.54 C 12.1 -13.94 10.27 -14.7 8.29 -14.7 C 4.24 -14.7 0.95 -11.4 0.95 -7.35 C 0.95 -3.3 4.24 0 8.29 0 C 10.58 0 12.68 -1.03 14.09 -2.83 C 14.24 -3.02 14.22 -3.3 14.03 -3.44 Z" stroke-linecap="round" />
</g>
</g>
</g>
<g transform="matrix(1.488289056054424 -1.2148365265418832 1.2148365265418832 1.488289056054424 812.6965383148125 726.3063755868836)" id="text-logo-shadow-13"  >
<g style=""  paint-order="stroke"   >
		<g transform="matrix(1 0 0 1 0 0)" id="text-logo-shadow-13-path-0"  >
<path style="stroke: rgb(201,228,101); stroke-width: 1.2571726055183428; stroke-dasharray: none; stroke-linecap: butt; stroke-dashoffset: 0; stroke-linejoin: miter; stroke-miterlimit: 4; fill: rgb(171,188,96); fill-rule: nonzero; opacity: 1;"  paint-order="stroke"  transform=" translate(-6.54, 7.35)" d="M 10.98 -0.88 L 2.54 -0.88 L 2.54 -14.26 C 2.54 -14.51 2.33 -14.7 2.1 -14.7 C 1.85 -14.7 1.66 -14.51 1.66 -14.26 L 1.66 -0.44 C 1.66 -0.19 1.85 0 2.1 0 L 10.98 0 C 11.24 0 11.42 -0.19 11.42 -0.44 C 11.42 -0.67 11.24 -0.88 10.98 -0.88 Z" stroke-linecap="round" />
</g>
</g>
</g>
<g transform="matrix(1.3307971169039436 -1.3855724933152604 1.3855724933152604 1.3307971169039436 838.4002675078325 702.4837520216747)" id="text-logo-shadow-14"  >
<g style=""  paint-order="stroke"   >
		<g transform="matrix(1 0 0 1 0 0)" id="text-logo-shadow-14-path-0"  >
<path style="stroke: rgb(201,228,101); stroke-width: 1.2571726055183428; stroke-dasharray: none; stroke-linecap: butt; stroke-dashoffset: 0; stroke-linejoin: miter; stroke-miterlimit: 4; fill: rgb(171,188,96); fill-rule: nonzero; opacity: 1;"  paint-order="stroke"  transform=" translate(-7.749999999999999, 7.35)" d="M 13.67 -14.7 C 13.44 -14.7 13.23 -14.51 13.23 -14.26 L 13.23 -6.36 C 13.23 -3.34 10.77 -0.88 7.75 -0.88 C 4.73 -0.88 2.27 -3.34 2.27 -6.36 L 2.27 -14.26 C 2.27 -14.51 2.06 -14.7 1.83 -14.7 C 1.58 -14.7 1.39 -14.51 1.39 -14.26 L 1.39 -6.36 C 1.39 -2.86 4.24 0 7.75 0 C 11.26 0 14.11 -2.86 14.11 -6.36 L 14.11 -14.26 C 14.11 -14.51 13.92 -14.7 13.67 -14.7 Z" stroke-linecap="round" />
</g>
</g>
</g>
<g transform="matrix(1.1314586842258763 -1.5526214433922922 1.5526214433922922 1.1314586842258763 864.9671502381914 670.7099169446465)" id="text-logo-shadow-15"  >
<g style=""  paint-order="stroke"   >
		<g transform="matrix(1 0 0 1 0 0)" id="text-logo-shadow-15-path-0"  >
<path style="stroke: rgb(201,228,101); stroke-width: 1.2571726055183428; stroke-dasharray: none; stroke-linecap: butt; stroke-dashoffset: 0; stroke-linejoin: miter; stroke-miterlimit: 4; fill: rgb(171,188,96); fill-rule: nonzero; opacity: 1;"  paint-order="stroke"  transform=" translate(-6.54, 7.35)" d="M 8.82 -8.4 C 9.79 -9.01 10.44 -10.08 10.44 -11.3 C 10.44 -13.17 8.9 -14.7 7.04 -14.7 L 1.66 -14.7 L 1.66 0 L 7.04 0 C 9.45 0 11.42 -1.97 11.42 -4.39 C 11.42 -6.17 10.35 -7.71 8.82 -8.4 Z M 2.54 -0.88 L 2.54 -7.9 L 7.04 -7.9 C 8.97 -7.9 10.54 -6.32 10.54 -4.39 C 10.54 -2.46 8.97 -0.88 7.04 -0.88 Z M 2.54 -8.78 L 2.54 -13.82 L 7.04 -13.82 C 8.42 -13.82 9.55 -12.68 9.55 -11.3 C 9.55 -9.91 8.42 -8.78 7.04 -8.78 Z" stroke-linecap="round" />
</g>
</g>
</g>
</svg>